<svg width="1014" height="1336" xmlns="http://www.w3.org/2000/svg" xmlns:xlink="http://www.w3.org/1999/xlink" xml:space="preserve" overflow="hidden"><g transform="translate(-911 -576)"><path d="M1203.87 1052.05C1195 1048 1196.27 1064.2 1200.07 1068.25 1206.4 1075 1214 1066.9 1211.47 1058.8" fill="#82B3D5" fill-rule="evenodd"/><path d="M1104.85 1681.14C1104.85 1681.14 1104.85 1681.14 1103.52 1681.14 1074.25 1689.68 1048.96 1659.8 1029 1610 1034.32 1639.88 1038.32 1671.18 1038.32 1695.37 1038.32 1783.59 1039.65 1819.16 1040.98 1874.66 1040.98 1874.66 1040.98 1874.66 1040.98 1874.66 1040.98 1874.66 1040.98 1876.08 1040.98 1876.08 1040.98 1887.46 1076.91 1896 1122.15 1896 1166.07 1896 1202 1887.46 1202 1876.08 1202 1876.08 1202 1874.66 1202 1874.66 1202 1874.66 1202 1874.66 1202 1874.66 1202 1753.71 1202 1753.71 1202 1753.71 1198.01 1752.29 1192.68 1749.44 1187.36 1746.6 1160.75 1733.79 1131.47 1712.45 1104.85 1681.14Z" fill="#A5C7E0" fill-rule="evenodd"/><path d="M1197.68 1756.67C1195.02 1783.57 1203 1858.61 1193.69 1874.18 1180.38 1894 1111.19 1886.92 1092.56 1881.26 1116.51 1885.51 1159.09 1861.44 1171.06 1838.78 1184.37 1811.88 1169.73 1784.98 1152.44 1763.75 1124.49 1729.77 1045.98 1675.97 1038 1625 1053.97 1649.07 1107.19 1687.29 1128.48 1707.12 1145.78 1724.11 1171.06 1759.5 1197.68 1756.67" fill="#82B3D5" fill-rule="evenodd"/><path d="M1808.59 1060C1797.89 1058.58 1789.87 1060 1763.14 1071.33 1769.82 1082.67 1775.17 1095.42 1777.84 1109.58 1787.2 1143.58 1784.53 1152.08 1793.88 1179 1793.88 1179 1793.88 1179 1793.88 1179 1787.2 1149.25 1807.25 1118.08 1821.96 1108.17 1838 1098.25 1824.63 1061.42 1808.59 1060ZM1785.86 992C1785.86 992 1739.07 993.417 1711 1011.83 1724.37 1021.75 1743.08 1038.75 1757.79 1062.83 1763.14 1055.75 1776.51 1048.67 1796.56 1037.33 1804.58 1028.83 1804.58 1000.5 1785.86 992Z" fill="#F44D32" fill-rule="evenodd"/><path d="M1488.76 1134.11C1492.75 1107.11 1502.07 1085.79 1510.06 1060.21 1561.98 891.105 1673.81 942.263 1743.04 938 1760.34 933.737 1763.01 888.263 1748.36 884 1748.36 884 1733.72 881.158 1679.14 878.316 1679.14 878.316 1717.74 872.632 1748.36 869.789 1765.67 866.947 1767 815.789 1749.69 810.105 1684.46 810.105 1584.61 803 1515.39 808.684 1492.75 810.105 1472.79 811.526 1456.81 811.526 1456.81 811.526 1456.81 811.526 1456.81 811.526 1456.81 811.526 1456.81 811.526 1456.81 811.526 1436.84 810.105 1422.2 808.684 1411.55 804.421 1410.21 803 1410.21 803 1410.21 803 1383.59 815.789 1358.29 857 1376.93 943.684 1379.6 945.105 1379.6 945.105 1379.6 945.105 1386.25 949.368 1390.25 957.895 1384.92 977.789 1384.92 977.789 1384.92 977.789 1384.92 977.789 1384.92 977.789 1384.92 977.789 1384.92 977.789 1382.26 990.579 1376.93 1007.63 1366.28 1031.79 1342.32 1090.05 1333 1155.42 1335.66 1208 1335.66 1208 1335.66 1247.79 1333 1262" fill="#A5C7E0" fill-rule="evenodd"/><path d="M1390.72 1089.65C1410.62 1085.4 1430.52 1086.82 1449.09 1095.31 1458.38 1099.56 1465.01 1103.8 1471.65 1110.88 1476.95 1116.54 1482.26 1127.86 1487.57 1119.37 1491.55 1115.12 1492.87 1096.73 1494.2 1089.65 1498.18 1078.33 1503.49 1068.42 1507.47 1057.1 1515.43 1035.87 1530.02 1014.64 1534 992 1510.12 1021.72 1504.81 1055.68 1462.36 1062.76 1430.52 1068.42 1396.03 1064.18 1369.49 1085.4 1354.9 1098.14 1346.94 1120.78 1342.96 1142.01 1341.63 1156.16 1342.96 1170.32 1341.63 1185.88 1340.31 1198.62 1335 1221.26 1341.63 1234 1348.27 1217.02 1348.27 1202.87 1349.59 1185.88 1350.92 1177.39 1353.57 1168.9 1354.9 1158.99 1357.55 1146.26 1354.9 1133.52 1357.55 1122.2" fill="#82B3D5" fill-rule="evenodd"/><path d="M1003 1101C1015.1 1074.03 1028.54 1062.68 1039.3 1051.33 1051.4 1037.13 1070.22 1025.78 1087.7 1025.78 1103.83 1024.36 1128.03 1020.1 1140.13 1022.94 1150.88 1025.78 1168.36 1027.2 1179.11 1034.3 1180.46 1035.72 1183.15 1037.13 1184.49 1039.97 1185.83 1039.97 1185.83 1039.97 1187.18 1041.39 1188.52 1042.81 1189.87 1042.81 1191.21 1044.23 1191.21 1045.65 1192.56 1045.65 1192.56 1047.07 1193.9 1048.49 1195.24 1049.91 1196.59 1051.33 1196.59 1051.33 1197.93 1051.33 1197.93 1052.75 1199.28 1054.17 1200.62 1057 1203.31 1058.42 1206 1052.75 1206 1052.75 1206 1052.75 1197.93 1030.04 1193.9 873.923 1192.56 780.254 1191.21 751.869 1191.21 746.192 1191.21 734.838 1185.83 744.773 1153.57 751.869 1114.58 751.869 1072.91 751.869 1037.95 743.354 1037.95 732 1037.95 732 1037.95 734.838 1036.61 736.258 1035.26 750.45 1035.26 753.288 1033.92 775.996 1032.58 828.508 1033.92 898.05 1035.26 954.819 1036.61 995.977 1025.85 1047.07 1003 1101Z" fill="#A5C7E0" fill-rule="evenodd"/><path d="M1540.44 1858.72C1521.74 1854.48 1504.37 1850.24 1487 1846 1487 1888.39 1487 1888.39 1487 1888.39 1487 1889.8 1487 1894.04 1487 1895.46 1495.02 1903.93 1528.42 1911 1569.83 1911 1608.58 1911 1641.98 1903.93 1651.33 1896.87 1652.66 1895.46 1654 1892.63 1654 1892.63 1654 1875.67 1654 1875.67 1654 1875.67 1621.94 1875.67 1584.53 1870.02 1540.44 1858.72Z" fill="#F44D32" fill-rule="evenodd"/><path d="M938.616 1052.44C925.329 1059.63 924 1102.8 942.603 1107.12 953.233 1110 978.479 1110 999.74 1110 1001.07 1107.12 1002.4 1104.24 1003.73 1101.37 1003.73 1101.37 1003.73 1101.37 1003.73 1101.37 1010.37 1084.1 1015.68 1066.83 1021 1051 990.438 1051 953.233 1051 938.616 1052.44Z" fill="#F44D32" fill-rule="evenodd"/><path d="M1097 745C1103.61 745 1131.39 745 1138 744" fill="#EEB1D7" fill-rule="evenodd"/><path d="M1460.67 1233.17C1462 1255.93 1454.02 1307.13 1462 1327.05 1471.32 1348.38 1471.32 1361.18 1475.31 1378.25 1479.3 1395.32 1475.31 1442.26 1483.29 1462.17 1491.27 1483.51 1493.93 1493.46 1500.58 1504.84 1505.9 1516.22 1516.54 1558.89 1529.84 1575.96 1544.47 1594.45 1544.47 1608.68 1553.78 1617.21 1563.1 1627.17 1559.11 1637.12 1565.76 1645.66 1573.74 1654.19 1577.73 1655.61 1583.05 1661.3 1588.37 1668.42 1600.34 1681.22 1596.35 1691.17 1592.36 1701.13 1603 1725.31 1596.35 1728.16 1589.7 1731 1591.03 1723.89 1577.73 1719.62 1563.1 1715.35 1549.79 1706.82 1543.14 1709.66 1536.49 1712.51 1516.54 1703.97 1517.87 1695.44 1519.2 1685.48 1512.55 1681.22 1512.55 1681.22 1512.55 1681.22 1500.58 1672.68 1495.26 1672.68 1491.27 1672.68 1485.95 1668.42 1477.97 1671.26 1469.99 1674.11 1464.67 1684.06 1459.34 1682.64 1455.35 1681.22 1450.03 1679.79 1446.04 1674.11 1442.05 1668.42 1446.04 1662.73 1436.73 1657.04 1426.09 1649.92 1436.73 1638.55 1420.77 1641.39 1406.14 1644.24 1407.47 1654.19 1395.5 1639.97 1382.2 1625.74 1382.2 1617.21 1378.21 1612.94 1374.22 1608.68 1378.21 1598.72 1371.56 1593.03 1364.9 1587.34 1364.9 1575.96 1356.92 1575.96 1347.61 1575.96 1335.64 1574.54 1335.64 1574.54 1335.64 1574.54 1336.97 1574.54 1323.67 1570.27 1309.04 1564.58 1315.69 1580.23 1309.04 1564.58 1302.39 1547.51 1306.38 1531.87 1295.74 1531.87 1285.1 1531.87 1274.45 1533.29 1274.45 1533.29 1259.82 1527.6 1259.82 1527.6 1259.82 1527.6 1259.82 1527.6 1258.49 1520.49 1254.5 1513.38 1250.51 1506.26 1255.83 1503.42 1249.18 1492.04 1241.2 1482.08 1241.2 1477.82 1231.89 1470.71 1222.58 1463.59 1223.91 1453.64 1219.92 1449.37 1215.93 1445.1 1217.26 1440.84 1213.27 1433.72 1210.61 1429.46 1194.65 1416.66 1190.66 1406.7 1188 1399.59 1195.98 1392.47 1205.29 1393.9 1235.88 1395.32 1265.14 1420.92 1290.42 1433.72 1290.42 1433.72 1269.13 1410.97 1227.9 1386.79 1181.34 1359.76 1161.39 1401.01 1148.09 1399.59 1137.45 1401.01 1136.12 1398.16 1128.14 1396.74 1120.16 1395.32 1120.16 1385.36 1113.51 1382.52 1106.86 1379.67 1105.53 1376.83 1096.22 1365.45 1088.23 1355.49 1081.58 1342.69 1076.26 1332.74 1070.94 1322.78 1074.93 1325.62 1072.27 1317.09 1069.61 1309.98 1070.94 1309.98 1064.29 1301.44 1058.97 1292.91 1056.31 1292.91 1056.31 1281.53 1056.31 1270.15 1060.3 1273 1053.65 1264.46 1047 1254.5 1050.99 1248.81 1050.99 1240.28 1050.99 1231.75 1048.33 1227.48 1048.33 1217.52 1053.65 1203.3 1064.29 1190.5 1077.59 1181.96 1085.57 1177.7 1108.19 1173.43 1118.83 1170.58 1130.8 1167.74 1138.78 1162.05 1152.08 1162.05 1158.73 1162.05 1164.05 1166.32 1173.36 1167.74 1184 1169.16 1195.98 1169.16 1201.3 1172.01 1227.9 1181.96 1230.56 1217.52 1247.85 1236.01 1251.84 1241.7 1257.16 1243.13 1261.15 1250.24 1265.14 1255.93 1265.14 1263.04 1270.46 1268.73 1277.11 1277.26 1302.39 1277.26 1299.73 1291.49 1303.72 1307.13 1293.08 1328.47 1303.72 1358.34 1314.36 1389.63 1332.98 1401.01 1332.98 1401.01 1322.34 1365.45 1303.72 1346.96 1318.35 1324.2 1334.31 1302.87 1328.99 1305.71 1334.31 1292.91 1332.98 1295.75 1332.98 1295.75 1332.98 1295.75 1332.98 1291.49 1332.98 1281.53 1335.64 1277.26 1339.63 1271.57 1347.61 1273 1350.27 1267.31 1356.92 1255.93 1350.27 1245.97 1360.91 1236.01 1359.58 1237.44 1359.58 1237.44 1359.58 1237.44 1375.55 1228.9 1400.82 1203.3 1400.82 1189.08 1390.18 1210.41 1375.55 1211.83 1368.89 1204.72 1364.9 1203.3 1370.22 1194.76 1370.22 1194.76 1367.56 1190.5 1374.22 1186.23 1372.89 1183.39 1371.56 1179.12 1371.56 1173.43 1370.22 1166.32 1372.89 1147.83 1375.55 1126.49 1378.21 1117.96 1390.18 1110.84 1408.8 1108 1427.42 1112.27 1444.71 1115.11 1458.01 1123.65 1467.33 1135.03 1466 1143.56 1464.67 1154.94 1463.33 1169.16 1460.67 1172.01 1467.33 1180.54 1464.67 1186.23 1460.67 1193.34 1466 1193.34 1464.67 1206.14 1462 1218.95 1467.33 1217.52 1459.34 1216.1 1446.04 1216.1 1435.4 1211.83 1430.08 1191.92 1428.75 1211.83 1439.39 1227.48 1460.67 1233.17Z" fill="#AB0034" fill-rule="evenodd"/><path d="M1174.63 1370.73C1153.31 1360.8 1146.65 1325.34 1138.66 1305.48 1133.33 1287.04 1124 1270.02 1133.33 1251.58 1147.98 1227.46 1199.94 1221.79 1217.26 1243.06 1222.59 1250.16 1223.92 1260.09 1229.25 1265.76 1235.91 1272.85 1247.9 1275.69 1255.9 1282.78 1269.22 1294.13 1278.54 1311.15 1283.87 1328.17 1293.2 1356.54 1303.86 1379.24 1327.84 1394.84 1317.18 1372.14 1321.18 1328.17 1338.5 1311.15 1359.81 1289.87 1379.8 1264.34 1387.79 1233.14 1389.12 1221.79 1386.46 1209.02 1395.79 1200.51 1403.78 1192 1421.1 1192 1429.09 1200.51 1433.09 1206.18 1431.76 1213.28 1438.42 1218.95 1442.41 1221.79 1450.41 1223.21 1454.41 1226.04 1469.06 1231.72 1470.39 1237.39 1469.06 1252.99 1466.4 1234.55 1458.4 1234.55 1447.74 1224.62 1454.41 1245.9 1441.08 1267.18 1438.42 1288.46 1435.75 1322.5 1451.74 1356.54 1457.07 1389.17 1461.07 1420.37 1454.41 1448.74 1461.07 1478.53 1470.39 1512.57 1483.72 1549.45 1502.37 1579.24 1510.36 1592.01 1521.02 1604.77 1529.01 1618.96 1535.67 1630.3 1545 1641.65 1527.68 1645.91 1502.37 1653 1491.71 1626.05 1466.4 1623.21 1439.75 1620.38 1413.1 1610.45 1399.78 1584.91 1391.79 1569.31 1387.79 1556.54 1373.14 1548.03 1359.81 1540.94 1345.16 1540.94 1337.16 1529.59 1334.5 1523.92 1334.5 1518.25 1329.17 1512.57 1322.51 1506.9 1315.85 1505.48 1307.85 1501.22 1301.19 1496.97 1293.2 1492.71 1285.21 1488.46 1278.54 1485.62 1269.22 1485.62 1262.56 1479.95 1257.23 1474.27 1249.23 1454.42 1254.56 1445.9 1259.89 1438.81 1274.55 1440.23 1281.21 1431.72 1253.23 1410.44 1233.25 1377.82 1193.28 1383.49" fill="#B91645" fill-rule="evenodd"/><path d="M1513.44 1051.94C1522.71 1049.1 1534.62 1047.68 1538.59 1047.68 1545.21 1047.68 1558.44 1044.84 1565.06 1043.42 1573 1042 1582.26 1044.84 1590.21 1044.84 1598.15 1044.84 1600.79 1049.1 1604.76 1049.1 1610.06 1049.1 1618 1053.36 1621.97 1054.78 1625.94 1054.78 1640.5 1054.78 1649.76 1057.63 1657.71 1060.47 1663 1064.73 1670.94 1064.73 1678.88 1064.73 1681.53 1071.83 1690.79 1077.51 1700.06 1083.2 1700.06 1091.72 1705.35 1095.98 1710.65 1098.82 1726.53 1135.76 1726.53 1145.7 1726.53 1157.07 1730.5 1158.49 1729.18 1168.43 1727.85 1178.37 1729.18 1199.68 1697.41 1225.25 1665.65 1249.4 1676.24 1309.07 1692.12 1336.06 1672.26 1283.5 1697.41 1253.66 1701.38 1252.24 1705.35 1250.82 1710.65 1246.56 1714.62 1246.56 1719.91 1246.56 1726.53 1253.66 1726.53 1253.66 1726.53 1253.66 1729.18 1265.03 1731.82 1272.13 1734.47 1280.65 1730.5 1314.75 1731.82 1323.27 1733.15 1331.79 1727.85 1341.74 1734.47 1350.26 1741.09 1357.36 1733.15 1361.63 1735.79 1367.31 1738.44 1372.99 1738.44 1380.09 1738.44 1387.2 1738.44 1394.3 1733.15 1402.82 1742.41 1418.45 1753 1434.07 1741.09 1431.23 1743.74 1442.6 1746.38 1452.54 1739.76 1453.96 1739.76 1453.96 1739.76 1453.96 1730.5 1459.64 1723.88 1451.12 1717.26 1444.02 1714.62 1461.07 1713.29 1468.17 1711.97 1475.27 1718.59 1475.27 1731.82 1488.06 1745.06 1499.42 1734.47 1493.74 1739.76 1507.94 1745.06 1522.15 1745.06 1520.73 1746.38 1532.09 1747.71 1544.88 1745.06 1543.46 1742.41 1547.72 1739.76 1551.98 1738.44 1553.4 1733.15 1546.3 1727.85 1539.2 1731.82 1532.09 1723.88 1523.57 1714.62 1513.63 1718.59 1529.25 1713.29 1537.78 1709.32 1547.72 1718.59 1556.24 1723.88 1574.71 1729.18 1591.76 1725.21 1591.76 1726.53 1605.96 1727.85 1618.75 1722.56 1623.01 1718.59 1632.95 1713.29 1642.9 1708 1645.74 1696.09 1648.58 1682.85 1650 1661.68 1642.9 1657.71 1630.11 1653.74 1617.33 1653.74 1627.27 1641.82 1608.8 1631.24 1588.92 1628.59 1596.02 1623.29 1577.55 1618 1560.5 1614.03 1539.2 1602.12 1524.99 1591.53 1509.36 1592.85 1507.94 1588.88 1493.74 1584.91 1480.95 1583.59 1473.85 1573 1451.12 1561.09 1429.81 1565.06 1431.23 1561.09 1412.77 1557.12 1395.72 1530.65 1363.05 1529.32 1344.58 1528 1324.69 1520.06 1331.79 1514.76 1306.22 1509.47 1279.23 1483 1263.61 1485.65 1232.35 1504.18 1225.25 1514.76 1211.05 1514.76 1186.9 1512.12 1208.21 1501.53 1213.89 1485.65 1215.31 1485.65 1213.89 1485.65 1213.89 1485.65 1213.89 1484.32 1184.06 1486.97 1148.54 1489.62 1134.34 1489.62 1131.5 1489.62 1128.65 1486.97 1127.23" fill="#AB0034" fill-rule="evenodd"/><path d="M983.869 1184C986.565 1156.98 990.609 1137.07 996 1121.42 970.391 1120 932.652 1121.42 923.217 1122.84 911.087 1124.27 903 1175.47 928.609 1181.16 942.087 1184 962.304 1184 983.869 1184Z" fill="#F44D32" fill-rule="evenodd"/><path d="M1008 845C989.333 845 966.667 850.739 957.333 850.739 949.333 853.609 944 865.087 944 878" fill="#EEB1D7" fill-rule="evenodd"/><path d="M1035 799.714C1006.77 794 983.918 788.286 974.508 784 962.41 785.429 954.344 799.714 953 814" fill="#EEB1D7" fill-rule="evenodd"/><path d="M1035 794.552C1006.81 788.896 983.986 781.828 974.589 779 954.452 780.414 945.055 815.759 959.822 829.897 973.247 834.138 1008.15 842.621 1008.15 842.621 988.014 842.621 966.534 844.034 955.795 844.034 939.685 849.69 937 894.931 961.164 899.172 982.644 900.586 1012.18 902 1035 902 1035 865.241 1035 827.069 1035 794.552Z" fill="#A5C7E0" fill-rule="evenodd"/><path d="M1534 670.588C1528.67 667.742 1511.33 654.938 1510 650.67 1507.33 647.825 1506 639.289 1512.67 620.794 1519.33 598.031 1483.33 575.268 1468.67 599.454 1464.67 606.567 1462 610.835 1451.33 625.062 1451.33 625.062 1452.67 592.34 1448.67 588.072 1436.67 571 1412.67 575.268 1404.67 585.227 1398 593.763 1403.33 637.866 1370 640.711 1352.67 639.289 1355.33 619.371 1355.33 606.567 1356.67 595.185 1311.33 593.763 1307.33 619.371 1306 635.021 1304.67 650.67 1299.33 664.897 1298 669.165 1292.67 677.701 1291.33 679.124 1202 754.526 1194 805.742 1194 892.526 1194 928.093 1190 1000.65 1206 1066.09 1206 1067.52 1206 1067.52 1206 1067.52 1218 1086.01 1227.33 1107.35 1243.33 1128.69 1254 1141.49 1254 1167.1 1248.67 1196.98 1247.33 1195.56 1246 1194.13 1244.67 1192.71 1274 1228.28 1316.67 1261 1332.67 1252.46 1334 1252.46 1334 1251.04 1335.33 1251.04 1335.33 1187.02 1335.33 1187.02 1335.33 1187.02 1335.33 1138.65 1346 1081.74 1366 1031.95 1376.67 1007.76 1382 990.691 1384.67 977.886 1384.67 977.886 1384.67 977.886 1384.67 977.886 1384.67 977.886 1384.67 977.886 1384.67 977.886 1390 957.969 1386 949.433 1379.33 945.165 1376.67 943.742 1376.67 943.742 1376.67 943.742 1358 856.959 1383.33 815.701 1410 802.897 1411.33 804.319 1411.33 804.319 1411.33 804.319 1422 808.588 1436.67 810.01 1456.67 811.433 1456.67 811.433 1456.67 811.433 1456.67 811.433 1456.67 811.433 1456.67 811.433 1456.67 811.433 1472.67 811.433 1492.67 810.01 1515.33 808.588 1548.67 805.742 1587.33 805.742 1626 807.165 1611.33 750.258 1580.67 701.887 1534 670.588Z" fill="#F44D32" fill-rule="evenodd"/><path d="M1567.31 967.733C1588.55 969.2 1611.12 972.133 1635.02 978 1636.34 963.333 1637.67 948.667 1639 934 1611.12 935.467 1584.57 944.267 1562 967.733L1567.31 967.733Z" fill="#F44D32" fill-rule="evenodd"/><path d="M1851.35 1445C1828.69 1378.26 1812.7 1325.73 1794.04 1284.55 1779.38 1253.32 1764.72 1220.66 1766.05 1213.56 1767.38 1210.72 1767.38 1210.72 1767.38 1210.72 1783.38 1125.53 1754.05 1064.47 1679.42 1028.98 1626.1 1004.84 1572.79 1002 1532.81 1006.26 1531.47 1006.26 1531.47 1006.26 1531.47 1006.26 1531.47 1007.68 1531.47 1009.1 1530.14 1009.1 1523.48 1021.88 1518.14 1036.08 1512.81 1051.7 1522.14 1048.86 1534.14 1047.44 1538.14 1047.44 1544.8 1047.44 1558.13 1044.6 1564.79 1043.18 1572.79 1041.76 1582.12 1044.6 1590.12 1044.6 1598.11 1044.6 1600.78 1048.86 1604.78 1048.86 1610.11 1048.86 1618.11 1053.11 1622.1 1054.53 1626.1 1054.53 1640.76 1054.53 1650.09 1057.37 1658.09 1060.21 1663.42 1064.47 1671.42 1064.47 1679.42 1064.47 1682.08 1071.57 1691.41 1077.25 1700.74 1082.93 1700.74 1091.45 1706.07 1095.71 1711.4 1098.55 1727.4 1135.47 1727.4 1145.41 1727.4 1156.76 1731.4 1158.18 1730.06 1168.12 1728.73 1178.06 1730.06 1199.36 1698.08 1224.92 1666.09 1249.06 1676.75 1308.69 1692.74 1335.67 1672.75 1283.13 1698.08 1253.32 1702.07 1251.9 1706.07 1250.48 1711.4 1246.22 1715.4 1246.22 1720.73 1246.22 1727.4 1253.32 1727.4 1253.32 1727.4 1253.32 1730.06 1264.67 1732.73 1271.77 1735.39 1280.29 1731.4 1314.37 1732.73 1322.89 1734.06 1331.41 1728.73 1341.35 1735.39 1349.87 1742.06 1356.97 1734.06 1361.22 1736.73 1366.9 1739.39 1372.58 1739.39 1379.68 1739.39 1386.78 1739.39 1393.88 1734.06 1402.4 1743.39 1418.02 1754.05 1433.64 1742.06 1430.8 1744.72 1442.16 1747.39 1452.1 1740.73 1453.52 1740.73 1453.52 1740.73 1453.52 1731.4 1459.2 1724.73 1450.68 1718.07 1443.58 1715.4 1460.62 1714.07 1467.71 1712.74 1474.81 1719.4 1474.81 1732.73 1487.59 1746.06 1498.95 1735.39 1493.27 1740.73 1507.47 1746.06 1521.67 1746.06 1520.25 1747.39 1531.61 1748.72 1544.39 1746.06 1542.97 1743.39 1547.23 1740.73 1551.49 1739.39 1552.91 1734.06 1545.81 1728.73 1538.71 1732.73 1531.61 1724.73 1523.09 1715.4 1513.15 1719.4 1528.77 1714.07 1537.29 1710.07 1547.23 1719.4 1555.75 1724.73 1574.2 1730.06 1591.24 1726.06 1591.24 1727.4 1605.44 1728.73 1618.22 1723.4 1622.48 1719.4 1632.42 1714.07 1642.36 1708.74 1645.2 1696.74 1648.04 1683.41 1649.46 1662.09 1642.36 1658.09 1629.58 1654.09 1616.8 1654.09 1626.74 1642.1 1608.28 1631.43 1588.4 1628.77 1595.5 1623.44 1577.04 1618.11 1560.01 1614.11 1538.71 1602.11 1524.51 1591.45 1508.89 1592.78 1507.47 1588.78 1493.27 1584.79 1480.49 1583.45 1473.39 1572.79 1450.68 1560.79 1429.38 1564.79 1430.8 1560.79 1412.34 1556.8 1395.3 1530.14 1362.64 1528.81 1344.19 1527.47 1324.31 1519.48 1331.41 1514.15 1305.85 1508.81 1278.87 1482.16 1263.25 1484.82 1232.02 1503.48 1224.92 1514.15 1210.72 1514.15 1186.58 1511.48 1207.88 1500.82 1213.56 1484.82 1214.98 1484.82 1213.56 1484.82 1213.56 1484.82 1213.56 1483.49 1183.74 1486.16 1148.25 1488.82 1134.05 1488.82 1131.21 1488.82 1128.37 1486.16 1126.95 1475.49 1109.91 1455.5 1097.13 1431.51 1092.87 1406.19 1087.19 1380.86 1091.45 1364.87 1102.81 1363.54 1104.23 1362.2 1105.65 1360.87 1107.07 1356.87 1114.17 1356.87 1135.47 1352.87 1169.54 1350.21 1196.52 1351.54 1240.54 1332.88 1251.9 1314.22 1261.83 1259.58 1216.4 1234.25 1175.22 1232.92 1173.8 1232.92 1173.8 1232.92 1173.8 1199.6 1138.31 1147.62 1136.89 1108.97 1148.25 1066.32 1159.6 1034.33 1186.58 1027.67 1216.4 1027.67 1217.82 1027.67 1217.82 1027.67 1217.82 1025 1274.61 1067.65 1403.82 1116.96 1436.48 1160.95 1464.87 1163.61 1470.55 1183.61 1510.31 1207.6 1561.43 1320.89 1714.77 1515.48 1765.89 1711.4 1817 1748.72 1757.37 1782.04 1738.91 1783.38 1738.91 1783.38 1738.91 1783.38 1738.91 1783.38 1738.91 1783.38 1738.91 1783.38 1737.49 1862.01 1673.59 1894 1574.2 1851.35 1445ZM1596.78 1727.55C1590.12 1730.39 1591.45 1723.29 1578.12 1719.03 1563.46 1714.77 1550.13 1706.25 1543.47 1709.09 1536.8 1711.93 1516.81 1703.41 1518.14 1694.89 1519.48 1684.95 1512.81 1680.69 1512.81 1680.69 1512.81 1680.69 1500.82 1672.17 1495.49 1672.17 1491.49 1672.17 1486.16 1667.91 1478.16 1670.75 1470.16 1673.59 1464.83 1683.53 1459.5 1682.11 1455.5 1680.69 1450.17 1679.27 1446.17 1673.59 1442.17 1667.91 1446.17 1662.24 1436.84 1656.56 1426.18 1649.46 1436.84 1638.1 1420.85 1640.94 1406.19 1643.78 1407.52 1653.72 1395.52 1639.52 1382.2 1625.32 1382.2 1616.8 1378.2 1612.54 1374.2 1608.28 1378.2 1598.34 1371.53 1592.66 1364.87 1586.98 1364.87 1575.62 1356.87 1575.62 1347.54 1575.62 1335.55 1574.2 1335.55 1574.2 1335.55 1574.2 1336.88 1574.2 1323.55 1569.94 1308.89 1564.26 1315.56 1579.88 1308.89 1564.26 1302.23 1547.23 1306.23 1531.61 1295.56 1531.61 1284.9 1531.61 1274.24 1533.03 1274.24 1533.03 1259.58 1527.35 1259.58 1527.35 1259.58 1527.35 1259.58 1527.35 1258.24 1520.25 1254.25 1513.15 1250.25 1506.05 1255.58 1503.21 1248.91 1491.85 1240.92 1481.91 1240.92 1477.65 1231.59 1470.55 1222.26 1463.45 1223.59 1453.52 1219.59 1449.26 1215.59 1445 1216.93 1440.74 1212.93 1433.64 1210.26 1429.38 1194.27 1416.6 1190.27 1406.66 1187.6 1399.56 1195.6 1392.46 1204.93 1393.88 1235.59 1395.3 1264.91 1420.86 1290.23 1433.64 1290.23 1433.64 1268.91 1410.92 1227.59 1386.78 1180.94 1359.8 1160.95 1400.98 1147.62 1399.56 1136.96 1400.98 1135.62 1398.14 1127.63 1396.72 1119.63 1395.3 1119.63 1385.36 1112.97 1382.52 1106.3 1379.68 1104.97 1376.84 1095.64 1365.48 1087.64 1355.55 1080.98 1342.77 1075.65 1332.83 1070.32 1322.89 1074.31 1325.73 1071.65 1317.21 1068.98 1310.11 1070.32 1310.11 1063.65 1301.59 1058.32 1293.07 1055.66 1293.07 1055.66 1281.71 1055.66 1270.35 1059.65 1273.19 1052.99 1264.67 1046.33 1254.74 1050.32 1249.06 1050.32 1240.54 1050.32 1232.02 1047.66 1227.76 1047.66 1217.82 1052.99 1203.62 1063.65 1190.84 1076.98 1182.32 1084.98 1178.06 1107.64 1173.8 1118.3 1170.96 1130.29 1168.12 1138.29 1162.44 1151.62 1162.44 1158.28 1162.44 1163.61 1166.7 1172.94 1168.12 1183.61 1169.54 1195.6 1169.54 1200.93 1172.38 1227.59 1182.32 1230.25 1217.82 1247.58 1236.28 1251.58 1241.96 1256.91 1243.38 1260.91 1250.48 1264.91 1256.16 1264.91 1263.25 1270.24 1268.93 1276.9 1277.45 1302.23 1277.45 1299.56 1291.65 1303.56 1307.27 1292.9 1328.57 1303.56 1358.39 1314.22 1389.62 1332.88 1400.98 1332.88 1400.98 1322.22 1365.48 1303.56 1347.03 1318.22 1324.31 1334.21 1303.01 1328.88 1305.85 1334.21 1293.07 1332.88 1295.91 1332.88 1295.91 1332.88 1295.91 1332.88 1291.65 1332.88 1281.71 1335.55 1277.45 1339.55 1271.77 1347.54 1273.19 1350.21 1267.51 1356.87 1257.57 1351.54 1246.22 1359.54 1237.7 1375.53 1229.18 1400.86 1203.62 1400.86 1189.42 1390.19 1210.72 1375.53 1212.14 1368.87 1205.04 1364.87 1203.62 1370.2 1195.1 1370.2 1195.1 1367.54 1190.84 1374.2 1186.58 1372.87 1183.74 1371.53 1179.48 1371.53 1173.8 1370.2 1166.7 1372.87 1148.25 1375.53 1126.95 1378.2 1118.43 1390.19 1111.33 1408.85 1108.49 1427.51 1112.75 1444.84 1115.59 1458.17 1124.11 1467.5 1135.47 1466.16 1143.99 1464.83 1155.34 1463.5 1169.54 1460.83 1172.38 1467.5 1180.9 1464.83 1186.58 1460.83 1193.68 1466.16 1193.68 1464.83 1206.46 1462.17 1219.24 1467.5 1217.82 1459.5 1216.4 1446.17 1216.4 1435.51 1212.14 1430.18 1192.26 1428.85 1212.14 1439.51 1227.76 1460.83 1233.44 1462.17 1256.16 1454.17 1307.27 1462.17 1327.15 1471.5 1348.45 1471.5 1361.22 1475.49 1378.26 1479.49 1395.3 1475.49 1442.16 1483.49 1462.03 1491.49 1483.33 1494.15 1493.27 1500.82 1504.63 1506.15 1515.99 1516.81 1558.59 1530.14 1575.62 1544.8 1594.08 1544.8 1608.28 1554.13 1616.8 1563.46 1626.74 1559.46 1636.68 1566.13 1645.2 1574.12 1653.72 1578.12 1655.14 1583.45 1660.82 1588.78 1667.91 1600.78 1680.69 1596.78 1690.63 1592.78 1700.57 1603.44 1724.71 1596.78 1727.55Z" fill="#F3B2BC" fill-rule="evenodd"/><path d="M1032.16 1215.5C1032.16 1215.5 1032.16 1215.5 1032.16 1215.5 1032.16 1215.5 1032.16 1216.92 1032.16 1216.92 1029.5 1273.83 1072.13 1403.31 1121.42 1436.03 1164.05 1464.49 1168.04 1468.76 1188.03 1510.02 1212 1559.82 1325.24 1714.9 1519.73 1766.12 1703.57 1814.5 1744.86 1760.43 1779.5 1741.94" stroke="#EC728C" stroke-width="2.86476" stroke-miterlimit="8" fill="none" fill-rule="evenodd"/><path d="M1486.5 1126.73C1475.83 1109.61 1454.48 1102.48 1430.46 1096.78 1406.44 1092.5 1381.09 1096.78 1363.74 1108.19 1362.41 1108.19 1361.08 1109.61 1361.08 1111.04 1355.74 1119.6 1359.74 1139.57 1355.74 1172.37 1353.07 1200.89 1358.41 1242.25 1333.06 1257.94 1314.38 1266.5 1259.67 1222.29 1232.98 1179.5 1232.98 1179.5 1232.98 1179.5 1231.65 1178.07 1199.62 1143.84 1147.59 1142.42 1108.89 1152.4 1066.19 1165.24 1034.17 1192.34 1027.5 1222.29" stroke="#EC728C" stroke-width="2.86476" stroke-miterlimit="8" fill="none" fill-rule="evenodd"/><path d="M1487.3 1287.21C1489.96 1292.88 1492.62 1299.97 1493.95 1308.47 1496.61 1322.65 1500.6 1328.32 1503.25 1332.58 1505.91 1335.41 1508.57 1338.25 1508.57 1346.75 1509.9 1358.1 1517.88 1373.69 1527.18 1387.87 1532.5 1397.79 1539.14 1409.14 1540.47 1416.23 1543.13 1428.99 1543.13 1428.99 1543.13 1428.99 1543.13 1434.66 1544.46 1440.33 1552.43 1455.92 1561.74 1474.36 1564.4 1481.45 1567.06 1492.79 1568.39 1497.04 1568.39 1497.04 1568.39 1497.04 1569.71 1504.13 1569.71 1504.13 1569.71 1504.13 1572.37 1512.64 1573.7 1515.47 1583.01 1528.23 1590.98 1539.58 1594.97 1555.17 1598.96 1569.35 1602.94 1580.69 1602.94 1580.69 1602.94 1580.69 1605.6 1590.62 1608.26 1593.45 1612.25 1597.71 1614.91 1600.54 1617.57 1603.38 1622.88 1611.88 1628.2 1621.81 1632.19 1624.64 1633.52 1626.06 1634.84 1627.48 1636.17 1628.9 1637.5 1633.15 1642.82 1648.75 1680.04 1653 1692 1651.58 1692 1651.58 1692 1651.58 1692 1651.58 1677.38 1653 1646.81 1640.24 1644.15 1630.32 1641.49 1624.64 1640.16 1623.23 1637.5 1620.39 1636.17 1618.97 1633.52 1617.55 1628.2 1607.63 1622.88 1599.12 1620.22 1596.29 1617.57 1593.45 1613.58 1589.2 1612.25 1587.78 1609.59 1579.27 1605.6 1567.93 1605.6 1567.93 1605.6 1567.93 1601.61 1552.34 1597.63 1536.74 1588.32 1523.98 1579.02 1512.64 1579.02 1509.8 1576.36 1502.71 1575.03 1495.62 1575.03 1495.62 1575.03 1495.62 1573.7 1489.95 1573.7 1489.95 1573.7 1489.95 1569.71 1480.03 1568.39 1471.52 1557.75 1451.67 1551.11 1437.49 1549.78 1433.24 1549.78 1427.57 1547.12 1414.81 1547.12 1414.81 1547.12 1414.81 1545.79 1406.3 1539.14 1394.96 1532.5 1383.62 1524.52 1369.44 1516.55 1356.68 1515.22 1346.75 1515.22 1335.41 1512.56 1332.58 1508.57 1328.32 1505.91 1324.07 1503.25 1319.81 1500.6 1307.05 1497.94 1298.55 1496.61 1291.46 1493.95 1284.37 1488.63 1271.61 1478 1258.85 1480.66 1239 1480.66 1239 1480.66 1239 1480.66 1239 1478 1260.27 1483.32 1273.03 1487.3 1287.21Z" fill="#FFFFFF" fill-rule="evenodd"/><path d="M1491.29 1279.45C1495.28 1286.55 1499.27 1295.07 1501.93 1305.02 1504.58 1319.22 1508.57 1323.48 1511.23 1327.74 1515.22 1332 1516.55 1334.84 1516.55 1343.37 1517.88 1354.73 1525.85 1368.93 1535.16 1383.14 1540.47 1394.5 1547.12 1404.44 1548.45 1411.54 1551.11 1424.33 1551.11 1424.33 1551.11 1424.33 1552.43 1431.43 1552.43 1435.69 1560.41 1451.31 1569.71 1469.78 1572.37 1478.3 1575.03 1488.24 1576.36 1493.92 1576.36 1493.92 1576.36 1493.92 1579.02 1501.02 1579.02 1501.02 1579.02 1501.02 1580.35 1508.13 1581.68 1512.39 1590.98 1525.17 1598.96 1536.53 1602.94 1552.16 1608.26 1566.36 1610.92 1577.72 1610.92 1577.72 1610.92 1577.72 1613.58 1587.66 1616.24 1590.51 1620.22 1594.77 1622.88 1597.61 1625.54 1600.45 1630.86 1608.97 1636.17 1618.91 1640.16 1621.75 1641.49 1623.17 1642.82 1624.59 1644.15 1624.59 1645.48 1630.27 1650.8 1644.48 1677.38 1653 1692 1651.58 1692 1651.58 1692 1651.58 1692 1651.58 1678.71 1653 1654.78 1637.38 1652.12 1627.43 1649.47 1621.75 1648.14 1618.91 1645.48 1617.49 1644.15 1616.07 1641.49 1614.65 1636.17 1604.71 1630.86 1596.19 1628.2 1591.93 1625.54 1589.08 1621.55 1586.24 1620.22 1584.82 1617.57 1574.88 1613.58 1563.52 1613.58 1563.52 1613.58 1563.52 1609.59 1549.32 1605.6 1533.69 1596.3 1520.91 1586.99 1509.55 1586.99 1506.71 1584.34 1498.18 1583.01 1491.08 1583.01 1491.08 1583.01 1491.08 1581.68 1486.82 1581.68 1486.82 1581.68 1486.82 1577.69 1475.46 1576.36 1468.36 1565.73 1448.47 1559.08 1434.27 1557.75 1430.01 1557.75 1422.91 1555.09 1410.12 1555.09 1410.12 1555.09 1410.12 1553.76 1401.6 1547.12 1391.66 1540.47 1380.3 1532.5 1366.09 1524.52 1351.89 1523.19 1341.95 1523.19 1332 1520.53 1327.74 1516.55 1323.48 1513.89 1320.64 1511.23 1316.38 1508.57 1303.6 1505.91 1292.23 1501.93 1283.71 1497.94 1276.61 1491.29 1263.83 1479.33 1252.46 1480.66 1234 1480.66 1234 1480.66 1234 1480.66 1234 1478 1253.88 1484.65 1266.67 1491.29 1279.45Z" fill="#EC728C" fill-rule="evenodd"/><path d="M1586 1010.11C1612.64 1012.95 1637.94 1024.33 1663.24 1035.7 1736.49 1069.82 1765.79 1130.96 1748.48 1213.42 1748.48 1216.27 1748.48 1216.27 1748.48 1216.27 1747.15 1224.8 1757.8 1248.97 1776.45 1288.78 1791.1 1324.32 1805.75 1366.98 1823.06 1419.58 1832.38 1449.44 1832.38 1449.44 1832.38 1449.44 1867.01 1553.23 1855.02 1642.8 1795.09 1716.73 1800.42 1721 1800.42 1721 1800.42 1721 1861.68 1645.65 1875 1554.65 1839.04 1448.02 1829.72 1418.16 1829.72 1418.16 1829.72 1418.16 1811.07 1364.13 1797.76 1321.48 1781.77 1285.93 1769.79 1260.34 1753.81 1224.8 1755.14 1217.69 1755.14 1214.85 1755.14 1214.85 1755.14 1214.85 1772.45 1128.12 1743.15 1065.56 1665.91 1028.59 1640.6 1017.22 1615.3 1005.84 1587.33 1003L1586 1010.11Z" fill="#FFFFFF" fill-rule="evenodd"/><path d="M1530 1002.27C1530 1009.38 1530 1009.38 1530 1009.38 1579.43 1005.11 1627.52 1013.65 1670.26 1033.57 1743.74 1067.71 1773.12 1127.47 1757.09 1211.41 1755.76 1214.25 1755.76 1214.25 1755.76 1214.25 1754.42 1222.79 1765.11 1246.97 1783.81 1286.81 1799.84 1322.38 1813.2 1363.63 1830.57 1417.7 1841.25 1447.57 1841.25 1447.57 1841.25 1447.57 1875.98 1554.28 1859.95 1646.75 1793.16 1720.73 1797.17 1725 1797.17 1725 1797.17 1725 1866.63 1649.6 1884 1555.7 1846.6 1444.73 1837.25 1414.85 1837.25 1414.85 1837.25 1414.85 1819.88 1362.21 1805.18 1319.53 1789.15 1283.96 1777.13 1258.35 1761.1 1221.36 1762.44 1215.67 1763.77 1212.83 1763.77 1212.83 1763.77 1212.83 1779.8 1126.04 1750.42 1063.44 1672.94 1026.45 1628.85 1006.54 1580.76 998 1530 1002.27Z" fill="#EC728C" fill-rule="evenodd"/><path d="M1769.5 1745.5C1770.85 1744.06 1773.55 1742.62 1774.9 1742.62 1776.25 1741.19 1776.25 1741.19 1776.25 1741.19 1776.25 1741.19 1777.6 1741.19 1777.6 1741.19 1784.35 1735.44 1789.75 1729.69 1796.5 1722.5" stroke="#EC728C" stroke-width="2.86476" stroke-miterlimit="8" fill="none" fill-rule="evenodd"/><path d="M1331.87 1246.5C1326.5 1169.56 1326.5 1169.56 1326.5 1169.56 1329.18 1111.15 1338.57 1076.96 1360.04 1025.67 1369.43 1001.45 1378.82 994.322 1381.5 981.5" stroke="#FFFFFF" stroke-width="2.86476" stroke-linecap="round" stroke-linejoin="round" stroke-miterlimit="10" fill="none" fill-rule="evenodd"/><path d="M1371.17 939.5C1348.5 849.793 1373.83 821.315 1400.5 808.5" stroke="#FFFFFF" stroke-width="2.86476" stroke-linecap="round" stroke-linejoin="round" stroke-miterlimit="10" fill="none" fill-rule="evenodd"/><path d="M1374.69 943.5C1372.04 943.5 1372.04 943.5 1372.04 943.5 1353.5 855.395 1374.69 821.289 1402.5 808.5" stroke="#F4130A" stroke-width="2.86476" stroke-miterlimit="8" fill="none" fill-rule="evenodd"/><path d="M1327.5 1252.5C1328.83 1252.5 1328.83 1251.08 1330.17 1251.08 1330.17 1187.29 1330.17 1187.29 1330.17 1187.29 1330.17 1137.68 1340.83 1082.4 1360.83 1031.37 1371.5 1007.27 1376.83 990.258 1379.5 977.5 1379.5 977.5 1379.5 977.5 1379.5 977.5 1379.5 977.5 1379.5 977.5 1379.5 977.5" stroke="#F4130A" stroke-width="2.86476" stroke-miterlimit="8" fill="none" fill-rule="evenodd"/><path d="M1412.5 803.5C1385.28 816.294 1363.5 861.784 1382.56 948.5" stroke="#4793C3" stroke-width="2.86476" stroke-miterlimit="8" fill="none" fill-rule="evenodd"/><path d="M1137.28 1574.5C1146.74 1583.13 1153.5 1611.9 1145.39 1632.03 1135.93 1652.17 1129.18 1672.31 1103.5 1679.5" stroke="#FFFFFF" stroke-width="2.86476" stroke-linecap="round" stroke-linejoin="round" stroke-miterlimit="10" fill="none" fill-rule="evenodd"/><path d="M1142 1579.5C1150.25 1588.07 1158.5 1609.5 1150.25 1629.5 1140.62 1649.5 1129.62 1672.36 1103.5 1679.5" stroke="#F6A68C" stroke-width="2.86476" stroke-linecap="round" stroke-linejoin="round" stroke-miterlimit="10" fill="none" fill-rule="evenodd"/><path d="M1202.5 1756.5C1197.18 1753.67 1187.86 1753.67 1182.54 1750.84 1126.64 1723.93 1064.09 1651.71 1021.5 1545.5" stroke="#4793C3" stroke-width="2.86476" stroke-miterlimit="8" fill="none" fill-rule="evenodd"/><path d="M1385.5 978.5C1333.5 804.85 1433.5 783.5 1452.17 806.274 1457.5 810.544 1457.5 811.967 1457.5 811.967" stroke="#333333" stroke-width="1.14583" stroke-linecap="round" stroke-linejoin="round" stroke-miterlimit="10" fill="none" fill-rule="evenodd"/><path d="M1038 732C1038 721.507 1072.25 713 1114.5 713 1156.75 713 1191 721.507 1191 732 1191 742.493 1156.75 751 1114.5 751 1072.25 751 1038 742.493 1038 732Z" fill="#D6E5F0" fill-rule="evenodd"/><path d="M1065 733C1065 728.029 1087.39 724 1115 724 1142.61 724 1165 728.029 1165 733 1165 737.971 1142.61 742 1115 742 1087.39 742 1065 737.971 1065 733Z" fill="#4783AA" fill-rule="evenodd"/><path d="M1073 737C1081 734.4 1097 733.1 1114.33 733.1 1133 733.1 1147.67 734.4 1157 737 1162.33 735.7 1165 733.1 1165 731.8 1165 727.9 1142.33 724 1114.33 724 1087.67 724 1065 727.9 1065 731.8 1065 733.1 1067.67 735.7 1073 737Z" fill="#6FA9CF" fill-rule="evenodd"/><path d="M1885.67 1419.64C1844.33 1286.14 1796.33 1190.98 1796.33 1190.98 1795 1188.14 1795 1183.88 1793.67 1179.62 1793.67 1179.62 1793.67 1179.62 1793.67 1179.62 1784.33 1152.63 1787 1144.11 1777.67 1110.02 1775 1095.82 1769.67 1083.04 1763 1071.68 1760.33 1067.42 1759 1064.58 1757.67 1063.16 1743 1039.01 1724.33 1021.97 1711 1012.03 1668.33 977.942 1611 970.841 1567 968 1559 969.42 1559 969.42 1559 969.42 1549.67 979.362 1540.33 990.724 1532.33 1006.35 1535 1006.35 1535 1006.35 1535 1006.35 1576.33 1002.09 1627 1004.93 1679 1029.07 1753.67 1064.58 1783 1125.65 1767 1210.86 1765.67 1213.7 1765.67 1213.7 1765.67 1213.7 1764.33 1220.8 1779 1253.47 1793.67 1284.71 1812.33 1325.9 1828.33 1378.45 1851 1445.2 1893.67 1574.44 1861.67 1673.86 1783 1737.77 1783 1739.19 1783 1739.19 1783 1739.19 1781.67 1739.19 1781.67 1739.19 1781.67 1739.19 1748.33 1757.66 1711 1817.31 1515 1766.18 1320.33 1715.05 1207 1561.66 1183 1510.53 1180.33 1506.27 1179 1502.01 1177.67 1499.17 1177.67 1499.17 1177.67 1499.17 1177.67 1499.17 1179 1507.69 1180.33 1519.06 1180.33 1531.84 1180.33 1536.1 1180.33 1536.1 1180.33 1536.1 1177.67 1568.76 1160.33 1591.49 1152.33 1592.91 1151 1592.91 1151 1592.91 1151 1592.91 1159 1604.27 1163 1619.89 1153.67 1635.52 1149.67 1642.62 1149.67 1642.62 1149.67 1642.62 1137.67 1661.08 1123 1676.7 1103 1680.96 1131 1712.21 1160.33 1733.51 1187 1746.29 1276.33 1790.32 1399 1824.41 1540.33 1858.49 1681.67 1894 1756.33 1868.44 1820.33 1837.19 1917.67 1790.32 1959 1639.78 1885.67 1419.64Z" fill="#FBE1E5" fill-rule="evenodd"/><path d="M1794.33 1179.08C1794.33 1179.08 1794.33 1179.08 1794.33 1179.08 1785 1152.17 1787.67 1143.67 1778.33 1109.67 1775.67 1095.5 1770.33 1082.75 1763.67 1071.42 1761 1067.17 1759.67 1064.33 1758.33 1062.92 1743.67 1038.83 1725 1021.83 1711.67 1011.92 1669 977.917 1611.67 970.833 1567.67 968 1559.67 969.417 1559.67 969.417 1559.67 969.417 1550.33 979.333 1541 990.667 1533 1006.25 1535.67 1006.25 1535.67 1006.25 1535.67 1006.25 1577 1002 1627.67 1004.83 1679.67 1028.92 1754.33 1064.33 1783.67 1125.25 1767.67 1210.25 1766.33 1213.08 1766.33 1213.08 1766.33 1213.08 1766.33 1214.5 1766.33 1218.75 1767.67 1223 1783.67 1217.33 1797 1194.67 1794.33 1179.08Z" fill="#C39AB2" fill-rule="evenodd"/><path d="M1794.33 1179.08C1794.33 1179.08 1794.33 1179.08 1794.33 1179.08 1785 1152.17 1787.67 1143.67 1778.33 1109.67 1775.67 1095.5 1770.33 1082.75 1763.67 1071.42 1761 1067.17 1759.67 1064.33 1758.33 1062.92 1743.67 1038.83 1725 1021.83 1711.67 1011.92 1669 977.917 1611.67 970.833 1567.67 968 1559.67 969.417 1559.67 969.417 1559.67 969.417 1550.33 979.333 1541 990.667 1533 1006.25 1535.67 1006.25 1535.67 1006.25 1535.67 1006.25 1577 1002 1627.67 1004.83 1679.67 1028.92 1754.33 1064.33 1783.67 1125.25 1767.67 1210.25 1766.33 1213.08 1766.33 1213.08 1766.33 1213.08 1766.33 1214.5 1766.33 1218.75 1767.67 1223 1783.67 1217.33 1797 1194.67 1794.33 1179.08Z" fill="#C39AB2" fill-rule="evenodd"/><path d="M1152.9 1593.27C1160.88 1591.85 1178.17 1569.09 1180.83 1536.37 1180.83 1532.1 1180.83 1532.1 1180.83 1532.1 1180.83 1519.3 1179.5 1507.92 1178.17 1499.38 1178.17 1499.38 1178.17 1499.38 1178.17 1499.38 1162.21 1469.51 1155.56 1462.4 1116.98 1436.79 1067.76 1404.08 1025.19 1274.63 1027.85 1217.73 1027.85 1217.73 1027.85 1217.73 1027.85 1216.31 1034.5 1186.43 1066.43 1159.41 1109 1148.03 1147.58 1136.65 1199.46 1138.07 1232.72 1173.63 1232.72 1173.63 1232.72 1173.63 1234.05 1175.05 1238.04 1182.17 1243.36 1189.28 1248.68 1196.39 1254 1166.52 1254 1140.91 1243.36 1128.11 1216.75 1092.55 1208.77 1056.98 1178.17 1034.22 1167.53 1027.11 1150.24 1025.69 1139.6 1022.84 1127.62 1020 1103.68 1024.27 1087.72 1025.69 1070.42 1025.69 1051.8 1037.07 1039.83 1051.3 1022.53 1072.63 993.266 1089.7 982.624 1190.7 978.633 1224.84 964 1276.05 964 1335.8 964 1502.23 998.587 1534.95 1027.85 1607.49 1047.81 1658.7 1074.41 1690 1103.68 1681.46 1123.63 1677.2 1138.27 1661.55 1150.24 1643.06 1154.23 1635.94 1154.23 1635.94 1154.23 1635.94 1170.19 1608.92 1147.58 1584.73 1135.61 1574.78" fill="#C39AB2" fill-rule="evenodd"/><path d="M1167.64 1184.61C1171.65 1178.96 1177 1173.3 1177 1167.65 1175.66 1167.65 1174.32 1167.65 1172.99 1167.65 1163.62 1166.24 1158.27 1162 1151.58 1162 1138.21 1162 1130.18 1167.65 1118.14 1170.48 1107.44 1171.89 1086.04 1177.54 1076.68 1181.78 1076.68 1183.2 1075.34 1183.2 1075.34 1183.2 1074 1188.85 1074 1188.85 1074 1188.85 1091.39 1227 1147.57 1211.46 1167.64 1184.61Z" fill="#8F002B" fill-rule="evenodd"/><path d="M1463.37 1135.5C1464.68 1135.5 1464.68 1135.5 1466 1134.08 1458.1 1124.17 1443.6 1115.67 1427.79 1112.83 1410.67 1110 1394.86 1111.42 1383 1117.08 1385.63 1127 1413.3 1135.5 1421.21 1138.33 1434.38 1142.58 1451.51 1144 1463.37 1135.5Z" fill="#8F002B" fill-rule="evenodd"/><path d="M1655.67 1074.33C1644 1066 1647.89 1082.67 1650.48 1089.61 1653.07 1096.56 1660.85 1114.61 1668.63 1114.61 1679 1116 1677.7 1103.5 1675.11 1096.56 1672.52 1086.83 1666.04 1078.5 1655.67 1075.72" fill="#8F002B" fill-rule="evenodd"/><path d="M1692.84 1131.71C1670 1123 1687.47 1162.19 1700.91 1165.1 1710.31 1168 1713 1159.29 1711.66 1150.58 1708.97 1140.42 1702.25 1134.61 1694.19 1128.81" fill="#8F002B" fill-rule="evenodd"/><path d="M1516.67 1116.77C1520.67 1077 1551.33 1084.1 1579.33 1081.26 1594 1079.84 1603.33 1077 1618 1085.52 1635.33 1095.46 1654 1115.35 1662 1135.23 1672.67 1170.74 1667.33 1210.51 1667.33 1246.02 1667.33 1275.85 1678 1297.15 1686 1324.14 1688.67 1317.04 1687.33 1304.25 1692.67 1299.99 1695.33 1298.57 1702 1297.15 1704.67 1299.99 1708.67 1302.83 1706 1304.25 1706 1309.93 1708.67 1321.3 1714 1329.82 1716.67 1341.18 1719.33 1353.96 1719.33 1366.75 1723.33 1378.11 1726 1390.89 1734 1407.94 1726 1419.3 1719.33 1430.66 1712.67 1417.88 1704.67 1426.4 1698 1433.5 1702 1444.87 1699.33 1453.39 1698 1461.91 1694 1469.01 1696.67 1477.53 1699.33 1487.48 1704.67 1487.48 1698 1498.84 1694 1505.94 1688.67 1511.62 1688.67 1521.56 1690 1530.09 1692.67 1538.61 1694 1547.13 1694 1555.65 1691.33 1565.59 1688.67 1574.12 1687.33 1581.22 1678 1594 1668.67 1592.58 1660.67 1591.16 1655.33 1558.49 1651.33 1549.97 1639.33 1527.24 1623.33 1508.78 1614 1484.63 1607.33 1469.01 1610 1453.39 1607.33 1437.76 1603.33 1420.72 1592.67 1406.52 1586 1390.89 1576.67 1371.01 1574 1349.7 1563.33 1331.24 1556.67 1321.3 1548.67 1314.2 1544.67 1302.83 1542 1295.73 1540.67 1287.21 1538 1280.11 1531.33 1265.9 1519.33 1254.54 1511.33 1241.76 1498 1224.71 1503.33 1219.03 1510 1201.99 1512.67 1197.73 1511.33 1187.79 1518 1186.37 1524.67 1184.95 1528.67 1194.89 1534 1199.15 1539.33 1201.99 1550 1203.41 1554 1196.31 1558 1189.21 1551.33 1177.84 1547.33 1173.58 1538 1160.8 1519.33 1153.7 1515.33 1138.07 1512.67 1130.97 1515.33 1119.61 1516.67 1112.51" fill="#B91645" fill-rule="evenodd"/><path d="M1604.36 1263.09C1600.37 1220.45 1559.15 1167.86 1543.19 1156.48 1527.23 1146.53 1512.61 1135.16 1492.66 1111 1491.33 1115.26 1490 1120.95 1490 1126.64 1505.96 1146.53 1556.49 1173.54 1549.84 1184.91 1541.86 1199.13 1525.9 1193.44 1520.59 1184.91 1531.22 1203.39 1533.88 1204.81 1556.49 1209.08 1579.1 1213.34 1595.05 1247.45 1600.37 1270.19 1605.69 1288.67 1612.34 1327.05 1612.34 1327.05 1612.34 1327.05 1615 1337 1613.67 1322.79 1611.01 1305.73 1607.02 1287.25 1604.36 1263.09Z" fill="#F3B2BC" fill-rule="evenodd"/><path d="M1395.79 921C1405.29 943.646 1395.79 971.954 1380.86 1011.58 1367.29 1045.55 1352.36 1088.02 1351 1105 1364.57 1055.46 1390.36 1015.83 1397.14 988.938 1403.93 960.631 1408 937.984 1395.79 921Z" fill="#FFFFFF" fill-rule="evenodd"/><path d="M1373.5 940.5 1379.5 979.5" stroke="#F4130A" stroke-width="2.86476" stroke-miterlimit="8" fill="none" fill-rule="evenodd"/><path d="M1412 803.143C1428 797.714 1444 795 1456 809.929 1442.67 814 1426.67 807.214 1413.33 803.143" fill="#FFFFFF" fill-rule="evenodd"/><path d="M1378 946.421C1379.33 947.842 1379.33 952.105 1379.33 954.947 1380.67 956.368 1380.67 959.211 1382 960.632 1382 964.895 1382 969.158 1384.67 972 1386 970.579 1386 966.316 1386 964.895 1386 962.053 1386 959.211 1386 956.368 1384.67 950.684 1382 947.842 1378 945" fill="#FFFFFF" fill-rule="evenodd"/><path d="M1466.96 1326.95C1472.27 1341.18 1474.93 1351.15 1476.26 1361.11 1478.91 1378.18 1478.91 1378.18 1478.91 1378.18 1481.57 1385.3 1481.57 1396.68 1481.57 1409.49 1481.57 1427.98 1482.89 1449.33 1488.2 1462.14 1496.17 1484.9 1496.17 1484.9 1496.17 1484.9 1504.13 1504.82 1504.13 1504.82 1504.13 1504.82 1510.77 1523.32 1510.77 1523.32 1510.77 1523.32 1517.41 1541.82 1525.37 1564.59 1534.66 1577.4 1541.3 1585.93 1545.28 1594.47 1547.94 1601.59 1550.59 1608.7 1553.25 1614.39 1558.56 1618.66 1563.87 1624.35 1563.87 1628.62 1565.19 1632.89 1566.52 1637.16 1567.85 1642.85 1570.5 1647.12 1587.76 1662.77 1587.76 1662.77 1587.76 1662.77 1590.42 1665.62 1590.42 1665.62 1590.42 1665.62 1595.73 1672.73 1603.69 1682.69 1601.04 1689.81 1598.38 1694.08 1601.04 1705.46 1602.36 1714 1602.36 1714 1602.36 1714 1602.36 1714 1601.04 1706.89 1603.69 1695.5 1605.02 1691.23 1609 1681.27 1599.71 1669.89 1593.07 1662.77 1591.74 1659.93 1591.74 1659.93 1591.74 1659.93 1583.78 1651.39 1583.78 1651.39 1583.78 1651.39 1574.49 1642.85 1574.49 1642.85 1574.49 1642.85 1571.83 1640.01 1571.83 1635.74 1570.5 1632.89 1569.18 1627.2 1567.85 1621.51 1562.54 1615.82 1557.23 1611.55 1555.9 1605.85 1553.25 1598.74 1549.27 1591.63 1546.61 1583.09 1538.65 1574.55 1529.35 1561.74 1521.39 1538.98 1516.08 1521.9 1509.44 1503.4 1509.44 1503.4 1509.44 1503.4 1500.15 1482.06 1500.15 1482.06 1500.15 1482.06 1492.19 1460.71 1492.19 1460.71 1492.19 1460.71 1488.2 1449.33 1486.88 1427.98 1486.88 1409.49 1486.88 1395.26 1485.55 1383.87 1484.22 1376.76 1481.57 1361.11 1481.57 1361.11 1481.57 1361.11 1478.91 1349.72 1477.58 1339.76 1472.27 1325.53 1464.31 1305.61 1464.31 1257.23 1465.64 1243 1465.64 1243 1465.64 1243 1465.64 1243 1464.31 1261.5 1459 1308.46 1466.96 1326.95Z" fill="#FFFFFF" fill-rule="evenodd"/><path d="M1429.67 820C1415 816 1492.33 820 1552.33 816 1611 812 1660.33 820 1703 820 1672.33 824 1579 822.667 1541.67 825.333 1503 828 1439 822.667 1429.67 820Z" fill="#FFFFFF" fill-rule="evenodd"/><path d="M1321.31 675.233C1324 661 1322.66 663.847 1318.62 676.656 1315.93 683.773 1311.9 690.889 1305.18 696.582 1289.04 715.085 1203 757.783 1208.38 930 1208.38 910.074 1209.72 885.878 1213.76 867.376 1221.82 817.561 1239.3 777.709 1259.47 753.513 1286.36 720.778 1303.83 709.392 1311.9 695.159 1314.59 690.889 1319.97 682.349 1321.31 675.233Z" fill="#FFFFFF" fill-rule="evenodd"/><path d="M1049.69 787C1049.69 819.761 1048.31 896.68 1051.08 940.837 1052.46 983.57 1046.92 1014.91 1040 1032 1049.69 1010.63 1058 973.599 1058 935.139 1058 898.104 1049.69 787 1049.69 787Z" fill="#FFFFFF" fill-rule="evenodd"/><path d="M1754.67 1006.33C1766.67 1003.67 1777.33 1002.33 1780 1001 1773.33 1001 1737.33 1006.33 1728 1013 1733.33 1011.67 1745.33 1009 1754.67 1006.33Z" fill="#FFFFFF" fill-rule="evenodd"/><path d="M1776 1074C1782.67 1069.71 1804 1064 1809.33 1066.86 1816 1069.71 1816 1074 1816 1074 1812 1069.71 1806.67 1068.29 1800 1069.71 1792 1069.71 1776 1074 1776 1074Z" fill="#FFFFFF" fill-rule="evenodd"/><path d="M942.698 1065.5C948.057 1061 997.623 1059.5 1007 1058 1007 1058 957.434 1058 946.717 1058 937.34 1058 937.34 1070 936 1079 937.34 1074.5 941.359 1067 942.698 1065.5Z" fill="#FFFFFF" fill-rule="evenodd"/><path d="M973.406 792.769C978.781 788.385 997.594 794.231 1007 795.692 1007 795.692 989.531 788.385 978.781 786.923 968.031 784 966.687 794.231 964 803 965.344 798.615 970.719 792.769 973.406 792.769Z" fill="#FFFFFF" fill-rule="evenodd"/><path d="M958.75 855.143C964.15 850.857 996.55 850.857 1006 849.429 1006 849.429 973.6 848 962.8 849.429 952 849.429 952 859.429 952 868 953.35 863.714 957.4 856.571 958.75 855.143Z" fill="#FFFFFF" fill-rule="evenodd"/><path d="M926.889 1133.79C930.833 1129.71 979.481 1128.36 990 1127 990 1127 941.352 1127 930.833 1127 920.315 1128.36 920.315 1137.86 919 1146 920.315 1141.93 924.259 1135.14 926.889 1133.79Z" fill="#FFFFFF" fill-rule="evenodd"/><path d="M1077 1043C1069.06 1044.42 1054.5 1060.07 1047.88 1067.18 1039.94 1072.87 1033.32 1081.41 1028.03 1087.1 1021.41 1092.79 1013.47 1107.01 1012.15 1114.13 1010.82 1122.66 1005.53 1134.04 1002.88 1148.27 1000.24 1163.92 996.265 1183.83 994.941 1198.06 993.618 1212.28 992.294 1226.51 987 1245 996.265 1222.24 1000.24 1196.63 1002.88 1182.41 1004.21 1166.76 1009.5 1153.96 1012.15 1136.89 1014.79 1119.82 1024.06 1102.75 1030.68 1094.21 1035.97 1085.68 1039.94 1078.56 1050.53 1070.03 1061.12 1062.92 1069.06 1045.84 1077 1043Z" fill="#FFFFFF" fill-rule="evenodd"/><path d="M1150 1444C1171.55 1459.58 1178.29 1465.25 1193.1 1497.83 1206.57 1529 1251.02 1588.5 1282 1614 1265.84 1598.42 1207.92 1524.75 1199.84 1497.83 1189.06 1465.25 1163.47 1448.25 1150 1444Z" fill="#FFFFFF" fill-rule="evenodd"/><path d="M1051.68 1036.76C1051.68 1036.76 1053.03 1035.35 1053.03 1035.35 1053.03 1035.35 1053.03 1035.35 1053.03 1035.35L1051.68 1036.76ZM1050.34 1041.01C1051.68 1036.76 1051.68 1036.76 1051.68 1036.76 1050.34 1038.18 1049 1041.01 1049 1042.43 1049 1041.01 1049 1041.01 1050.34 1041.01ZM1193.92 865.439C1193.92 864.023 1193.92 864.023 1193.92 862.607 1188.56 842.785 1185.87 824.378 1184.53 804.556 1183.19 788.981 1181.85 769.159 1177.82 755 1172.45 763.495 1173.79 779.07 1173.79 787.565 1173.79 804.556 1173.79 820.131 1173.79 835.706 1173.79 875.35 1168.43 912.164 1153.67 948.977 1146.96 964.551 1140.25 980.126 1126.83 990.037 1117.44 995.701 1106.7 998.533 1097.31 1004.2 1083.89 1011.28 1065.1 1021.19 1053.03 1035.35 1057.05 1032.51 1062.42 1031.1 1066.44 1029.68 1073.15 1026.85 1079.86 1025.43 1087.91 1025.43 1104.02 1024.02 1128.17 1019.77 1140.25 1022.6 1150.98 1025.43 1168.43 1026.85 1179.16 1033.93 1180.5 1035.35 1183.19 1036.76 1184.53 1039.59 1185.87 1039.59 1185.87 1039.59 1187.21 1041.01 1188.56 1042.43 1189.9 1042.43 1191.24 1043.84 1191.24 1045.26 1192.58 1045.26 1192.58 1046.67 1193.92 1048.09 1195.26 1049.5 1196.61 1050.92 1196.61 1050.92 1197.95 1050.92 1197.95 1052.34 1199.29 1053.75 1200.63 1056.58 1203.32 1058 1206 1052.34 1206 1052.34 1206 1052.34 1200.63 1035.35 1196.61 948.977 1193.92 865.439Z" fill="#82B3D5" fill-rule="evenodd"/><path d="M1018.49 795C1023.78 813.296 1019.81 842.852 1010.56 859.741 999.983 879.444 974.865 883.667 959 893.518 973.542 897.741 1029.07 909 1034.36 892.111 1037 880.852 1034.36 847.074 1033.03 834.407 1033.03 825.963 1034.36 804.852 1029.07 799.222" fill="#82B3D5" fill-rule="evenodd"/><path d="M1199.74 1150.88C1205.07 1153.72 1217.05 1157.98 1219.72 1162.24 1223.71 1166.49 1230.37 1167.91 1234.36 1172.17 1238.35 1177.85 1242.35 1183.52 1246.34 1189.2 1251.67 1186.36 1250.34 1173.59 1251.67 1169.33 1251.67 1160.82 1253 1152.3 1250.34 1143.79 1247.67 1131.01 1237.02 1122.5 1231.7 1111.15 1226.37 1102.63 1221.05 1094.12 1217.05 1085.6 1211.73 1077.09 1209.06 1067.15 1202.41 1058.64 1197.08 1052.96 1190.42 1045.87 1185.1 1040.19 1179.77 1034.51 1170.45 1026 1162.47 1028.84 1170.45 1033.1 1177.11 1044.45 1183.77 1052.96 1190.42 1061.48 1194.42 1078.51 1189.09 1089.86 1185.1 1101.21 1169.12 1105.47 1159.8 1108.31 1146.49 1113.99 1133.17 1115.4 1119.86 1119.66 1093.23 1128.18 1062.61 1139.53 1043.97 1162.24 1031.99 1177.85 1024 1199.13 1025.33 1219 1025.33 1211.9 1029.33 1207.65 1031.99 1203.39 1037.31 1194.88 1042.64 1186.36 1049.3 1179.26 1061.28 1169.33 1075.92 1162.24 1089.24 1155.14 1103.88 1146.62 1123.85 1143.79 1139.83 1140.95 1146.49 1140.95 1151.81 1140.95 1159.8 1140.95 1163.8 1140.95 1167.79 1142.37 1171.78 1142.37 1177.11 1142.37 1182.44 1145.21 1186.43 1145.21" fill="#AD7698" fill-rule="evenodd"/><path d="M1182 1536.42C1182 1532.15 1182 1532.15 1182 1532.15 1182 1526.47 1182 1522.21 1182 1517.95 1180.65 1510.85 1180.65 1505.16 1177.96 1498.06 1168.53 1478.17 1161.8 1468.23 1145.63 1456.86 1140.24 1452.6 1133.51 1449.76 1128.12 1446.92 1120.04 1441.24 1106.57 1436.97 1101.18 1428.45 1102.53 1425.61 1102.53 1425.61 1102.53 1425.61 1087.71 1408.56 1072.9 1384.41 1060.78 1356 1064.82 1373.05 1070.2 1387.25 1078.29 1401.46 1089.06 1424.19 1102.53 1446.92 1117.35 1465.39 1136.2 1488.12 1142.94 1526.47 1128.12 1553.46 1122.73 1563.41 1109.27 1570.51 1110.61 1583.3 1111.96 1596.08 1118.69 1608.87 1116 1624.49 1110.61 1647.22 1068.86 1664.27 1050 1650.06 1066.16 1674.21 1083.67 1687 1103.88 1681.32 1124.08 1677.06 1138.9 1661.43 1151.02 1642.96 1155.06 1635.86 1155.06 1635.86 1155.06 1635.86 1164.49 1620.23 1160.45 1604.61 1152.37 1593.24 1153.71 1593.24 1153.71 1593.24 1153.71 1593.24 1161.8 1591.82 1179.31 1569.09 1182 1536.42Z" fill="#B785A3" fill-rule="evenodd"/><path d="M1054.78 1625.66C1048.08 1615.68 1046.74 1602.84 1041.37 1590.01 1036.01 1578.61 1029.31 1570.05 1022.6 1560.07 1010.54 1542.97 998.473 1524.43 990.429 1505.9 986.407 1498.77 981.044 1488.79 977.022 1478.81 990.429 1532.99 1010.54 1562.93 1027.97 1607.12 1038.69 1631.36 1049.42 1651.32 1061.48 1665.57 1074.89 1667 1088.3 1665.57 1095 1655.59 1076.23 1652.74 1065.51 1642.76 1054.78 1625.66ZM973 1457.43C973 1456 973 1456 973 1456 973 1456 973 1456 973 1456 973 1456 973 1456 973 1457.43Z" fill="#B785A3" fill-rule="evenodd"/><path d="M1598 970.741C1587.39 969.37 1578.1 968 1567.49 968 1559.53 969.37 1559.53 969.37 1559.53 969.37 1550.24 978.963 1540.96 989.926 1533 1005 1535.65 1005 1535.65 1005 1535.65 1005 1538.31 1003.63 1540.96 1003.63 1543.61 1003.63 1546.27 999.519 1547.59 994.037 1550.24 991.296 1559.53 978.963 1574.12 973.482 1588.71 970.741 1591.37 970.741 1594.02 970.741 1598 970.741Z" fill="#AD7698" fill-rule="evenodd"/><path d="M1794.32 1179.07C1784.93 1152.14 1787.61 1143.64 1778.23 1109.63 1775.55 1095.45 1770.18 1082.7 1763.48 1071.36 1760.8 1067.11 1759.45 1064.28 1758.11 1062.86 1743.36 1038.77 1724.59 1021.76 1711.18 1011.84 1701.8 1004.75 1689.73 997.669 1679 992 1685.7 999.086 1692.41 1006.17 1699.11 1013.26 1707.16 1024.6 1715.2 1040.18 1720.57 1055.77 1764.82 1092.62 1780.91 1143.64 1767.5 1210.25 1766.16 1213.08 1766.16 1213.08 1766.16 1213.08 1766.16 1214.5 1766.16 1218.75 1767.5 1223 1783.59 1217.33 1797 1194.66 1794.32 1179.07Z" fill="#AD7698" fill-rule="evenodd"/><path d="M943.857 1105.17C953.079 1106.58 962.302 1105.17 971.524 1105.17 979.429 1105.17 988.651 1108 995.238 1105.17 1007.1 1102.33 1013.68 1068.33 1015 1057 1009.73 1058.42 1003.14 1072.58 999.19 1078.25 992.603 1089.58 987.333 1093.83 975.476 1095.25 962.302 1096.67 945.174 1103.75 932 1095.25" fill="#E82113" fill-rule="evenodd"/><path d="M919.948 1175.47C921.263 1181.16 939.684 1181.16 946.263 1182.58 954.158 1184 964.684 1184 972.579 1182.58 983.105 1179.74 981.79 1171.21 983.105 1161.26 985.737 1151.32 991 1139.95 991 1130 976.526 1139.95 979.158 1162.68 959.421 1166.95 951.526 1168.37 918.632 1175.47 916 1164.11" fill="#E82113" fill-rule="evenodd"/><path d="M1253.7 1161C1251 1182.29 1275.29 1206.42 1292.83 1213.52 1299.57 1217.77 1310.37 1223.45 1318.46 1220.61 1325.21 1219.19 1326.56 1212.1 1330.6 1206.42 1333.3 1212.1 1336 1243.32 1330.6 1247.58 1329.25 1249 1319.81 1249 1317.11 1249 1310.37 1249 1307.67 1246.16 1302.27 1243.32 1282.03 1230.55 1263.14 1214.94 1251 1195.06" fill="#E82113" fill-rule="evenodd"/><path d="M1201 998C1201 1017.94 1211.72 1035.04 1218.42 1052.13 1225.11 1066.37 1229.13 1080.62 1239.85 1092.01 1253.25 1107.68 1263.96 1124.78 1267.98 1146.14 1270.66 1158.96 1272 1186.03 1265.3 1196 1257.26 1193.15 1255.92 1191.73 1253.25 1181.76 1251.91 1171.78 1253.25 1161.81 1253.25 1151.84 1251.91 1137.6 1247.89 1130.47 1238.51 1120.5 1230.47 1109.11 1225.11 1097.71 1217.08 1084.89 1214.4 1079.19 1210.38 1073.5 1207.7 1066.37 1205.02 1053.55 1206.36 1040.73 1202.34 1027.91" fill="#E82113" fill-rule="evenodd"/><path d="M1588.52 966C1596.59 966 1612.72 954.667 1623.48 951.833 1632.9 949 1645 940.5 1628.86 934.833 1614.07 932 1575.07 947.583 1567 961.75" fill="#E82113" fill-rule="evenodd"/><path d="M1608.59 952C1603.18 960.769 1612.65 962.231 1614 968.077 1608.59 971 1597.76 965.154 1591 965.154" fill="#E82113" fill-rule="evenodd"/><path d="M1726 1026.2C1734 1024.8 1736.67 1031.8 1743.33 1033.2 1751.33 1037.4 1758 1034.6 1766 1033.2 1783.33 1027.6 1786 1024.8 1792.67 1008 1798 1034.6 1771.33 1040.2 1756.67 1057 1751.33 1051.4 1746 1041.6 1740.67 1036" fill="#E82113" fill-rule="evenodd"/><path d="M1780.86 1102.39C1782.17 1120.73 1787.4 1137.66 1787.4 1156 1791.33 1140.48 1796.57 1124.96 1807.05 1110.86 1816.21 1099.57 1828 1095.34 1818.83 1077 1822.76 1091.11 1812.29 1098.16 1800.5 1098.16 1786.1 1099.57 1786.1 1086.88 1773 1084.05" fill="#E82113" fill-rule="evenodd"/><path d="M1427.28 792.662C1441.92 792.662 1443.25 796.93 1456.57 804.042 1467.22 809.732 1480.53 806.887 1493.85 806.887 1519.15 805.465 1544.44 805.465 1569.74 805.465 1581.72 805.465 1595.04 805.465 1607.02 805.465 1623 804.042 1620.34 795.507 1615.01 781.282 1607.02 759.944 1592.38 727.225 1575.07 713 1576.4 735.76 1607.02 759.944 1577.73 778.437 1556.43 791.239 1528.47 782.704 1505.83 777.014 1481.87 771.324 1455.24 764.211 1431.27 772.746 1415.29 779.859 1387.33 794.084 1386 814" fill="#E82113" fill-rule="evenodd"/><path d="M1495.82 596.445C1508 605.111 1505.29 623.889 1501.24 636.889 1495.82 647 1497.18 644.111 1486.35 641.222 1478.24 639.778 1470.12 641.222 1462 639.778 1476.88 629.667 1499.88 619.556 1490.41 595" fill="#E82113" fill-rule="evenodd"/><path d="M1426.33 583.789C1453 581 1450.33 629.816 1425 634 1439.67 613.079 1430.33 604.71 1427.67 582.395" fill="#E82113" fill-rule="evenodd"/><path d="M1332.38 606.75C1349.88 601 1345.85 638.375 1362 645.562 1356.62 647 1347.19 644.125 1340.46 644.125 1339.12 625.437 1341.81 618.25 1327 605.312" fill="#E82113" fill-rule="evenodd"/><path d="M1534.31 1863.75C1546.28 1866.62 1559.58 1875.25 1568.89 1886.75 1571.55 1891.06 1574.21 1896.81 1579.53 1899.69 1583.52 1901.12 1594.15 1899.69 1598.14 1899.69 1614.1 1899.69 1654 1904 1652.67 1881 1634.05 1879.56 1615.43 1876.69 1596.81 1873.81 1574.21 1869.5 1547.61 1858 1525 1859.44" fill="#E82113" fill-rule="evenodd"/><path d="M1788.67 1209.15C1770 1228.95 1770 1231.78 1782 1255.83 1791.33 1271.39 1803.33 1292.61 1808.67 1311 1810 1286.95 1796.67 1262.9 1796.67 1237.44 1798 1221.88 1800.67 1210.56 1792.67 1195" fill="#F5BDC5" fill-rule="evenodd"/><path d="M1183.67 1530.12C1186.33 1551.47 1170.33 1567.13 1165 1585.64 1161 1598.45 1165 1616.96 1157 1635.47 1154.33 1645.43 1149 1655.4 1142.33 1663.94 1134.33 1672.48 1121 1672.48 1122.33 1683.87 1123.67 1703.8 1169 1723.73 1182.33 1728 1151.67 1696.68 1159.67 1675.33 1178.33 1641.16 1182.33 1632.62 1187.67 1606.99 1195.67 1602.72 1205 1597.03 1230.33 1609.84 1241 1611.26 1238.33 1578.52 1183.67 1554.32 1183.67 1523" fill="#F5BDC5" fill-rule="evenodd"/><path d="M1759.48 1856.94C1790.18 1844.15 1819.55 1834.19 1844.91 1810.03 1868.94 1787.28 1888.96 1753.16 1899.64 1721.88 1919.67 1660.75 1921 1565.5 1892.97 1493 1900.98 1525.7 1904.98 1596.78 1902.31 1629.48 1898.31 1674.97 1883.62 1696.29 1866.27 1737.52 1844.91 1785.86 1803.53 1822.82 1755.47 1844.15 1727.44 1855.52 1712.76 1858.36 1684.73 1858.36 1672.71 1858.36 1648.68 1866.89 1634 1866.89 1659.36 1869.74 1714.09 1874 1735.45 1859.78" fill="#F6C7CD" fill-rule="evenodd"/><path d="M1328 1690C1368.04 1719.81 1530.85 1822 1699 1789.35 1642.95 1807.81 1468.13 1822 1328 1690Z" fill="#FEF8F8" fill-rule="evenodd"/><path d="M1504.5 1052.5C1545.89 885.5 1656.72 939.28 1739.5 940.695" stroke="#FFFFFF" stroke-width="2.86476" stroke-linecap="round" stroke-linejoin="round" stroke-miterlimit="10" fill="none" fill-rule="evenodd"/><path d="M1489.5 1123.5C1493.49 1096.63 1498.81 1075.42 1506.79 1049.96 1559.98 884.5 1674.35 942.482 1743.5 938.24" stroke="#4793C3" stroke-width="2.86476" stroke-miterlimit="8" fill="none" fill-rule="evenodd"/><path d="M1029.5 1214.5 1048.5 1221.5" stroke="#333333" stroke-width="1.14583" stroke-linecap="round" stroke-linejoin="round" stroke-miterlimit="10" fill="none" fill-rule="evenodd"/><path d="M0 0 9.99997 17.0002" stroke="#333333" stroke-width="1.14583" stroke-linecap="round" stroke-linejoin="round" stroke-miterlimit="10" fill="none" fill-rule="evenodd" transform="matrix(1 0 0 -1 1214.5 1183.5)"/><path d="M1604.86 1263.59C1600.87 1220.95 1559.65 1168.36 1543.69 1156.98 1527.73 1147.03 1513.11 1135.66 1493.16 1111.5 1491.83 1115.76 1490.5 1121.45 1490.5 1127.14 1506.46 1147.03 1556.99 1174.04 1550.34 1185.41 1542.36 1199.63 1526.4 1193.94 1521.09 1185.41 1531.72 1203.89 1534.38 1205.31 1556.99 1209.58 1579.6 1213.84 1595.55 1247.95 1600.87 1270.69 1606.19 1289.17 1612.84 1327.55 1612.84 1327.55 1612.84 1327.55 1615.5 1337.5 1614.17 1323.29 1611.51 1306.23 1607.52 1287.75 1604.86 1263.59Z" stroke="#333333" stroke-width="0.573097" stroke-linecap="round" stroke-linejoin="round" stroke-miterlimit="10" fill="none" fill-rule="evenodd"/><path d="M984.37 1184.5C987.065 1157.48 991.109 1137.57 996.5 1121.92 970.891 1120.5 933.152 1121.92 923.717 1123.34 911.587 1124.77 903.5 1175.97 929.109 1181.66 942.587 1184.5 962.804 1184.5 984.37 1184.5Z" stroke="#333333" stroke-width="1.14583" stroke-linecap="round" stroke-linejoin="round" stroke-miterlimit="10" fill="none" fill-rule="evenodd"/><path d="M1035.5 795.052C1007.31 789.397 984.486 782.328 975.089 779.5 954.952 780.914 945.555 816.259 960.322 830.397 973.746 834.638 1008.65 843.121 1008.65 843.121 988.514 843.121 967.034 844.534 956.294 844.534 940.185 850.19 937.5 895.431 961.664 899.672 983.144 901.086 1012.68 902.5 1035.5 902.5 1035.5 865.741 1035.5 827.569 1035.5 795.052Z" stroke="#333333" stroke-width="1.14583" stroke-linecap="round" stroke-linejoin="round" stroke-miterlimit="10" fill="none" fill-rule="evenodd"/><path d="M1038.5 732.5C1038.5 722.007 1072.75 713.5 1115 713.5 1157.25 713.5 1191.5 722.007 1191.5 732.5 1191.5 742.993 1157.25 751.5 1115 751.5 1072.75 751.5 1038.5 742.993 1038.5 732.5Z" stroke="#333333" stroke-width="1.14583" stroke-linecap="round" stroke-linejoin="round" stroke-miterlimit="10" fill="none" fill-rule="evenodd"/><path d="M1439.5 633.5C1442.17 633.5 1447.5 629.5 1451.5 625.5" stroke="#333333" stroke-width="1.14583" stroke-linecap="round" stroke-linejoin="round" stroke-miterlimit="10" fill="none" fill-rule="evenodd"/><path d="M1336.16 1208.5C1333.5 1155.92 1342.82 1090.55 1366.78 1032.29 1377.43 1008.13 1382.76 991.079 1385.42 978.289 1385.42 978.289 1385.42 978.289 1385.42 978.289 1385.42 978.289 1385.42 978.289 1385.42 978.289 1390.75 958.395 1386.75 949.868 1380.09 945.605 1377.43 944.184 1377.43 944.184 1377.43 944.184 1358.79 857.5 1384.09 816.289 1410.71 803.5 1412.05 804.921 1412.05 804.921 1412.05 804.921 1422.7 809.184 1437.34 810.605 1457.31 812.026 1457.31 812.026 1457.31 812.026 1457.31 812.026 1473.29 812.026 1493.25 810.605 1515.89 809.184 1585.11 803.5 1684.96 810.605 1750.19 810.605 1767.5 816.289 1766.17 867.447 1748.86 870.289 1718.24 873.131 1679.64 878.816 1679.64 878.816 1734.22 881.658 1748.86 884.5 1748.86 884.5 1763.51 888.763 1760.84 934.237 1743.54 938.5 1674.31 942.763 1562.48 891.605 1510.56 1060.71 1502.57 1086.29 1493.25 1107.61 1489.26 1134.61" stroke="#333333" stroke-width="1.14583" stroke-linecap="round" stroke-linejoin="round" stroke-miterlimit="10" fill="none" fill-rule="evenodd"/><path d="M1411.84 805.417C1422.59 809.667 1437.36 811.083 1457.5 812.5 1457.5 812.5 1456.16 811.083 1452.13 806.833 1445.41 798.333 1427.96 795.5 1410.5 804L1411.84 805.417Z" stroke="#333333" stroke-width="1.14583" stroke-linecap="round" stroke-linejoin="round" stroke-miterlimit="10" fill="none" fill-rule="evenodd"/><path d="M1567.81 968.234C1589.05 969.7 1611.62 972.634 1635.52 978.5 1636.84 963.833 1638.17 949.167 1639.5 934.5 1611.62 935.967 1585.07 944.767 1562.5 968.234L1567.81 968.234Z" stroke="#333333" stroke-width="1.14583" stroke-linecap="round" stroke-linejoin="round" stroke-miterlimit="10" fill="none" fill-rule="evenodd"/><path d="M1153.4 1593.77C1161.38 1592.35 1178.67 1569.59 1181.33 1536.87 1181.33 1532.6 1181.33 1532.6 1181.33 1532.6 1181.33 1519.8 1180 1508.42 1178.67 1499.88 1178.67 1499.88 1178.67 1499.88 1178.67 1499.88 1162.71 1470.01 1156.06 1462.9 1117.48 1437.29 1068.26 1404.58 1025.69 1275.13 1028.35 1218.23 1028.35 1218.23 1028.35 1218.23 1028.35 1216.81 1035 1186.93 1066.93 1159.91 1109.5 1148.53 1148.08 1137.15 1199.96 1138.57 1233.22 1174.13 1233.22 1174.13 1233.22 1174.13 1234.55 1175.55 1238.54 1182.67 1243.86 1189.78 1249.18 1196.89 1254.5 1167.02 1254.5 1141.41 1243.86 1128.61 1217.25 1093.05 1209.27 1057.49 1178.67 1034.73 1168.03 1027.61 1150.74 1026.19 1140.1 1023.35 1128.12 1020.5 1104.18 1024.77 1088.22 1026.19 1070.92 1026.19 1052.3 1037.57 1040.33 1051.8 1023.03 1073.13 993.766 1090.2 983.124 1191.2 979.133 1225.34 964.5 1276.55 964.5 1336.3 964.5 1502.73 999.087 1535.45 1028.35 1607.99 1048.31 1659.21 1074.91 1690.5 1104.18 1681.97 1124.13 1677.7 1138.77 1662.05 1150.74 1643.56 1154.73 1636.44 1154.73 1636.44 1154.73 1636.44 1170.69 1609.42 1148.08 1585.23 1136.11 1575.28" stroke="#333333" stroke-width="1.14583" stroke-linecap="round" stroke-linejoin="round" stroke-miterlimit="10" fill="none" fill-rule="evenodd"/><path d="M1105.35 1681.64C1105.35 1681.64 1105.35 1681.64 1104.02 1681.64 1074.75 1690.18 1049.46 1660.3 1029.5 1610.5 1034.82 1640.38 1038.82 1671.68 1038.82 1695.87 1038.82 1784.09 1040.15 1819.66 1041.48 1875.16 1041.48 1875.16 1041.48 1875.16 1041.48 1875.16 1041.48 1875.16 1041.48 1876.58 1041.48 1876.58 1041.48 1887.96 1077.41 1896.5 1122.65 1896.5 1166.57 1896.5 1202.5 1887.96 1202.5 1876.58 1202.5 1876.58 1202.5 1875.16 1202.5 1875.16 1202.5 1875.16 1202.5 1875.16 1202.5 1875.16 1202.5 1754.21 1202.5 1754.21 1202.5 1754.21 1198.51 1752.79 1193.18 1749.94 1187.86 1747.1 1161.25 1734.29 1131.97 1712.95 1105.35 1681.64Z" stroke="#333333" stroke-width="1.14583" stroke-linecap="round" stroke-linejoin="bevel" stroke-miterlimit="10" fill="none" fill-rule="evenodd"/><path d="M1534.5 671.088C1529.17 668.242 1511.83 655.438 1510.5 651.17 1507.83 648.325 1506.5 639.789 1513.17 621.294 1519.83 598.531 1483.83 575.768 1469.17 599.954 1465.17 607.067 1462.5 611.335 1451.83 625.562 1451.83 625.562 1453.17 592.84 1449.17 588.572 1437.17 571.5 1413.17 575.768 1405.17 585.727 1398.5 594.263 1403.83 638.366 1370.5 641.212 1353.17 639.789 1355.83 619.871 1355.83 607.067 1357.17 595.686 1311.83 594.263 1307.83 619.871 1306.5 635.521 1305.17 651.17 1299.83 665.397 1298.5 669.665 1293.17 678.201 1291.83 679.624 1202.5 755.026 1194.5 806.242 1194.5 893.026 1194.5 928.593 1190.5 1001.15 1206.5 1066.59 1206.5 1068.02 1206.5 1068.02 1206.5 1068.02 1218.5 1086.51 1227.83 1107.85 1243.83 1129.19 1254.5 1141.99 1254.5 1167.6 1249.17 1197.48 1247.83 1196.06 1246.5 1194.63 1245.17 1193.21 1274.5 1228.78 1317.17 1261.5 1333.17 1252.96 1334.5 1252.96 1334.5 1251.54 1335.83 1251.54 1335.83 1187.52 1335.83 1187.52 1335.83 1187.52 1335.83 1139.15 1346.5 1082.24 1366.5 1032.45 1377.17 1008.26 1382.5 991.191 1385.17 978.387 1385.17 978.387 1385.17 978.387 1385.17 978.387 1385.17 978.387 1385.17 978.387 1385.17 978.387 1390.5 958.469 1386.5 949.933 1379.83 945.665 1377.17 944.242 1377.17 944.242 1377.17 944.242 1358.5 857.459 1383.83 816.201 1410.5 803.397 1411.83 804.82 1411.83 804.82 1411.83 804.82 1422.5 809.088 1437.17 810.51 1457.17 811.933 1457.17 811.933 1457.17 811.933 1457.17 811.933 1473.17 811.933 1493.17 810.51 1515.83 809.088 1549.17 806.242 1587.83 806.242 1626.5 807.665 1611.83 750.758 1581.17 702.387 1534.5 671.088Z" stroke="#333333" stroke-width="1.14583" stroke-linecap="round" stroke-linejoin="round" stroke-miterlimit="10" fill="none" fill-rule="evenodd"/><path d="M1003.5 1101.5C1015.6 1074.53 1029.04 1063.18 1039.8 1051.83 1051.9 1037.63 1070.72 1026.28 1088.2 1026.28 1104.33 1024.86 1128.53 1020.6 1140.63 1023.44 1151.38 1026.28 1168.86 1027.7 1179.61 1034.8 1180.96 1036.22 1183.65 1037.63 1184.99 1040.47 1186.33 1040.47 1186.33 1040.47 1187.68 1041.89 1189.02 1043.31 1190.37 1043.31 1191.71 1044.73 1191.71 1046.15 1193.06 1046.15 1193.06 1047.57 1194.4 1048.99 1195.75 1050.41 1197.09 1051.83 1197.09 1051.83 1198.43 1051.83 1198.43 1053.25 1199.78 1054.67 1201.12 1057.5 1203.81 1058.92 1206.5 1053.25 1206.5 1053.25 1206.5 1053.25 1198.43 1030.54 1194.4 874.423 1193.06 780.754 1191.71 752.369 1191.71 746.692 1191.71 735.339 1186.33 745.273 1154.07 752.369 1115.08 752.369 1073.41 752.369 1038.45 743.854 1038.45 732.5 1038.45 732.5 1038.45 735.339 1037.11 736.758 1035.76 750.95 1035.76 753.789 1034.42 776.496 1033.08 829.008 1034.42 898.55 1035.76 955.319 1037.11 996.477 1026.35 1047.57 1003.5 1101.5Z" stroke="#333333" stroke-width="1.14583" stroke-linecap="round" stroke-linejoin="round" stroke-miterlimit="10" fill="none" fill-rule="evenodd"/><path d="M1540.94 1859.22C1522.24 1854.98 1504.87 1850.74 1487.5 1846.5 1487.5 1888.89 1487.5 1888.89 1487.5 1888.89 1487.5 1890.3 1487.5 1894.54 1487.5 1895.96 1495.52 1904.43 1528.92 1911.5 1570.33 1911.5 1609.08 1911.5 1642.48 1904.43 1651.83 1897.37 1653.16 1895.96 1654.5 1893.13 1654.5 1893.13 1654.5 1876.17 1654.5 1876.17 1654.5 1876.17 1622.44 1876.17 1585.03 1870.52 1540.94 1859.22Z" stroke="#333333" stroke-width="1.14583" stroke-linecap="round" stroke-linejoin="round" stroke-miterlimit="10" fill="none" fill-rule="evenodd"/><path d="M1385.05 978.5C1385.05 978.5 1385.05 978.5 1385.05 978.5 1390.5 958.5 1386.41 949.929 1379.59 945.643 1376.86 944.214 1376.86 944.214 1376.86 944.214 1375.5 938.5 1379.59 959.929 1385.05 978.5Z" stroke="#333333" stroke-width="1.14583" stroke-linecap="round" stroke-linejoin="round" stroke-miterlimit="10" fill="none" fill-rule="evenodd"/><path d="M1385.5 932.5C1389.25 938.155 1390.5 959.362 1386.75 973.5" stroke="#333333" stroke-width="1.14583" stroke-linecap="round" stroke-linejoin="round" stroke-miterlimit="10" fill="none" fill-rule="evenodd"/><path d="M1685 1130.83C1685 1130.83 1685 1130.83 1685 1130.83 1692.8 1128 1703.2 1137.92 1708.4 1152.08 1709.7 1154.92 1709.7 1159.17 1709.7 1162 1709.7 1162 1709.7 1162 1709.7 1162 1709.7 1157.75 1711 1154.92 1709.7 1147.83 1704.5 1132.25 1694.1 1128 1685 1130.83Z" fill="#FFFFFF" fill-rule="evenodd"/><path d="M1654 1074C1658 1075.41 1662 1079.64 1666 1083.86 1672.67 1090.91 1676.67 1097.95 1678 1105 1678 1105 1678 1105 1678 1105 1676.67 1097.95 1675.33 1088.09 1668.67 1081.05 1664.67 1076.82 1659.33 1075.41 1654 1074Z" fill="#FFFFFF" fill-rule="evenodd"/><path d="M939.116 1052.94C925.829 1060.13 924.5 1103.3 943.103 1107.62 953.733 1110.5 978.979 1110.5 1000.24 1110.5 1001.57 1107.62 1002.9 1104.74 1004.23 1101.87 1004.23 1101.87 1004.23 1101.87 1004.23 1101.87 1010.87 1084.6 1016.19 1067.33 1021.5 1051.5 990.938 1051.5 953.733 1051.5 939.116 1052.94Z" stroke="#333333" stroke-width="1.14583" stroke-linecap="round" stroke-linejoin="round" stroke-miterlimit="10" fill="none" fill-rule="evenodd"/><path d="M1809.09 1060.5C1798.39 1059.08 1790.37 1060.5 1763.64 1071.83 1770.32 1083.17 1775.67 1095.92 1778.34 1110.08 1787.7 1144.08 1785.03 1152.58 1794.38 1179.5 1794.38 1179.5 1794.38 1179.5 1794.38 1179.5 1787.7 1149.75 1807.75 1118.58 1822.46 1108.67 1838.5 1098.75 1825.13 1061.92 1809.09 1060.5ZM1786.36 992.5C1786.36 992.5 1739.57 993.917 1711.5 1012.33 1724.87 1022.25 1743.58 1039.25 1758.29 1063.33 1763.64 1056.25 1777.01 1049.17 1797.06 1037.83 1805.08 1029.33 1805.08 1001 1786.36 992.5Z" stroke="#333333" stroke-width="1.14583" stroke-linecap="round" stroke-linejoin="round" stroke-miterlimit="10" fill="none" fill-rule="evenodd"/><path d="M1886.17 1420.14C1844.83 1286.63 1796.83 1191.48 1796.83 1191.48 1795.5 1188.64 1795.5 1184.38 1794.17 1180.12 1794.17 1180.12 1794.17 1180.12 1794.17 1180.12 1784.83 1153.13 1787.5 1144.61 1778.17 1110.52 1775.5 1096.32 1770.17 1083.54 1763.5 1072.18 1760.83 1067.92 1759.5 1065.08 1758.17 1063.66 1743.5 1039.51 1724.83 1022.47 1711.5 1012.53 1668.83 978.442 1611.5 971.34 1567.5 968.5 1559.5 969.92 1559.5 969.92 1559.5 969.92 1550.17 979.862 1540.83 991.224 1532.83 1006.85 1535.5 1006.85 1535.5 1006.85 1535.5 1006.85 1576.83 1002.59 1627.5 1005.43 1679.5 1029.57 1754.17 1065.08 1783.5 1126.15 1767.5 1211.36 1766.17 1214.2 1766.17 1214.2 1766.17 1214.2 1764.83 1221.3 1779.5 1253.97 1794.17 1285.21 1812.83 1326.4 1828.83 1378.95 1851.5 1445.7 1894.17 1574.94 1862.17 1674.36 1783.5 1738.27 1783.5 1739.69 1783.5 1739.69 1783.5 1739.69 1782.17 1739.69 1782.17 1739.69 1782.17 1739.69 1748.83 1758.16 1711.5 1817.81 1515.5 1766.68 1320.83 1715.55 1207.5 1562.16 1183.5 1511.03 1180.83 1506.77 1179.5 1502.51 1178.17 1499.67 1178.17 1499.67 1178.17 1499.67 1178.17 1499.67 1179.5 1508.19 1180.83 1519.56 1180.83 1532.34 1180.83 1536.6 1180.83 1536.6 1180.83 1536.6 1178.17 1569.26 1160.83 1591.99 1152.83 1593.41 1151.5 1593.41 1151.5 1593.41 1151.5 1593.41 1159.5 1604.77 1163.5 1620.39 1154.17 1636.02 1150.17 1643.12 1150.17 1643.12 1150.17 1643.12 1138.17 1661.58 1123.5 1677.2 1103.5 1681.46 1131.5 1712.71 1160.83 1734.01 1187.5 1746.79 1276.83 1790.82 1399.5 1824.91 1540.83 1858.99 1682.17 1894.5 1756.83 1868.94 1820.83 1837.69 1918.17 1790.82 1959.5 1640.28 1886.17 1420.14Z" stroke="#333333" stroke-width="1.14583" stroke-linecap="round" stroke-linejoin="round" stroke-miterlimit="10" fill="none" fill-rule="evenodd"/><path d="M1794.83 1179.58C1794.83 1179.58 1794.83 1179.58 1794.83 1179.58 1785.5 1152.67 1788.17 1144.17 1778.83 1110.17 1776.17 1096 1770.83 1083.25 1764.17 1071.92 1761.5 1067.67 1760.17 1064.83 1758.83 1063.42 1744.17 1039.33 1725.5 1022.33 1712.17 1012.42 1669.5 978.417 1612.17 971.333 1568.17 968.5 1560.17 969.917 1560.17 969.917 1560.17 969.917 1550.83 979.833 1541.5 991.167 1533.5 1006.75 1536.17 1006.75 1536.17 1006.75 1536.17 1006.75 1577.5 1002.5 1628.17 1005.33 1680.17 1029.42 1754.83 1064.83 1784.17 1125.75 1768.17 1210.75 1766.83 1213.58 1766.83 1213.58 1766.83 1213.58 1766.83 1215 1766.83 1219.25 1768.17 1223.5 1784.17 1217.83 1797.5 1195.17 1794.83 1179.58Z" stroke="#333333" stroke-width="1.14583" stroke-linecap="round" stroke-linejoin="round" stroke-miterlimit="10" fill="none" fill-rule="evenodd"/><path d="M1065.5 733.5C1065.5 728.53 1087.89 724.5 1115.5 724.5 1143.11 724.5 1165.5 728.53 1165.5 733.5 1165.5 738.471 1143.11 742.5 1115.5 742.5 1087.89 742.5 1065.5 738.471 1065.5 733.5Z" stroke="#FFFFFF" stroke-width="1.14583" stroke-linecap="round" stroke-linejoin="round" stroke-miterlimit="10" fill="none" fill-rule="evenodd"/><path d="M1089 1206.12C1101.15 1216.19 1145.7 1216.19 1170 1186 1161.9 1198.94 1125.45 1232 1089 1206.12Z" fill="#FFFFFF" fill-rule="evenodd"/><path d="M1394 1127C1401.91 1133.92 1430.94 1145 1456 1139.46 1440.17 1145 1411.15 1145 1394 1127Z" fill="#FFFFFF" fill-rule="evenodd"/><path d="M1461.17 1233.67C1462.5 1256.43 1454.52 1307.63 1462.5 1327.55 1471.82 1348.88 1471.82 1361.68 1475.81 1378.75 1479.8 1395.82 1475.81 1442.76 1483.79 1462.67 1491.77 1484.01 1494.43 1493.96 1501.08 1505.34 1506.4 1516.72 1517.04 1559.39 1530.34 1576.46 1544.97 1594.95 1544.97 1609.18 1554.28 1617.71 1563.6 1627.67 1559.61 1637.62 1566.26 1646.16 1574.24 1654.69 1578.23 1656.11 1583.55 1661.8 1588.87 1668.92 1600.84 1681.72 1596.85 1691.67 1592.86 1701.63 1603.5 1725.81 1596.85 1728.66 1590.2 1731.5 1591.53 1724.39 1578.23 1720.12 1563.6 1715.85 1550.29 1707.32 1543.64 1710.16 1536.99 1713.01 1517.04 1704.47 1518.37 1695.94 1519.7 1685.98 1513.05 1681.72 1513.05 1681.72 1513.05 1681.72 1501.08 1673.18 1495.76 1673.18 1491.77 1673.18 1486.45 1668.92 1478.47 1671.76 1470.49 1674.6 1465.17 1684.56 1459.84 1683.14 1455.85 1681.72 1450.53 1680.29 1446.54 1674.6 1442.55 1668.92 1446.54 1663.23 1437.23 1657.54 1426.59 1650.42 1437.23 1639.05 1421.27 1641.89 1406.64 1644.74 1407.97 1654.69 1396 1640.47 1382.7 1626.24 1382.7 1617.71 1378.71 1613.44 1374.72 1609.18 1378.71 1599.22 1372.06 1593.53 1365.4 1587.84 1365.4 1576.46 1357.42 1576.46 1348.11 1576.46 1336.14 1575.04 1336.14 1575.04 1336.14 1575.04 1337.47 1575.04 1324.17 1570.77 1309.54 1565.08 1316.19 1580.73 1309.54 1565.08 1302.89 1548.01 1306.88 1532.37 1296.24 1532.37 1285.6 1532.37 1274.95 1533.79 1274.95 1533.79 1260.32 1528.1 1260.32 1528.1 1260.32 1528.1 1260.32 1528.1 1258.99 1520.99 1255 1513.88 1251.01 1506.76 1256.33 1503.92 1249.68 1492.54 1241.7 1482.58 1241.7 1478.32 1232.39 1471.21 1223.08 1464.09 1224.41 1454.14 1220.42 1449.87 1216.43 1445.6 1217.76 1441.34 1213.77 1434.22 1211.11 1429.96 1195.15 1417.16 1191.16 1407.2 1188.5 1400.09 1196.48 1392.97 1205.79 1394.4 1236.38 1395.82 1265.64 1421.42 1290.92 1434.22 1290.92 1434.22 1269.63 1411.47 1228.4 1387.29 1181.84 1360.26 1161.89 1401.51 1148.59 1400.09 1137.95 1401.51 1136.62 1398.66 1128.64 1397.24 1120.66 1395.82 1120.66 1385.86 1114.01 1383.02 1107.36 1380.17 1106.03 1377.33 1096.72 1365.95 1088.73 1355.99 1082.08 1343.19 1076.76 1333.24 1071.44 1323.28 1075.43 1326.12 1072.77 1317.59 1070.11 1310.48 1071.44 1310.48 1064.79 1301.94 1059.47 1293.41 1056.81 1293.41 1056.81 1282.03 1056.81 1270.65 1060.8 1273.5 1054.15 1264.96 1047.5 1255 1051.49 1249.32 1051.49 1240.78 1051.49 1232.25 1048.83 1227.98 1048.83 1218.02 1054.15 1203.8 1064.79 1191 1078.09 1182.46 1086.07 1178.2 1108.69 1173.93 1119.33 1171.08 1131.3 1168.24 1139.28 1162.55 1152.58 1162.55 1159.23 1162.55 1164.55 1166.82 1173.86 1168.24 1184.5 1169.66 1196.48 1169.66 1201.8 1172.51 1228.4 1182.46 1231.06 1218.02 1248.35 1236.51 1252.34 1242.2 1257.66 1243.63 1261.65 1250.74 1265.64 1256.43 1265.64 1263.54 1270.96 1269.23 1277.61 1277.76 1302.89 1277.76 1300.23 1291.99 1304.22 1307.63 1293.58 1328.97 1304.22 1358.84 1314.86 1390.13 1333.48 1401.51 1333.48 1401.51 1322.84 1365.95 1304.22 1347.46 1318.85 1324.7 1334.81 1303.37 1329.49 1306.21 1334.81 1293.41 1333.48 1296.25 1333.48 1296.25 1333.48 1296.25 1333.48 1291.99 1333.48 1282.03 1336.14 1277.76 1340.13 1272.07 1348.11 1273.5 1350.77 1267.81 1357.42 1256.43 1350.77 1246.47 1361.41 1236.51 1360.08 1237.94 1360.08 1237.94 1360.08 1237.94 1376.05 1229.4 1401.32 1203.8 1401.32 1189.58 1390.68 1210.91 1376.05 1212.33 1369.39 1205.22 1365.4 1203.8 1370.72 1195.26 1370.72 1195.26 1368.06 1191 1374.72 1186.73 1373.39 1183.89 1372.06 1179.62 1372.06 1173.93 1370.72 1166.82 1373.39 1148.33 1376.05 1126.99 1378.71 1118.46 1390.68 1111.34 1409.3 1108.5 1427.92 1112.77 1445.21 1115.61 1458.51 1124.15 1467.83 1135.53 1466.5 1144.06 1465.17 1155.44 1463.83 1169.66 1461.17 1172.51 1467.83 1181.04 1465.17 1186.73 1461.17 1193.84 1466.5 1193.84 1465.17 1206.64 1462.5 1219.45 1467.83 1218.02 1459.84 1216.6 1446.54 1216.6 1435.9 1212.33 1430.58 1192.42 1429.25 1212.33 1439.89 1227.98 1461.17 1233.67Z" stroke="#333333" stroke-width="0.573097" stroke-linecap="round" stroke-linejoin="round" stroke-miterlimit="10" fill="none" fill-rule="evenodd"/><path d="M1851.85 1445.5C1829.19 1378.76 1813.2 1326.23 1794.54 1285.05 1779.88 1253.82 1765.22 1221.16 1766.55 1214.06 1767.88 1211.22 1767.88 1211.22 1767.88 1211.22 1783.88 1126.03 1754.55 1064.97 1679.92 1029.48 1626.6 1005.34 1573.29 1002.5 1533.31 1006.76 1531.97 1006.76 1531.97 1006.76 1531.97 1006.76 1525.31 1019.54 1518.64 1035.16 1513.31 1052.19 1522.64 1049.36 1534.64 1047.94 1538.64 1047.94 1545.3 1047.94 1558.63 1045.1 1565.29 1043.68 1573.29 1042.26 1582.62 1045.1 1590.62 1045.1 1598.61 1045.1 1601.28 1049.36 1605.28 1049.36 1610.61 1049.36 1618.61 1053.61 1622.6 1055.03 1626.6 1055.03 1641.26 1055.03 1650.59 1057.87 1658.59 1060.71 1663.92 1064.97 1671.92 1064.97 1679.92 1064.97 1682.58 1072.07 1691.91 1077.75 1701.24 1083.43 1701.24 1091.95 1706.57 1096.21 1711.9 1099.05 1727.9 1135.97 1727.9 1145.91 1727.9 1157.26 1731.9 1158.68 1730.56 1168.62 1729.23 1178.56 1730.56 1199.86 1698.57 1225.42 1666.59 1249.56 1677.25 1309.19 1693.24 1336.17 1673.25 1283.63 1698.57 1253.82 1702.57 1252.4 1706.57 1250.98 1711.9 1246.72 1715.9 1246.72 1721.23 1246.72 1727.9 1253.82 1727.9 1253.82 1727.9 1253.82 1730.56 1265.17 1733.23 1272.27 1735.89 1280.79 1731.9 1314.87 1733.23 1323.39 1734.56 1331.91 1729.23 1341.85 1735.89 1350.37 1742.56 1357.47 1734.56 1361.72 1737.23 1367.4 1739.89 1373.08 1739.89 1380.18 1739.89 1387.28 1739.89 1394.38 1734.56 1402.9 1743.89 1418.52 1754.55 1434.14 1742.56 1431.3 1745.22 1442.66 1747.89 1452.6 1741.23 1454.02 1741.23 1454.02 1741.23 1454.02 1731.9 1459.7 1725.23 1451.18 1718.57 1444.08 1715.9 1461.11 1714.57 1468.21 1713.24 1475.31 1719.9 1475.31 1733.23 1488.09 1746.56 1499.45 1735.89 1493.77 1741.23 1507.97 1746.56 1522.17 1746.56 1520.75 1747.89 1532.11 1749.22 1544.89 1746.56 1543.47 1743.89 1547.73 1741.23 1551.99 1739.89 1553.41 1734.56 1546.31 1729.23 1539.21 1733.23 1532.11 1725.23 1523.59 1715.9 1513.65 1719.9 1529.27 1714.57 1537.79 1710.57 1547.73 1719.9 1556.25 1725.23 1574.7 1730.56 1591.74 1726.56 1591.74 1727.9 1605.94 1729.23 1618.72 1723.9 1622.98 1719.9 1632.92 1714.57 1642.86 1709.24 1645.7 1697.24 1648.54 1683.91 1649.96 1662.59 1642.86 1658.59 1630.08 1654.59 1617.3 1654.59 1627.24 1642.6 1608.78 1631.93 1588.9 1629.27 1596 1623.94 1577.54 1618.61 1560.51 1614.61 1539.21 1602.61 1525.01 1591.95 1509.39 1593.28 1507.97 1589.28 1493.77 1585.29 1480.99 1583.95 1473.89 1573.29 1451.18 1561.29 1429.88 1565.29 1431.3 1561.29 1412.84 1557.3 1395.8 1530.64 1363.14 1529.31 1344.69 1527.97 1324.81 1519.98 1331.91 1514.65 1306.35 1509.31 1279.37 1482.66 1263.75 1485.32 1232.52 1503.98 1225.42 1514.65 1211.22 1514.65 1187.08 1511.98 1208.38 1501.32 1214.06 1485.32 1215.48 1485.32 1214.06 1485.32 1214.06 1485.32 1214.06 1483.99 1184.24 1486.66 1148.75 1489.32 1134.55 1489.32 1131.71 1489.32 1128.87 1486.66 1127.45 1475.99 1110.41 1456 1097.63 1432.01 1093.37 1406.69 1087.69 1381.36 1091.95 1365.37 1103.31 1364.04 1104.73 1362.7 1106.15 1361.37 1107.57 1357.37 1114.67 1357.37 1135.97 1353.37 1170.04 1350.71 1197.02 1352.04 1241.04 1333.38 1252.4 1314.72 1262.33 1260.08 1216.9 1234.75 1175.72 1233.42 1174.3 1233.42 1174.3 1233.42 1174.3 1200.1 1138.81 1148.12 1137.39 1109.47 1148.75 1066.82 1160.1 1034.83 1187.08 1028.17 1216.9 1028.17 1218.32 1028.17 1218.32 1028.17 1218.32 1025.5 1275.11 1068.15 1404.32 1117.46 1436.98 1161.45 1465.37 1164.11 1471.05 1184.11 1510.81 1208.1 1561.93 1321.39 1715.27 1515.98 1766.38 1711.9 1817.5 1749.22 1757.87 1782.54 1739.41 1783.88 1739.41 1783.88 1739.41 1783.88 1739.41 1783.88 1739.41 1783.88 1739.41 1783.88 1737.99 1862.51 1674.09 1894.5 1574.7 1851.85 1445.5Z" stroke="#333333" stroke-width="0.573097" stroke-linecap="round" stroke-linejoin="round" stroke-miterlimit="10" fill="none" fill-rule="evenodd"/><path d="M1486.5 1127.33C1475.86 1110.26 1455.9 1097.46 1431.95 1093.19 1406.67 1087.5 1381.4 1091.77 1365.43 1103.15 1364.1 1104.57 1362.77 1105.99 1361.44 1107.41 1357.45 1114.53 1357.45 1135.86 1353.46 1170 1350.8 1197.03 1352.13 1241.12 1333.5 1252.5" stroke="#333333" stroke-width="1.14583" stroke-linecap="round" stroke-linejoin="round" stroke-miterlimit="10" fill="none" fill-rule="evenodd"/></g></svg>