<svg xmlns="http://www.w3.org/2000/svg" viewBox="0 0 240 240">
  <!-- Background -->
  <defs>
    <linearGradient id="bgGrad" x1="0%" y1="0%" x2="100%" y2="100%">
      <stop offset="0%" style="stop-color:#2C3E50"/>
      <stop offset="100%" style="stop-color:#1B2631"/>
    </linearGradient>
    <linearGradient id="glowGrad" x1="0%" y1="0%" x2="100%" y2="100%">
      <stop offset="0%" style="stop-color:#FF8A65" stop-opacity="0.6"/>
      <stop offset="100%" style="stop-color:#FF5722" stop-opacity="0.8"/>
    </linearGradient>
  </defs>

  <!-- Base Circle with gradient -->
  <circle cx="120" cy="120" r="110" fill="url(#bgGrad)"/>
  
  <!-- Blender-inspired outer ring with glow effect -->
  <circle cx="120" cy="120" r="100" fill="none" stroke="url(#glowGrad)" stroke-width="4"/>
  
  <!-- Geometric cube representing 3D -->
  <path d="M120 70 L160 95 L160 145 L120 170 L80 145 L80 95 Z" 
        fill="none" 
        stroke="#FF5722" 
        stroke-width="3"
        stroke-linejoin="round"/>
  
  <!-- Inner faces of cube -->
  <path d="M120 70 L120 120 L160 95 M120 120 L120 170 M120 120 L80 95" 
        stroke="#FF5722" 
        stroke-width="2" 
        stroke-opacity="0.5"/>

  <!-- Code brackets -->
  <path d="M70 100 Q60 120 70 140" 
        fill="none" 
        stroke="#E0E0E0" 
        stroke-width="4" 
        stroke-linecap="round"/>
  <path d="M170 100 Q180 120 170 140" 
        fill="none" 
        stroke="#E0E0E0" 
        stroke-width="4" 
        stroke-linecap="round"/>

  <!-- Python script representation -->
  <path d="M90 150 Q120 130 150 150 Q120 170 90 150" 
        fill="none" 
        stroke="#64B5F6" 
        stroke-width="3" 
        stroke-linecap="round"/>

  <!-- Gear elements representing automation -->
  <g transform="translate(120, 120)">
    <circle r="25" fill="none" stroke="#FF8A65" stroke-width="2"/>
    {[...Array(8)].map((_, i) => {
      const angle = (i * 45) * Math.PI / 180;
      const x1 = Math.cos(angle) * 22;
      const y1 = Math.sin(angle) * 22;
      const x2 = Math.cos(angle) * 28;
      const y2 = Math.sin(angle) * 28;
      return `<line x1="${x1}" y1="${y1}" x2="${x2}" y2="${y2}" stroke="#FF8A65" stroke-width="2" stroke-linecap="round"/>`;
    }).join('')}
  </g>

  <!-- Central dot -->
  <circle cx="120" cy="120" r="4" fill="#FF5722"/>
</svg>