<svg width="604" height="1328" xmlns="http://www.w3.org/2000/svg" xmlns:xlink="http://www.w3.org/1999/xlink" xml:space="preserve" overflow="hidden"><g transform="translate(-929 -574)"><path d="M1518.94 948.81C1489.64 912.077 1387.96 818.407 1341.43 781.673 1336.26 778 1331.09 778 1327.64 778 1327.64 778 1325.91 778 1325.91 778 1325.91 783.51 1325.91 783.51 1325.91 783.51 1325.91 783.51 1325.91 787.183 1322.47 789.02 1301.79 794.53 1265.6 796.367 1225.96 796.367 1184.6 796.367 1150.13 794.53 1129.45 789.02 1124.28 789.02 1124.28 783.51 1124.28 783.51 1124.28 781.673 1124.28 781.673 1124.28 781.673 1070.85 833.1 1001.91 899.22 972.617 934.117 969.17 939.627 965.723 943.3 964 950.647 1001.91 908.403 1062.23 847.793 1105.32 807.387 1110.49 801.877 1115.66 803.713 1119.11 803.713 1136.34 805.55 1179.43 809.223 1220.79 809.223 1258.7 809.223 1294.89 805.55 1310.4 803.713 1315.57 801.877 1320.74 805.55 1322.47 807.387 1377.62 858.813 1456.89 939.627 1486.19 976.36 1494.81 985.543 1498.26 992.89 1498.26 1013.09 1498.26 1035.13 1498.26 1837.76 1498.26 1837.76 1498.26 1854.29 1491.36 1868.98 1481.02 1880 1491.36 1868.98 1517.21 1834.08 1524.11 1824.9 1527.55 1815.72 1531 1804.7 1531 1793.68 1531 1793.68 1531 1007.58 1531 987.38 1531 965.34 1525.83 957.993 1518.94 948.81Z" fill="#90BAC4" fill-rule="evenodd"/><path d="M1109 590.5C1109 581.94 1160.93 575 1225 575 1289.06 575 1341 581.94 1341 590.5 1341 599.06 1289.06 606 1225 606 1160.93 606 1109 599.06 1109 590.5Z" fill="#E7E0E3" fill-rule="evenodd"/><path d="M1341 752.319C1341 759.66 1289.44 767 1225.86 767 1160.56 767 1109 759.66 1109 752.319 1109 589 1109 589 1109 589 1109 598.175 1160.56 605.515 1225.86 605.515 1289.44 605.515 1341 598.175 1341 589L1341 752.319Z" fill="#C0B0BA" fill-rule="evenodd"/><path d="M1333 609C1333 745.123 1333 745.123 1333 745.123 1333 752.481 1281.18 758 1217.27 758 1186.18 758 1163.73 756.16 1143 754.321 1172.36 752.481 1267.36 741.444 1298.45 713.852 1329.55 686.259 1329.55 634.753 1333 609Z" fill="#9D869A" fill-rule="evenodd"/><path d="M1225.86 767.2C1182.7 767.2 1144.72 765.4 1124 760 1124 783.4 1124 783.4 1124 783.4 1124 783.4 1124 788.8 1129.18 788.8 1149.9 794.2 1184.43 796 1225.86 796 1265.57 796 1301.83 794.2 1322.55 788.8 1326 787 1326 783.4 1326 783.4 1326 760 1326 760 1326 760 1305.28 765.4 1269.03 767.2 1225.86 767.2Z" fill="#A9CAD2" fill-rule="evenodd"/><path d="M1485.94 976.431C1456.64 939.709 1377.36 858.92 1322.21 807.508 1320.49 805.672 1315.32 802 1310.15 803.836 1294.64 805.672 1258.45 809.344 1220.53 809.344 1179.17 809.344 1136.09 805.672 1118.85 803.836 1115.4 803.836 1110.23 802 1105.06 807.508 1049.91 858.92 968.915 941.545 939.617 978.267 934.447 985.612 931 992.956 931 1009.48 931 1027.84 931 1837.57 931 1837.57 931 1870.62 956.851 1900 987.872 1900 1213.64 1900 1213.64 1900 1213.64 1900 1213.64 1900 1213.64 1900 1213.64 1900 1439.4 1900 1439.4 1900 1439.4 1900 1472.15 1900 1498 1870.62 1498 1837.57 1498 1837.57 1498 1035.19 1498 1013.15 1498 992.956 1494.55 985.612 1485.94 976.431Z" fill="#E3EEF1" fill-rule="evenodd"/><path d="M935.903 1166C929 1166 929 1153.12 934.177 1149.44 934.177 1149.44 954.886 1129.2 960.063 1123.68 966.966 1120 973.869 1120 980.772 1120 987.674 1120 1501.94 1120 1519.19 1120 1529.55 1120 1533 1121.84 1529.55 1129.2 1527.82 1134.72 1507.11 1160.48 1505.39 1162.32 1503.66 1166 1500.21 1166 1489.86 1166 1477.78 1166 1241.35 1166 1137.81 1166 1032.54 1166 1003.21 1166 985.949 1166 975.594 1166 949.709 1166 935.903 1166Z" fill="#AECB9E" fill-rule="evenodd"/><path d="M1353 881C1390.8 917.752 1457.82 993.094 1464.69 1002.28 1475 1015.15 1471.56 1026.17 1471.56 1050.06 1471.56 1073.95 1471.56 1526 1471.56 1526 1468.13 1434.12 1454.38 1079.46 1452.66 1040.87 1450.94 1002.28 1383.93 925.103 1353 881Z" fill="#B6D2D9" fill-rule="evenodd"/><path d="M1458.67 1166C1472 1166 1472 1166 1472 1166 1472 1120 1472 1120 1472 1120 1457 1120 1457 1120 1457 1120 1457 1134.72 1458.67 1149.44 1458.67 1166Z" fill="#77A86C" fill-rule="evenodd"/><path d="M1519 1120C1498 1120 1498 1120 1498 1120 1498 1164 1498 1164 1498 1164 1501.5 1164 1503.25 1164 1505 1162.17 1506.75 1160.33 1527.75 1134.67 1529.5 1129.17 1533 1121.83 1529.5 1120 1519 1120Z" fill="#77A86C" fill-rule="evenodd"/><path d="M1529.28 1121C1531 1122.84 1531 1124.67 1529.28 1128.35 1527.55 1133.86 1506.85 1159.58 1505.13 1161.42 1503.4 1163.26 1501.68 1163.26 1498.23 1163.26 1498.23 1163.26 1498.23 1163.26 1498.23 1163.26 1498.23 1165.09 1496.5 1165.09 1494.78 1165.09 1494.78 1165.09 1494.78 1165.09 1494.78 1165.09 1493.05 1165.09 1491.33 1165.09 1489.6 1165.09 985.923 1165.09 985.923 1165.09 985.923 1165.09 975.573 1165.09 949.699 1165.09 935.9 1165.09 930.725 1165.09 929 1157.75 930.725 1154.07 930.725 1154.07 930.725 1154.07 930.725 1154.07 930.725 1398.43 930.725 1837.53 930.725 1837.53 930.725 1870.6 956.599 1900 987.648 1900 1439.58 1900 1439.58 1900 1439.58 1900 1455.1 1900 1468.9 1892.65 1479.25 1881.63 1487.88 1874.28 1517.2 1835.7 1524.1 1824.67 1527.55 1815.49 1531 1804.46 1531 1793.44 1531 1793.44 1531 1365.36 1531 1121L1529.28 1121Z" fill="#468B4D" fill-rule="evenodd"/><path d="M1472 1526C1472 1526 1472 1305.59 1472 1166 1458 1166 1458 1166 1458 1166 1463.25 1289.06 1470.25 1465.39 1472 1526Z" fill="#01642A" fill-rule="evenodd"/><path d="M1529.28 1128.35C1527.55 1133.86 1506.86 1159.59 1505.14 1161.43 1503.41 1163.27 1501.69 1163.27 1498.24 1163.27 1498.24 1402.18 1498.24 1837.73 1498.24 1837.73 1498.24 1854.27 1491.34 1868.97 1481 1880 1482.72 1880 1482.72 1880 1484.45 1878.16 1484.45 1878.16 1484.45 1878.16 1484.45 1878.16 1484.45 1878.16 1484.45 1876.32 1486.17 1876.32 1486.17 1876.32 1486.17 1876.32 1486.17 1874.49 1486.17 1874.49 1487.9 1874.49 1487.9 1872.65 1487.9 1872.65 1489.62 1872.65 1489.62 1872.65 1489.62 1870.81 1489.62 1870.81 1491.34 1868.97 1491.34 1868.97 1491.34 1868.97 1491.34 1867.14 1493.07 1867.14 1493.07 1867.14 1493.07 1865.3 1494.79 1865.3 1494.79 1865.3 1494.79 1863.46 1496.52 1863.46 1496.52 1863.46 1496.52 1861.62 1498.24 1861.62 1498.24 1859.78 1498.24 1859.78 1498.24 1859.78 1499.97 1857.95 1499.97 1857.95 1499.97 1856.11 1501.69 1856.11 1501.69 1856.11 1501.69 1854.27 1503.41 1854.27 1503.41 1854.27 1503.41 1852.43 1505.14 1852.43 1505.14 1850.6 1505.14 1850.6 1506.86 1848.76 1506.86 1848.76 1506.86 1848.76 1508.59 1846.92 1508.59 1846.92 1508.59 1845.08 1508.59 1845.08 1510.31 1845.08 1510.31 1843.24 1510.31 1843.24 1512.03 1841.41 1512.03 1841.41 1512.03 1841.41 1512.03 1839.57 1513.76 1839.57 1513.76 1839.57 1513.76 1837.73 1515.48 1837.73 1515.48 1837.73 1515.48 1835.89 1515.48 1835.89 1517.21 1834.06 1517.21 1834.06 1517.21 1834.06 1517.21 1832.22 1517.21 1832.22 1518.93 1832.22 1518.93 1830.38 1518.93 1830.38 1518.93 1830.38 1520.66 1830.38 1520.66 1828.54 1520.66 1828.54 1520.66 1828.54 1520.66 1826.7 1522.38 1826.7 1522.38 1826.7 1522.38 1826.7 1522.38 1824.87 1522.38 1824.87 1524.1 1824.87 1527.55 1815.68 1531 1804.65 1531 1793.62 1531 1793.62 1531 1352.56 1531 1121 1529.28 1121 1529.28 1121 1529.28 1121 1531 1122.84 1531 1124.68 1529.28 1128.35Z" fill="#01642A" fill-rule="evenodd"/><path d="M1340.69 781.676C1335.54 778 1330.39 778 1326.95 778 1326.95 778 1325.24 778 1325.24 778 1325.24 783.513 1325.24 783.513 1325.24 783.513 1325.24 783.513 1325.24 787.189 1321.8 789.027 1301.19 794.54 1265.12 796.378 1225.61 796.378 1184.39 796.378 1150.04 794.54 1129.42 789.027 1124.27 789.027 1124.27 783.513 1124.27 783.513 1124.27 781.676 1124.27 781.676 1124.27 781.676 1103.66 801.892 1081.33 823.946 1059 846 1065.87 846 1065.87 846 1065.87 846 1079.61 831.297 1093.35 818.432 1105.38 807.405 1110.53 801.892 1115.68 803.73 1119.12 803.73 1136.29 805.567 1179.24 809.243 1220.46 809.243 1258.25 809.243 1294.32 805.567 1309.78 803.73 1314.93 801.892 1320.08 805.567 1321.8 807.405 1325.24 811.081 1328.67 812.919 1332.11 816.594 1351 789.027 1351 789.027 1351 789.027 1345.85 787.189 1342.41 783.513 1340.69 781.676Z" fill="#DDE9EC" fill-rule="evenodd"/><path d="M1322.18 807.424C1377.45 858.915 1456.91 939.831 1486.27 976.61 1491.45 982.127 1494.91 987.644 1496.64 995 1496.64 995 1496.64 995 1496.64 995 1496.64 995 1510.45 985.805 1526 963.737 1524.27 956.381 1524.27 954.542 1519.09 949.026 1489.73 912.246 1387.82 818.458 1341.18 781.678 1337.73 779.839 1336 778 1334.27 778 1334.27 778 1334.27 778 1334.27 778 1318.73 800.068 1317 803.746 1317 803.746 1317 803.746 1317 803.746 1317 803.746 1318.73 803.746 1322.18 805.585 1322.18 807.424Z" fill="#B9D6DD" fill-rule="evenodd"/><path d="M1105.08 807.793C1106.8 805.962 1108.52 804.132 1110.24 804.132 1110.24 804.132 1110.24 804.132 1110.24 804.132 1110.24 804.132 1111.96 802.302 1124 785.83 1122.28 784 1122.28 784 1122.28 784 1068.97 835.245 1000.19 899.302 972.673 934.076 970.953 937.736 969.234 939.566 969.234 941.396 967.514 941.396 967.514 941.396 967.514 941.396 957.196 956.038 946.879 970.679 940 978 940 978 940 978 940 978 969.234 941.396 1050.06 859.038 1105.08 807.793Z" fill="#F6FAFB" fill-rule="evenodd"/><path d="M935.948 1166C942.895 1166 953.316 1166 962 1166 962 1124 962 1124 962 1124 962 1124 960.263 1124 960.263 1124 955.053 1129.48 934.211 1149.57 934.211 1149.57 929 1153.22 929 1166 935.948 1166Z" fill="#77A86C" fill-rule="evenodd"/><path d="M939.5 978.585C934.25 985.941 930.75 993.297 930.75 1009.85 930.75 1168 930.75 1168 930.75 1168 932.5 1164.32 932.5 1164.32 932.5 1164.32 929 1160.64 929 1153.29 934.25 1149.61 934.25 1149.61 955.25 1129.38 960.5 1123.86 960.5 1123.86 962.25 1123.86 962.25 1123.86 962.25 1129.38 962.25 1129.38 962.25 1129.38 964 1129.38 964 1129.38 964 1129.38 962.25 974.907 962.25 974.907 962.25 974.907 964 951 964 951 964 951 953.5 962.034 946.5 971.229 939.5 978.585Z" fill="#A9CAD2" fill-rule="evenodd"/><path d="M1020.4 1855.96C987.635 1855.96 961.767 1828.44 961.767 1793.57 961.767 1793.57 961.767 1410.06 961.767 1166.01 953.144 1166.01 942.797 1166.01 935.898 1166.01 930.725 1166.01 929 1158.67 930.725 1155 930.725 1155 930.725 1155 930.725 1155 930.725 1399.05 930.725 1837.61 930.725 1837.61 930.725 1870.64 956.593 1900 987.635 1900 1439.47 1900 1439.47 1900 1439.47 1900 1454.99 1900 1468.78 1892.66 1479.13 1881.65 1484.31 1877.98 1494.65 1863.3 1505 1850.46 1505 1844.95 1505 1844.95 1505 1844.95 1496.38 1852.29 1484.31 1855.96 1472.23 1855.96L1020.4 1855.96Z" fill="#2A7A3C" fill-rule="evenodd"/><path d="M962.438 982C962.438 965.469 1113.69 809.347 1118.84 805.673 1124 802 1113.69 803.837 1113.69 803.837 1043.22 869.959 1043.22 869.959 1043.22 869.959 959 959.959 959 959.959 959 959.959" fill="#A9CAD2" fill-rule="evenodd"/><path d="M976.023 1898C1007 1854.17 1007 1854.17 1007 1854.17 986.349 1848.7 970.86 1834.09 965.698 1814 933 1856 933 1856 933 1856 939.884 1876.09 955.372 1892.52 976.023 1898Z" fill="#207535" fill-rule="evenodd"/><path d="M1152 1173C1464 1173 1464 1173 1464 1173 1464 1208 1464 1208 1464 1208 1460.55 1196.95 1457.1 1184.05 1439.87 1184.05" fill="#01642A" fill-rule="evenodd"/><path d="M1481 1022C1481 1042.22 1481 1845.38 1481 1845.38 1481 1863.76 1467.22 1880.3 1458.61 1891.32 1456.89 1893.16 1448.28 1895 1441.39 1895 1434.51 1895 1035 1895 1035 1895 1091.83 1893.16 1425.9 1889.49 1441.39 1887.65 1456.89 1883.97 1472.39 1865.59 1475.83 1843.54" fill="#01642A" fill-rule="evenodd"/><path d="M1472.12 1856C1472.12 1856 1472.12 1856 1472.12 1856 1465.23 1872.71 1453.19 1885.71 1441.14 1887.57 1425.65 1889.43 1091.79 1893.14 1035 1895 1035 1895 1434.26 1895 1441.14 1895 1448.02 1895 1456.63 1893.14 1458.35 1891.29 1465.23 1882 1475.56 1869 1479 1856 1477.28 1856 1473.84 1856 1472.12 1856Z" fill="#004D20" fill-rule="evenodd"/><path d="M1116 730C1116 605.657 1116 605.657 1116 605.657 1116 605.657 1116 602 1121.13 603.828 1150.18 609.314 1175.82 612.971 1210 612.971 1180.95 614.8 1151.89 614.8 1136.51 618.457 1122.84 622.114 1122.84 704.4 1116 730Z" fill="#F7F4F4" fill-rule="evenodd"/><path d="M1323 765C1323 778 1323 778 1323 778 1323 787.286 1271.18 791 1207.27 791 1176.18 791 1153.73 787.286 1133 785.428 1162.36 783.571 1319.55 789.143 1323 765Z" fill="#55919F" fill-rule="evenodd"/><path d="M1343.18 781.75C1341.45 779.875 1339.73 778 1338 778 1338 778 1338 778 1338 778 1320.73 800.5 1319 804.25 1319 804.25 1319 804.25 1319 804.25 1319 804.25 1322.45 804.25 1324.18 806.125 1325.91 808 1331.09 811.75 1336.27 817.375 1341.45 823 1341.45 813.625 1343.18 793 1357 793 1351.82 787.375 1348.36 783.625 1343.18 781.75Z" fill="#E3EEF1" fill-rule="evenodd"/><path d="M1007.5 1854.5C992.342 1876.93 975.5 1897.5 975.5 1897.5" stroke="#659D61" stroke-width="2.86476" stroke-linecap="round" stroke-linejoin="round" stroke-miterlimit="10" fill="none" fill-rule="evenodd"/><path d="M964.5 1810.5C949 1832.93 933.5 1853.5 933.5 1853.5" stroke="#659D61" stroke-width="2.86476" stroke-linecap="round" stroke-linejoin="round" stroke-miterlimit="10" fill="none" fill-rule="evenodd"/><path d="M1512.5 1840.5C1519.61 1833.07 1524.94 1823.79 1528.5 1814.5" stroke="#333333" stroke-width="2.86476" stroke-linecap="round" stroke-linejoin="round" stroke-miterlimit="10" fill="none" fill-rule="evenodd"/><path d="M962.5 1173.5C962.5 1417.69 962.5 1794.08 962.5 1794.08 962.5 1828.96 988.362 1856.5 1021.12 1856.5 1472.84 1856.5 1472.84 1856.5 1472.84 1856.5 1488.36 1856.5 1502.16 1849.16 1512.5 1839.98" stroke="#84B176" stroke-width="2.86476" stroke-linecap="round" stroke-linejoin="round" stroke-miterlimit="10" fill="none" fill-rule="evenodd"/><path d="M962.2 984 961 1118 964 1118 962.2 984Z" fill="#FFFFFF" fill-rule="evenodd"/><path d="M936.403 1166.5C929.5 1166.5 929.5 1153.62 934.677 1149.94 934.677 1149.94 955.386 1129.7 960.563 1124.18 967.466 1120.5 974.369 1120.5 981.271 1120.5 988.174 1120.5 1502.44 1120.5 1519.69 1120.5 1530.05 1120.5 1533.5 1122.34 1530.05 1129.7 1528.32 1135.22 1507.61 1160.98 1505.89 1162.82 1504.16 1166.5 1500.71 1166.5 1490.36 1166.5 1478.28 1166.5 1241.85 1166.5 1138.31 1166.5 1033.04 1166.5 1003.71 1166.5 986.449 1166.5 976.094 1166.5 950.209 1166.5 936.403 1166.5Z" stroke="#FFFFFF" stroke-width="2.86476" stroke-linecap="round" stroke-linejoin="round" stroke-miterlimit="10" fill="none" fill-rule="evenodd"/><path d="M1109.5 591C1109.5 582.44 1161.44 575.5 1225.5 575.5 1289.57 575.5 1341.5 582.44 1341.5 591 1341.5 599.56 1289.57 606.5 1225.5 606.5 1161.44 606.5 1109.5 599.56 1109.5 591Z" stroke="#333333" stroke-width="2.86476" stroke-linecap="round" stroke-linejoin="round" stroke-miterlimit="10" fill="none" fill-rule="evenodd"/><path d="M1341.5 752.82C1341.5 760.16 1289.94 767.5 1226.36 767.5 1161.06 767.5 1109.5 760.16 1109.5 752.82 1109.5 589.5 1109.5 589.5 1109.5 589.5 1109.5 598.675 1161.06 606.016 1226.36 606.016 1289.94 606.016 1341.5 598.675 1341.5 589.5L1341.5 752.82Z" stroke="#333333" stroke-width="2.86476" stroke-linecap="round" stroke-linejoin="round" stroke-miterlimit="10" fill="none" fill-rule="evenodd"/><path d="M1486.44 976.932C1457.14 940.209 1377.86 859.42 1322.71 808.009 1320.99 806.172 1315.82 802.5 1310.65 804.336 1295.14 806.172 1258.95 809.845 1221.03 809.845 1179.67 809.845 1136.59 806.172 1119.35 804.336 1115.9 804.336 1110.73 802.5 1105.56 808.009 1050.41 859.42 969.415 942.045 940.117 978.768 934.947 986.112 931.5 993.457 931.5 1009.98 931.5 1028.34 931.5 1838.07 931.5 1838.07 931.5 1871.12 957.351 1900.5 988.372 1900.5 1214.14 1900.5 1214.14 1900.5 1214.14 1900.5 1214.14 1900.5 1214.14 1900.5 1214.14 1900.5 1439.9 1900.5 1439.9 1900.5 1439.9 1900.5 1472.65 1900.5 1498.5 1871.12 1498.5 1838.07 1498.5 1838.07 1498.5 1035.69 1498.5 1013.65 1498.5 993.457 1495.05 986.112 1486.44 976.932Z" stroke="#333333" stroke-width="2.86476" stroke-linecap="round" stroke-linejoin="round" stroke-miterlimit="10" fill="none" fill-rule="evenodd"/><path d="M1517.5 1832.5C1502 1854.5 1486.5 1876.5 1486.5 1876.5" stroke="#333333" stroke-width="2.86476" stroke-linecap="round" stroke-linejoin="round" stroke-miterlimit="10" fill="none" fill-rule="evenodd"/><path d="M1528.05 1814.5C1529.78 1808.99 1531.5 1801.64 1531.5 1794.29 1531.5 1794.29 1531.5 1008.11 1531.5 987.904 1531.5 965.862 1526.33 958.514 1519.43 949.33 1490.11 912.592 1388.35 818.911 1341.79 782.174 1336.62 778.5 1331.44 778.5 1327.99 778.5 1327.99 778.5 1326.27 778.5 1326.27 778.5 1326.27 784.011 1326.27 784.011 1326.27 784.011 1326.27 784.011 1326.27 787.685 1322.82 789.521 1302.12 795.032 1265.91 796.869 1226.24 796.869 1184.85 796.869 1150.35 795.032 1129.66 789.521 1124.49 789.521 1124.49 784.011 1124.49 784.011 1124.49 782.174 1124.49 782.174 1124.49 782.174 1071.02 833.607 1002.04 899.734 972.717 934.635 972.717 934.635 970.993 938.309 969.268 941.982 952.022 962.188 936.5 984.231 936.5 984.231" stroke="#333333" stroke-width="2.86476" stroke-linecap="round" stroke-linejoin="round" stroke-miterlimit="10" fill="none" fill-rule="evenodd"/><path d="M1226.36 767.7C1183.2 767.7 1145.22 765.9 1124.5 760.5 1124.5 783.9 1124.5 783.9 1124.5 783.9 1124.5 783.9 1124.5 789.3 1129.68 789.3 1150.4 794.7 1184.93 796.5 1226.36 796.5 1266.07 796.5 1302.33 794.7 1323.05 789.3 1326.5 787.5 1326.5 783.9 1326.5 783.9 1326.5 760.5 1326.5 760.5 1326.5 760.5 1305.78 765.9 1269.53 767.7 1226.36 767.7Z" stroke="#333333" stroke-width="2.86476" stroke-linecap="round" stroke-linejoin="round" stroke-miterlimit="10" fill="none" fill-rule="evenodd"/><path d="M1362.44 1258.5C1369.33 1258.5 1374.5 1264 1374.5 1271.32 1374.5 1474.68 1374.5 1474.68 1374.5 1474.68 1374.5 1482 1369.33 1487.5 1362.44 1487.5 1062.56 1487.5 1062.56 1487.5 1062.56 1487.5 1055.67 1487.5 1050.5 1482 1050.5 1474.68 1050.5 1271.32 1050.5 1271.32 1050.5 1271.32 1050.5 1264 1055.67 1258.5 1062.56 1258.5L1362.44 1258.5Z" stroke="#01642A" stroke-width="17.1875" stroke-miterlimit="8" fill="#01642A" fill-rule="evenodd"/><path d="M1361.94 1258C1368.83 1258 1374 1263.5 1374 1270.82 1374 1474.18 1374 1474.18 1374 1474.18 1374 1481.5 1368.83 1487 1361.94 1487 1062.06 1487 1062.06 1487 1062.06 1487 1055.17 1487 1050 1481.5 1050 1474.18 1050 1270.82 1050 1270.82 1050 1270.82 1050 1263.5 1055.17 1258 1062.06 1258L1361.94 1258Z" fill="#EBEBEB" fill-rule="evenodd"/><path d="M1078.17 1294.33C1078.17 1287 1083.32 1281.5 1090.19 1281.5 1090.19 1281.5 1358 1265 1351.13 1265 1071.3 1265 1071.3 1265 1071.3 1265 1066.15 1265 1061 1270.5 1061 1276 1061 1468.5 1061 1468.5 1061 1468.5 1061 1474 1078.17 1294.33 1078.17 1294.33Z" fill="#FFFFFF" fill-rule="evenodd"/><path d="M1348.05 1450.53C1348.05 1457.89 1342.88 1463.42 1337.72 1463.42 1337.72 1463.42 1069 1480 1074.17 1480 1354.94 1480 1354.94 1480 1354.94 1480 1361.83 1480 1367 1474.47 1367 1468.95 1367 1275.53 1367 1275.53 1367 1275.53 1367 1270 1348.05 1450.53 1348.05 1450.53Z" fill="#C4C4C4" fill-rule="evenodd"/><path d="M1362.44 1258.5C1369.33 1258.5 1374.5 1264 1374.5 1271.32 1374.5 1474.68 1374.5 1474.68 1374.5 1474.68 1374.5 1482 1369.33 1487.5 1362.44 1487.5 1062.56 1487.5 1062.56 1487.5 1062.56 1487.5 1055.67 1487.5 1050.5 1482 1050.5 1474.68 1050.5 1271.32 1050.5 1271.32 1050.5 1271.32 1050.5 1264 1055.67 1258.5 1062.56 1258.5L1362.44 1258.5Z" stroke="#333333" stroke-width="2.86476" stroke-linecap="round" stroke-linejoin="round" stroke-miterlimit="10" fill="none" fill-rule="evenodd"/><path d="M1484.11 986.328C1454.85 949.628 1375.66 868.886 1320.57 817.505 1318.85 815.67 1313.69 812 1308.52 813.835 1291.31 815.67 1255.16 819.34 1219.01 819.34 1177.69 821.175 1138.1 817.505 1119.16 813.835 1115.72 813.835 1110.55 813.835 1107.11 819.34 1067.52 854.206 1033.09 894.576 1014.15 916.597 1000.38 931.277 988.329 947.792 978 960.638 1012.43 922.102 1058.91 867.051 1095.06 835.855 1098.5 830.35 1110.55 817.505 1117.44 819.34 1136.38 821.175 1174.25 828.515 1215.56 828.515 1251.71 828.515 1280.98 826.68 1298.19 824.845 1303.36 823.01 1308.52 826.68 1310.24 828.515 1365.33 879.896 1444.52 960.638 1473.79 997.338 1480.67 1006.51 1480.67 1001.01 1480.67 1023.03 1480.67 1043.21 1480.67 1845.12 1480.67 1845.12 1480.67 1863.47 1466.9 1879.99 1458.29 1891 1478.95 1879.99 1491 1859.8 1491 1834.11 1491 1834.11 1491 1032.2 1491 1012.02 1491 989.998 1491 995.503 1484.11 986.328Z" fill="#FFFFFF" fill-rule="evenodd"/><path d="M1037 1166C1037 1156.06 1044.61 1148 1054 1148 1063.39 1148 1071 1156.06 1071 1166 1071 1175.94 1063.39 1184 1054 1184 1044.61 1184 1037 1175.94 1037 1166Z" fill="#FFFFFF" fill-rule="evenodd"/><path d="M1004 1165C1004 1158.37 1008.92 1153 1015 1153 1021.08 1153 1026 1158.37 1026 1165 1026 1171.63 1021.08 1177 1015 1177 1008.92 1177 1004 1171.63 1004 1165Z" fill="#FFFFFF" fill-rule="evenodd"/><path d="M1079 1165C1079 1158.37 1084.15 1153 1090.5 1153 1096.85 1153 1102 1158.37 1102 1165 1102 1171.63 1096.85 1177 1090.5 1177 1084.15 1177 1079 1171.63 1079 1165Z" fill="#FFFFFF" fill-rule="evenodd"/><path d="M1088 843C1050.2 879.713 983.183 969.66 976.31 978.838 966 991.688 969.437 1002.7 969.437 1026.57 969.437 1050.43 969.437 1502 969.437 1502 972.873 1410.22 986.62 1055.94 988.338 1017.39 990.056 978.838 1057.07 887.056 1088 843Z" fill="#FFFFFF" fill-rule="evenodd"/></g></svg>