<svg width="973" height="1682" xmlns="http://www.w3.org/2000/svg" xmlns:xlink="http://www.w3.org/1999/xlink" xml:space="preserve" overflow="hidden"><defs><clipPath id="clip0"><rect x="962" y="493" width="973" height="1682"/></clipPath></defs><g clip-path="url(#clip0)" transform="translate(-962 -493)"><path d="M1648.33 1957.9C1648.33 1957.9 1685.3 1932.8 1707.14 1918.46 1712.18 1914.87 1727.3 1907.7 1735.7 1904.11 1759.22 1898.74 1807.95 1879.01 1863.39 1843.16 1939 1792.96 1939 1775.03 1927.24 1749.93 1917.16 1732 1863.39 1753.51 1804.59 1792.96 1744.1 1832.4 1722.26 1852.12 1710.5 1879.01 1710.5 1879.01 1658.41 1911.29 1644.97 1920.25 1633.21 1929.21 1629.85 1932.8 1619.77 1916.66 1608.01 1900.53 1572.72 1841.36 1572.72 1841.36 1564.32 1843.16 1555.92 1844.95 1547.52 1846.74 1539.12 1848.54 1530.72 1848.54 1524 1850.33 1587.85 1965.07 1587.85 1965.07 1587.85 1965.07 1589.53 1972.24 1601.29 1983 1648.33 1957.9Z" fill="#B0BFC2" fill-rule="evenodd"/><path d="M1105.65 834.599C1026.77 693.007 1026.77 693.007 1026.77 693.007 1093.9 623.107 1147.6 587.262 1241.58 555 1506.74 1021 1506.74 1021 1506.74 1021 1505.06 1021 1505.06 1021 1505.06 1021 1313.75 1128.54 1313.75 1128.54 1313.75 1128.54 1313.75 1130.33 1313.75 1130.33 1313.75 1130.33 1330.53 1164.38 1330.53 1164.38 1330.53 1164.38 1330.53 1164.38 1312.07 1187.68 1278.5 1202.02 1243.26 1218.15 1095.58 1304.18 1162.71 1481.62 1234.87 1668.02 1463.11 1519.26 1463.11 1519.26 1641 1809.61 1641 1809.61 1641 1809.61 1641 1809.61 1610.79 1836.49 1547.02 1847.25 1481.57 1858 1478.21 1834.7 1286.9 1754.05 1093.9 1671.6 1018.38 1564.06 1013.35 1483.41 1008.31 1402.76 1033.48 1386.63 1046.91 1255.79 1058.66 1123.16 963 938.552 963 938.552 1105.65 834.599 1105.65 834.599 1105.65 834.599" fill="#88A9CD" fill-rule="evenodd"/><path d="M1608.76 1615.21C1602 1600.89 1602 1600.89 1602 1600.89 1647.62 1590.15 1784.48 1495.27 1791.24 1472 1798 1484.53 1798 1484.53 1798 1484.53 1798 1484.53 1798 1491.69 1798 1493.48 1779.41 1522.12 1669.59 1599.1 1617.21 1617 1615.52 1617 1608.76 1615.21 1608.76 1615.21Z" fill="#2D3B3D" fill-rule="evenodd"/><path d="M1232.65 936.815C1229.3 884.722 1187.4 847 1138.8 850.593 1091.87 854.185 1055 899.093 1058.35 951.185 1061.7 1001.48 1103.6 1041 1152.2 1037.41 1200.81 1033.81 1236 988.907 1232.65 936.815Z" fill="#5A6B6E" fill-rule="evenodd"/><path d="M1078.45 952.773C1075.09 908.171 1107.03 868.921 1147.38 865.352 1159.15 865.352 1170.91 867.136 1181 870.705 1167.55 863.568 1154.1 860 1137.29 861.784 1096.94 865.352 1065 902.818 1068.36 947.421 1070.04 979.534 1090.22 1006.3 1115.43 1017 1095.26 1004.51 1080.13 979.534 1078.45 952.773Z" fill="#FFFFFF" fill-rule="evenodd"/><path d="M1241.57 933.591C1246.61 990.9 1206.32 1039.25 1154.29 1042.84 1140.86 1044.63 1125.75 1041.05 1114 1035.67 1129.11 1046.42 1144.21 1050 1164.36 1048.21 1216.39 1042.84 1255 994.482 1251.64 938.964 1248.29 899.564 1223.11 870.909 1194.57 853 1221.43 869.118 1239.89 899.564 1241.57 933.591Z" fill="#FFFFFF" fill-rule="evenodd"/><path d="M1194.64 880C1228.21 906.761 1236.61 956.716 1211.43 992.398 1184.57 1029.86 1137.57 1037 1104 1010.24 1156.04 1035.22 1245 990.614 1194.64 880Z" fill="#354A4F" fill-rule="evenodd"/><path d="M1145 910.526C1163.74 907 1180.78 914.053 1182.48 935.211 1185.89 954.605 1175.67 970.474 1155.22 974 1177.37 968.71 1191 914.053 1145 910.526Z" fill="#90A4A8" fill-rule="evenodd"/><path d="M1171 942.2C1169.3 927.8 1157.4 917 1143.8 917 1130.2 918.8 1120 931.4 1121.7 945.8 1121.7 960.2 1133.6 971 1147.2 969.2 1160.8 969.2 1171 956.6 1171 942.2Z" fill-rule="evenodd"/><path d="M1224.32 1183.93C1222.63 1155.4 1199.07 1134 1172.13 1135.78 1145.2 1137.57 1125 1162.53 1128.37 1191.07 1130.05 1219.6 1151.93 1241 1178.87 1237.43 1205.8 1235.65 1226 1210.68 1224.32 1183.93Z" fill="#5A6B6E" fill-rule="evenodd"/><path d="M1204 1155C1220.67 1169.47 1224 1194.79 1212.33 1212.87 1199 1230.96 1175.67 1240 1159 1227.34 1185.67 1240 1229 1211.06 1204 1155Z" fill="#354A4F" fill-rule="evenodd"/><path d="M1196 1185.71C1194.29 1173.17 1185.75 1166 1173.79 1166 1163.54 1167.79 1155 1176.75 1156.71 1189.29 1156.71 1200.04 1166.96 1209 1177.21 1207.21 1187.46 1207.21 1196 1196.46 1196 1185.71Z" fill-rule="evenodd"/><path d="M1600.32 1787.93C1598.64 1759.4 1575.15 1738 1548.3 1739.78 1523.14 1741.57 1503 1766.53 1504.68 1795.07 1506.36 1823.6 1529.85 1845 1556.69 1843.22 1581.86 1839.65 1602 1816.47 1600.32 1787.93Z" fill="#5A6B6E" fill-rule="evenodd"/><path d="M1572.32 1789.71C1572.32 1778.96 1562.24 1770 1552.16 1770 1540.4 1771.79 1532 1780.75 1533.68 1793.29 1533.68 1804.04 1543.76 1813 1553.84 1813 1565.6 1811.21 1574 1800.46 1572.32 1789.71Z" fill="#2D3B3D" fill-rule="evenodd"/><path d="M1374.31 1676.82C1372.63 1651.84 1352.39 1634 1330.47 1635.78 1306.86 1637.57 1290 1658.98 1291.69 1682.18 1293.37 1707.16 1313.61 1725 1335.53 1723.22 1359.14 1721.43 1376 1700.02 1374.31 1676.82Z" fill="#5A6B6E" fill-rule="evenodd"/><path d="M1348.33 1678.1C1348.33 1667.24 1340 1660 1331.67 1661.81 1321.67 1661.81 1315 1670.86 1316.67 1679.9 1316.67 1690.76 1325 1698 1333.33 1696.19 1343.33 1696.19 1350 1687.14 1348.33 1678.1Z" fill="#2D3B3D" fill-rule="evenodd"/><path d="M1214 1009 1313 1181 1214 1009Z" fill="#E4E9EA" fill-rule="evenodd"/><path d="M1388.68 1555C1387 1553.21 1387 1553.21 1387 1553.21 1387 1553.21 1393.73 1512.03 1412.24 1501.29 1794.13 1256 1794.13 1256 1794.13 1256 1812.64 1284.65 1812.64 1284.65 1812.64 1284.65 1812.64 1284.65 1816 1290.02 1814.32 1293.6 1814.32 1297.18 1810.95 1300.76 1810.95 1300.76 1462.71 1519.19 1462.71 1519.19 1462.71 1519.19 1462.71 1519.19 1430.74 1538.89 1388.68 1555Z" fill="#FDBF89" fill-rule="evenodd"/><path d="M1355.38 1458.39C1382.26 1440.48 1701.57 1245.28 1738.54 1222 1741.9 1222 1743.58 1223.79 1743.58 1223.79 1794 1256.03 1794 1256.03 1794 1256.03 1412.51 1501.37 1412.51 1501.37 1412.51 1501.37 1394.03 1512.11 1387.31 1553.3 1387.31 1553.3 1388.99 1555.09 1388.99 1555.09 1388.99 1555.09 1367.14 1564.05 1341.93 1571.21 1316.72 1573 1310 1503.16 1325.12 1478.09 1355.38 1458.39Z" fill="#FDDBBB" fill-rule="evenodd"/><path d="M1387 1514C1381.95 1497.71 1366.82 1476 1350 1476" fill="#E4E9EA" fill-rule="evenodd"/><path d="M1782.32 2078.4C1778.96 2044.2 1738.64 2002.8 1738.64 2002.8 1738.64 2002.8 1688.24 1997.4 1664.72 1995.6 1609.28 1990.2 1528.64 1983 1463.12 1977.6 1439.6 1977.6 1419.44 1965 1406 1929 1406 1929 1406 1930.8 1406 1930.8 1407.68 1952.4 1409.36 1972.2 1409.36 1981.2 1411.04 2004.6 1444.64 2029.8 1503.44 2044.2 1530.32 2051.4 1735.28 2076.6 1784 2082 1784 2080.2 1784 2080.2 1782.32 2078.4Z" fill="#354447" fill-rule="evenodd"/><path d="M1098.4 2043.89C1098.4 2043.89 1295.14 2045.68 1288.41 1938.08 1283.37 1873.53 1278.32 1796.42 1274.96 1748 1278.32 1749.79 1281.69 1751.59 1286.73 1753.38 1332.13 1771.31 1367.45 1787.45 1394.35 1801.8 1397.71 1803.59 1397.71 1803.59 1397.71 1803.59 1397.71 1803.59 1407.8 1945.26 1409.48 1981.12 1411.17 2004.43 1444.8 2029.54 1503.65 2043.89 1535.6 2052.85 1794.55 2083.34 1794.55 2083.34 1794.55 2083.34 1838.27 2124.58 1845 2173 1053 2173 1053 2173 1053 2173L1098.4 2043.89Z" fill="#4E5E61" fill-rule="evenodd"/><path d="M1756.91 1456C1770.32 1475.83 1770.32 1475.83 1770.32 1475.83 1772 1486.65 1637.88 1582.2 1611.06 1584 1601 1562.37 1601 1562.37 1601 1562.37 1656.32 1528.11 1726.74 1481.24 1756.91 1456Z" fill="#2D3B3D" fill-rule="evenodd"/><path d="M1608.77 1578.27C1610.45 1583.62 1610.45 1583.62 1610.45 1583.62 1637.34 1581.83 1771.83 1487.38 1770.15 1476.69 1768.47 1473.13 1768.47 1473.13 1768.47 1473.13 1783.59 1466 1792 1469.56 1790.32 1473.13 1783.59 1494.51 1662.56 1580.05 1610.45 1599.65 1597 1605 1597 1592.53 1608.77 1578.27Z" fill="#B0BFC2" fill-rule="evenodd"/><path d="M1582.46 1494.04C1589.19 1508.3 1597.6 1519 1611.06 1510.09 1698.54 1456.61 1698.54 1456.61 1698.54 1456.61 1712 1447.7 1708.64 1435.22 1700.22 1420.96 1698.54 1419.17 1698.54 1419.17 1698.54 1419.17 1691.81 1404.91 1681.72 1396 1669.94 1403.13 1582.46 1456.61 1582.46 1456.61 1582.46 1456.61 1569 1465.52 1572.36 1478 1580.78 1492.26L1582.46 1494.04Z" fill="#2D3B3D" fill-rule="evenodd"/><path d="M1487.83 1112.37 1493.19 1096.21 1474.44 1039 1364 1100.25 1407.51 1150.06 1424.24 1154.1 1437.63 1162.85 1473.1 1227.46 1501.22 1249 1514.6 1240.25 1516.61 1240.25 1530 1230.83 1526.65 1193.13 1489.84 1128.52 1487.83 1112.37Z" fill="#2D3B3D" fill-rule="evenodd"/><path d="M1081.55 641C1033 557.193 1033 557.193 1033 557.193 1049.74 535.795 1113.36 496.566 1131.78 493 1182 578.59 1182 578.59 1182 578.59 1143.49 596.422 1111.69 616.036 1081.55 641Z" fill="#2D3B3D" fill-rule="evenodd"/><path d="M1438 1163 1463.33 1146.53 1464.67 1146.53 1490 1128 1438 1163Z" fill="#E4E9EA" fill-rule="evenodd"/><path d="M1473 1227.41 1501.16 1249 1514.58 1240.23 1516.59 1240.23 1530 1230.78 1526.65 1193 1499.82 1211.22 1473 1227.41Z" fill-rule="evenodd"/><path d="M1409 1149.95 1449.33 1122.98 1450.67 1122.98 1491 1096 1487.64 1112.19 1456.05 1133.77 1423.79 1154 1409 1149.95Z" fill-rule="evenodd"/><path d="M1488 1558.39C1743.11 1394 1743.11 1394 1743.11 1394 1743.11 1394 1749.82 1395.79 1751.5 1397.57 1758.22 1406.51 1773.32 1427.95 1773.32 1440.46 1775 1454.75 1555.13 1590.56 1519.89 1612L1488 1558.39Z" fill="#B0BFC2" fill-rule="evenodd"/><path d="M1421 896C1236.09 569 1236.09 569 1236.09 569 1197.43 579.78 1165.49 601.341 1147 612.121 1200.79 599.544 1254.58 631.885 1283.16 683.989 1311.74 734.297 1421 896 1421 896Z" fill="#487FB6" fill-rule="evenodd"/><path d="M1095.2 649C1085.04 657.899 1068.1 672.138 1056.24 682.816 1041 695.275 1054.55 713.073 1054.55 713.073 1124 843 1124 843 1124 843 1124 843 1047.78 686.376 1095.2 649Z" fill="#CAD7E8" fill-rule="evenodd"/><path d="M1062.7 1245C1066.02 1134 1031.15 1048.06 983 942.435 1024.51 912 1024.51 912 1024.51 912 1016.21 937.064 1017.87 978.242 1046.09 1064.18 1067.68 1128.63 1071 1207.4 1062.7 1245Z" fill="#CAD7E8" fill-rule="evenodd"/><path d="M1501 1746.94C1487.58 1766.61 1474.16 1807.75 1501 1831 1448.99 1807.75 1353.36 1759.46 1321.49 1750.51 1244.31 1720.11 1183.92 1695.07 1095 1611 1155.4 1646.77 1210.76 1702.22 1279.55 1718.32 1348.33 1734.41 1398.66 1768.4 1437.25 1759.46 1477.51 1750.51 1501 1746.94 1501 1746.94Z" fill="#487FB6" fill-rule="evenodd"/><path d="M1294.84 1648C1276.29 1673.05 1279.67 1712.42 1308.33 1732.11 1337 1750 1262.8 1719.58 1262.8 1719.58 1262.8 1719.58 1251 1648 1294.84 1648Z" fill="#487FB6" fill-rule="evenodd"/><path d="M1182 1245.44C1153.54 1247.24 1108.35 1222.09 1126.76 1170 1105 1196.94 1108.35 1267 1182 1245.44Z" fill="#487FB6" fill-rule="evenodd"/><path d="M1088 528C1066.14 544.132 1051 558.472 1051 558.472 1086.32 623 1086.32 623 1086.32 623 1086.32 623 1056.05 565.641 1088 528Z" fill="#718285" fill-rule="evenodd"/><path d="M1436 1066C1374 1105.17 1374 1105.17 1374 1105.17 1409.19 1139 1409.19 1139 1409.19 1139 1409.19 1139 1385.73 1130.1 1436 1066Z" fill="#718285" fill-rule="evenodd"/><path d="M1472.33 1147.81C1462.33 1155.05 1452.33 1158.67 1444 1165.9 1455.67 1189.43 1465.67 1205.71 1472.33 1222 1470.67 1207.52 1460.67 1185.81 1462.33 1171.33 1462.33 1164.1 1469 1149.62 1474 1146" fill="#718285" fill-rule="evenodd"/><path d="M1588.6 1770C1602 1786.07 1600.33 1811.07 1585.26 1823.57 1568.51 1837.86 1543.4 1843.21 1530 1827.14 1551.77 1845 1600.33 1827.14 1588.6 1770Z" fill="#354A4F" fill-rule="evenodd"/><path d="M1182.33 1163C1194 1166.52 1205.67 1173.55 1204 1191.14 1202.33 1208.72 1190.67 1212.24 1174 1210.48 1197.33 1214 1214 1178.83 1182.33 1163Z" fill="#90A4A8" fill-rule="evenodd"/><path d="M1352.33 1668C1359 1676.81 1359 1690.9 1349 1697.95 1340.67 1705 1327.33 1705 1319 1696.19 1332.33 1705 1359 1699.71 1352.33 1668Z" fill="#90A4A8" fill-rule="evenodd"/><path d="M1555 1763C1571.67 1763 1583.33 1777.25 1581.67 1793.28 1581.67 1809.31 1566.67 1820 1550 1818.22 1573.33 1814.66 1595 1786.16 1555 1763Z" fill="#90A4A8" fill-rule="evenodd"/><path d="M1144.02 1313C1123.9 1391.8 1120.54 1542.23 1248 1587 1159.11 1561.93 1087 1488.5 1144.02 1313Z" fill="#487FB6" fill-rule="evenodd"/><path d="M1542 1677C1459.61 1542 1459.61 1542 1459.61 1542 1459.61 1542 1392.35 1583.4 1315 1588.8 1365.44 1588.8 1436.07 1563.6 1454.56 1569 1473.06 1576.2 1542 1677 1542 1677Z" fill="#BECEE2" fill-rule="evenodd"/><path d="M1243 1077C1300 1177.05 1300 1177.05 1300 1177.05 1269.82 1191.35 1253.06 1203.85 1243 1211 1274.85 1189.56 1281.56 1169.91 1273.18 1150.25 1263.12 1132.39 1243 1077 1243 1077Z" fill="#487FB6" fill-rule="evenodd"/><path d="M1390 1533.87C1381.67 1506.93 1365 1471 1340 1479.98 1315 1487.17 1323.33 1568 1323.33 1568 1326.67 1530.28 1355 1481.78 1390 1533.87Z" fill="#FFFBF7" fill-rule="evenodd"/><path d="M1567.31 1519C1550.38 1533.26 1516.54 1542.17 1503 1561.78 1511.46 1574.26 1518.23 1588.52 1528.38 1601 1533.46 1584.96 1531.77 1568.91 1541.92 1552.87 1548.69 1542.17 1565.62 1531.48 1569 1522.57" fill="#91AAAF" fill-rule="evenodd"/><path d="M1063 2155C1086.51 2099.49 1110.01 2056.51 1110.01 2056.51 1110.01 2056.51 1214.11 2038.6 1244.33 2031.44 1299.73 2018.91 1309.81 1984.88 1306.45 1940.12 1303.09 1895.35 1296.37 1841.63 1291.34 1770 1314.84 1778.95 1382 1811.19 1382 1811.19 1353.46 1816.56 1326.59 1812.98 1323.24 1857.74 1321.56 1902.51 1346.74 2015.33 1281.26 2036.81 1222.5 2054.72 1110.01 2065.47 1063 2155Z" fill="#7D8D90" fill-rule="evenodd"/><path d="M1811 2160C1071 2158.27 1071 2158.27 1071 2158.27 1071 2158.27 1141.64 2141 1188.73 2144.45 1234.14 2147.91 1811 2160 1811 2160Z" fill="#354447" fill-rule="evenodd"/><path d="M1288.63 1938.61C1286.95 1926.07 1286.95 1913.54 1285.26 1901 1285.26 1933.24 1278.53 1986.97 1228 2021 1228 2021 1228 2021 1228 2021 1263.37 2006.67 1292 1981.6 1288.63 1938.61Z" fill="#1A2325" fill-rule="evenodd"/><path d="M1434 1421C1450.81 1413.82 1642.5 1298.95 1661 1281" fill="#FFFBF7" fill-rule="evenodd"/><path d="M1440.88 1484.67C1430.84 1495.52 1417.44 1497.33 1407.4 1508.19 1399.02 1519.05 1397.35 1533.52 1394 1548 1404.05 1546.19 1415.77 1533.52 1425.81 1528.1 1434.19 1524.48 1447.58 1520.86 1454.28 1515.43 1439.21 1502.76 1452.6 1479.24 1466 1472" fill="#FDAC6C" fill-rule="evenodd"/><path d="M1501.67 1243C1485 1228.78 1485 1228.78 1485 1228.78 1510 1211 1510 1211 1510 1211 1506.67 1212.78 1488.33 1230.56 1501.67 1243Z" fill="#2D3B3D" fill-rule="evenodd"/><path d="M1473 1046C1488 1094.16 1488 1094.16 1488 1094.16 1458 1112 1458 1112 1458 1112 1458 1112 1484.67 1092.38 1473 1046Z" fill-rule="evenodd"/><path d="M1503 1206C1522 1191.6 1522 1191.6 1522 1191.6 1504.73 1161 1504.73 1161 1504.73 1161 1509.91 1166.4 1520.27 1189.8 1503 1206Z" fill-rule="evenodd"/><path d="M1782.32 2078.41C1782.32 2073.01 1780.63 2067.62 1778.95 2062.23 1755.39 2051.45 1711.63 2040.66 1597.18 2031.68 1479.37 2024.49 1422.15 1981.35 1410.37 1949 1407 1949 1407 1949 1407 1949 1408.68 1963.38 1408.68 1974.16 1408.68 1981.35 1410.37 2004.72 1444.03 2029.88 1502.93 2044.26 1529.86 2051.45 1735.19 2076.61 1784 2082 1784 2080.2 1784 2080.2 1782.32 2078.41Z" fill="#1A2325" fill-rule="evenodd"/><path d="M1692.42 2002.79C1709.5 2001 1721.46 2002.79 1735.12 2013.53 1750.5 2024.26 1765.88 2047.53 1771 2069 1752.21 2058.26 1721.46 2052.89 1700.96 2058.26 1716.33 2052.89 1726.58 2045.74 1719.75 2026.05 1712.92 2013.53 1700.96 2009.95 1689 2006.37" fill="#1A2325" fill-rule="evenodd"/><path d="M1126.71 947.636C1126.71 936.727 1135.24 927.636 1145.47 925.818 1148.88 925.818 1150.59 925.818 1154 927.636 1150.59 925.818 1147.18 924 1142.06 924 1131.82 925.818 1125 934.909 1125 947.636 1125 954.909 1130.12 962.182 1136.94 964 1131.82 960.364 1128.41 954.909 1126.71 947.636Z" fill="#FFFFFF" fill-rule="evenodd"/><path d="M1138.7 1193.08C1137.03 1167.94 1153.78 1146.39 1177.24 1144.59 1183.95 1144.59 1188.97 1144.59 1194 1148.18 1187.3 1142.8 1180.59 1141 1172.22 1141 1148.76 1142.8 1132 1164.35 1133.68 1189.49 1135.35 1207.45 1145.41 1221.82 1160.49 1229 1148.76 1221.82 1140.38 1207.45 1138.7 1193.08Z" fill="#FFFFFF" fill-rule="evenodd"/><path d="M1162.33 1189.68C1160.67 1180.74 1167.33 1173.58 1177.33 1171.79 1179 1171.79 1182.33 1171.79 1184 1173.58 1180.67 1171.79 1177.33 1170 1174 1171.79 1165.67 1171.79 1159 1180.74 1160.67 1189.68 1160.67 1196.84 1164 1202.21 1170.67 1204 1165.67 1202.21 1162.33 1196.84 1162.33 1189.68Z" fill="#FFFFFF" fill-rule="evenodd"/><path d="M1516.7 1789.58C1518.38 1764.5 1538.48 1746.58 1560.25 1748.38 1566.95 1750.17 1571.98 1751.96 1577 1755.54 1571.98 1750.17 1563.6 1746.58 1555.23 1744.79 1533.45 1743 1513.35 1760.92 1511.68 1786 1510 1803.92 1518.38 1820.04 1530.1 1829 1520.05 1818.25 1515.03 1805.71 1516.7 1789.58Z" fill="#FFFFFF" fill-rule="evenodd"/><path d="M1301.14 1678.65C1302.86 1657.44 1321.71 1641.53 1340.57 1643.3 1347.43 1645.07 1352.57 1646.84 1356 1648.6 1350.86 1645.07 1344 1641.53 1337.14 1641.53 1316.57 1638 1299.43 1653.91 1296 1676.88 1296 1691.02 1302.86 1705.16 1314.86 1714 1304.57 1705.16 1299.43 1692.79 1301.14 1678.65Z" fill="#FFFFFF" fill-rule="evenodd"/><path d="M1379.44 1666C1386.22 1690.89 1374.36 1717.56 1350.64 1726.44 1343.86 1728.22 1337.08 1728.22 1332 1726.44 1338.78 1730 1348.94 1730 1357.42 1726.44 1381.14 1719.33 1393 1692.67 1386.22 1667.78 1381.14 1650 1365.89 1637.56 1348.94 1634 1362.5 1639.33 1374.36 1650 1379.44 1666Z" fill="#BECEE2" fill-rule="evenodd"/><path d="M1231.38 1168.14C1238.19 1196.88 1226.27 1225.63 1202.43 1234.61 1195.62 1236.41 1188.81 1236.41 1182 1236.41 1190.51 1238.2 1199.03 1240 1207.54 1236.41 1231.38 1227.42 1245 1198.68 1236.49 1169.93 1231.38 1150.17 1217.76 1135.8 1200.73 1134 1214.35 1139.39 1226.27 1151.97 1231.38 1168.14Z" fill="#BECEE2" fill-rule="evenodd"/><path d="M1538.33 1793.26C1538.33 1784.05 1545 1776.68 1553.33 1774.84 1555 1774.84 1558.33 1774.84 1560 1776.68 1556.67 1774.84 1555 1773 1551.67 1774.84 1541.67 1774.84 1535 1784.05 1536.67 1793.26 1536.67 1800.63 1540 1806.16 1546.67 1808 1541.67 1806.16 1538.33 1800.63 1538.33 1793.26Z" fill="#FFFFFF" fill-rule="evenodd"/><path d="M1320.62 1682.24C1320.62 1673.12 1327.08 1665.82 1333.54 1665.82 1336.77 1665.82 1338.38 1665.82 1340 1665.82 1338.38 1665.82 1335.15 1664 1331.92 1664 1325.46 1665.82 1319 1673.12 1319 1680.41 1320.62 1687.71 1323.85 1693.18 1328.69 1695 1323.85 1691.35 1322.23 1687.71 1320.62 1682.24Z" fill="#FFFFFF" fill-rule="evenodd"/><path d="M1363.89 1657C1367.3 1660.61 1369 1667.83 1369 1676.86 1369 1696.72 1360.48 1722 1323 1716.58 1338.33 1714.78 1369 1707.56 1363.89 1657Z" fill="#354A4F" fill-rule="evenodd"/><path d="M1333 1103C1488 1019.03 1488 1019.03 1488 1019.03 1368.38 810 1368.38 810 1368.38 810 1368.38 810 1437.46 940.421 1391.97 1020.82 1346.48 1099.43 1333 1103 1333 1103Z" fill="#487FB6" fill-rule="evenodd"/><path d="M1004.67 928C991.333 938.719 983 938.719 1006.33 992.315 1026.33 1036.98 1039.67 1074.49 1043 1083.43 1043 1085.21 1043 1087 1043 1087 1043 1087 1011.33 988.742 1004.67 972.663 999.667 956.584 998 935.146 1004.67 928Z" fill="#FFFFFF" fill-rule="evenodd"/><path d="M1064.62 675C1051.12 683.971 1041 683.971 1068 736 1059.56 723.441 1054.5 683.971 1064.62 675Z" fill="#FFFFFF" fill-rule="evenodd"/><path d="M1399 1569C1417.46 1560 1456.05 1542 1459.41 1542 1464.44 1542 1487.93 1588.8 1498 1605 1482.9 1579.8 1466.12 1554.6 1454.37 1554.6 1444.31 1554.6 1405.71 1567.2 1399 1569Z" fill="#FFFFFF" fill-rule="evenodd"/><path d="M1595 1503C1595 1503 1737.29 1411.39 1744.06 1407.8 1750.84 1406 1754.22 1414.98 1761 1425.76 1754.22 1418.57 1633.96 1477.85 1595 1503Z" fill="#FFFFFF" fill-rule="evenodd"/><path d="M1906 1758.62C1884.33 1746 1766 1827.16 1751 1847 1764.33 1834.37 1891 1755.02 1906 1758.62Z" fill="#FFFFFF" fill-rule="evenodd"/><path d="M1548 1872C1548 1872 1595.52 1963 1604 1963" fill="#FFFFFF" fill-rule="evenodd"/><path d="M1219 2039C1323 2015.7 1304.55 1920.68 1301.19 1892 1311.26 1972.67 1312.94 2024.66 1219 2039Z" fill="#FFFFFF" fill-rule="evenodd"/><path d="M1440 2042C1478.62 2056.4 1629.74 2096 1754 2092.4" fill="#7D8D90" fill-rule="evenodd"/><path d="M1648.83 1958.4C1648.83 1958.4 1685.8 1933.3 1707.64 1918.96 1712.68 1915.37 1727.8 1908.2 1736.2 1904.61 1759.72 1899.24 1808.45 1879.51 1863.89 1843.66 1939.5 1793.46 1939.5 1775.53 1927.74 1750.43 1917.66 1732.5 1863.89 1754.01 1805.09 1793.46 1744.6 1832.9 1722.76 1852.62 1711 1879.51 1711 1879.51 1658.91 1911.79 1645.47 1920.75 1633.71 1929.71 1630.35 1933.3 1620.27 1917.16 1608.51 1901.03 1573.22 1841.86 1573.22 1841.86 1564.82 1843.66 1556.42 1845.45 1548.02 1847.24 1539.62 1849.04 1531.22 1849.04 1524.5 1850.83 1588.35 1965.57 1588.35 1965.57 1588.35 1965.57 1590.03 1972.74 1601.79 1983.5 1648.83 1958.4Z" stroke="#333333" stroke-width="2.86476" stroke-linecap="round" stroke-linejoin="round" stroke-miterlimit="10" fill="none" fill-rule="evenodd"/><path d="M1927.5 1750.5C1924.14 1773.76 1772.91 1886.5 1722.5 1868.61" stroke="#333333" stroke-width="2.86476" stroke-linecap="round" stroke-linejoin="round" stroke-miterlimit="10" fill="none" fill-rule="evenodd"/><path d="M1233.15 937.315C1229.8 885.222 1187.9 847.5 1139.3 851.092 1092.37 854.685 1055.5 899.592 1058.85 951.685 1062.2 1001.98 1104.1 1041.5 1152.7 1037.91 1201.31 1034.31 1236.5 989.407 1233.15 937.315Z" stroke="#333333" stroke-width="2.86476" stroke-linecap="round" stroke-linejoin="round" stroke-miterlimit="10" fill="none" fill-rule="evenodd"/><path d="M1171.5 942.7C1169.8 928.3 1157.9 917.5 1144.3 917.5 1130.7 919.3 1120.5 931.9 1122.2 946.3 1122.2 960.7 1134.1 971.5 1147.7 969.7 1161.3 969.7 1171.5 957.1 1171.5 942.7Z" stroke="#333333" stroke-width="2.86476" stroke-linecap="round" stroke-linejoin="round" stroke-miterlimit="10" fill="none" fill-rule="evenodd"/><path d="M1224.82 1184.43C1223.13 1155.9 1199.57 1134.5 1172.63 1136.28 1145.7 1138.07 1125.5 1163.03 1128.87 1191.57 1130.55 1220.1 1152.43 1241.5 1179.37 1237.93 1206.3 1236.15 1226.5 1211.18 1224.82 1184.43Z" stroke="#333333" stroke-width="2.86476" stroke-linecap="round" stroke-linejoin="round" stroke-miterlimit="10" fill="none" fill-rule="evenodd"/><path d="M1196.5 1186.21C1194.79 1173.67 1186.25 1166.5 1174.29 1166.5 1164.04 1168.29 1155.5 1177.25 1157.21 1189.79 1157.21 1200.54 1167.46 1209.5 1177.71 1207.71 1187.96 1207.71 1196.5 1196.96 1196.5 1186.21Z" stroke="#333333" stroke-width="2.86476" stroke-linecap="round" stroke-linejoin="round" stroke-miterlimit="10" fill="none" fill-rule="evenodd"/><path d="M1600.82 1788.43C1599.14 1759.9 1575.65 1738.5 1548.81 1740.28 1523.64 1742.07 1503.5 1767.03 1505.18 1795.57 1506.86 1824.1 1530.35 1845.5 1557.2 1843.72 1582.36 1840.15 1602.5 1816.97 1600.82 1788.43Z" stroke="#333333" stroke-width="2.86476" stroke-linecap="round" stroke-linejoin="round" stroke-miterlimit="10" fill="none" fill-rule="evenodd"/><path d="M1572.82 1790.21C1572.82 1779.46 1562.74 1770.5 1552.66 1770.5 1540.9 1772.29 1532.5 1781.25 1534.18 1793.79 1534.18 1804.54 1544.26 1813.5 1554.34 1813.5 1566.1 1811.71 1574.5 1800.96 1572.82 1790.21Z" stroke="#333333" stroke-width="2.86476" stroke-linecap="round" stroke-linejoin="round" stroke-miterlimit="10" fill="none" fill-rule="evenodd"/><path d="M1374.81 1677.32C1373.13 1652.34 1352.89 1634.5 1330.97 1636.28 1307.36 1638.07 1290.5 1659.48 1292.19 1682.68 1293.87 1707.66 1314.11 1725.5 1336.03 1723.72 1359.64 1721.93 1376.5 1700.52 1374.81 1677.32Z" stroke="#333333" stroke-width="2.86476" stroke-linecap="round" stroke-linejoin="round" stroke-miterlimit="10" fill="none" fill-rule="evenodd"/><path d="M1348.83 1678.6C1348.83 1667.74 1340.5 1660.5 1332.17 1662.31 1322.17 1662.31 1315.5 1671.36 1317.17 1680.4 1317.17 1691.26 1325.5 1698.5 1333.83 1696.69 1343.83 1696.69 1350.5 1687.64 1348.83 1678.6Z" stroke="#333333" stroke-width="2.86476" stroke-linecap="round" stroke-linejoin="round" stroke-miterlimit="10" fill="none" fill-rule="evenodd"/><path d="M1223.5 1025.5 1313.5 1181.5" stroke="#333333" stroke-width="2.86476" stroke-linecap="round" stroke-linejoin="round" stroke-miterlimit="10" fill="none" fill-rule="evenodd"/><path d="M1355.87 1458.89C1382.76 1440.98 1702.07 1245.78 1739.04 1222.5 1742.4 1222.5 1744.08 1224.29 1744.08 1224.29 1794.5 1256.53 1794.5 1256.53 1794.5 1256.53 1413.01 1501.87 1413.01 1501.87 1413.01 1501.87 1394.53 1512.61 1387.81 1553.8 1387.81 1553.8 1389.49 1555.59 1389.49 1555.59 1389.49 1555.59 1367.64 1564.55 1342.43 1571.71 1317.22 1573.5 1310.5 1503.66 1325.62 1478.59 1355.87 1458.89Z" stroke="#333333" stroke-width="2.86476" stroke-linecap="round" stroke-linejoin="round" stroke-miterlimit="10" fill="none" fill-rule="evenodd"/><path d="M1228.5 2021.5C1278.5 1987.47 1285.17 1933.74 1285.17 1901.5 1288.5 1939.11 1288.5 1939.11 1288.5 1939.11" stroke="#333333" stroke-width="2.86476" stroke-linecap="round" stroke-linejoin="round" stroke-miterlimit="10" fill="none" fill-rule="evenodd"/><path d="M1700.5 1421.45C1698.82 1419.66 1698.82 1419.66 1698.82 1419.66 1692.1 1405.41 1682.03 1396.5 1670.27 1403.63 1582.94 1457.08 1582.94 1457.08 1582.94 1457.08 1569.5 1465.99 1572.86 1478.46 1581.26 1492.72 1582.94 1494.5 1582.94 1494.5 1582.94 1494.5" stroke="#333333" stroke-width="2.86476" stroke-linecap="round" stroke-linejoin="round" stroke-miterlimit="10" fill="none" fill-rule="evenodd"/><path d="M1488.33 1112.87 1493.69 1096.71 1474.94 1039.5 1364.5 1100.75 1408.01 1150.56 1424.74 1154.6 1438.13 1163.35 1473.6 1227.96 1501.72 1249.5 1515.1 1240.75 1517.11 1240.75 1530.5 1231.33 1527.15 1193.63 1490.34 1129.02 1488.33 1112.87Z" stroke="#333333" stroke-width="2.86476" stroke-linecap="round" stroke-linejoin="round" stroke-miterlimit="10" fill="none" fill-rule="evenodd"/><path d="M1641.5 1810.13C1641.5 1810.13 1611.29 1837 1547.52 1847.75 1482.07 1858.5 1478.71 1835.21 1287.4 1754.59 1094.4 1672.17 1018.88 1564.68 1013.85 1484.06 1008.81 1403.44 1033.99 1387.31 1047.41 1256.52 1059.16 1123.95 963.5 939.413 963.5 939.413 1106.15 835.5 1106.15 835.5 1106.15 835.5" stroke="#333333" stroke-width="2.86476" stroke-linecap="round" stroke-linejoin="round" stroke-miterlimit="10" fill="none" fill-rule="evenodd"/><path d="M1105.55 835.1C1026.5 693.508 1026.5 693.508 1026.5 693.508 1093.77 623.608 1147.59 587.762 1241.77 555.5 1507.5 1021.5 1507.5 1021.5 1507.5 1021.5" stroke="#333333" stroke-width="2.86476" stroke-linecap="round" stroke-linejoin="round" stroke-miterlimit="10" fill="none" fill-rule="evenodd"/><path d="M1082.05 641.5C1033.5 557.693 1033.5 557.693 1033.5 557.693 1050.24 536.295 1113.86 497.066 1132.28 493.5 1182.5 579.09 1182.5 579.09 1182.5 579.09 1143.99 596.922 1112.19 616.536 1082.05 641.5Z" stroke="#333333" stroke-width="2.86476" stroke-linecap="round" stroke-linejoin="round" stroke-miterlimit="10" fill="none" fill-rule="evenodd"/><path d="M1424.5 1154.5 1456.84 1134.18 1488.5 1112.5" stroke="#333333" stroke-width="2.86476" stroke-linecap="round" stroke-linejoin="round" stroke-miterlimit="10" fill="none" fill-rule="evenodd"/><path d="M1438.5 1163.5 1463.83 1147.03 1465.17 1147.03 1490.5 1128.5" stroke="#333333" stroke-width="2.86476" stroke-linecap="round" stroke-linejoin="round" stroke-miterlimit="10" fill="none" fill-rule="evenodd"/><path d="M1473.5 1227.5 1500.5 1211.5 1527.5 1193.5" stroke="#333333" stroke-width="2.86476" stroke-linecap="round" stroke-linejoin="round" stroke-miterlimit="10" fill="none" fill-rule="evenodd"/><path d="M1491.5 1096.5 1451.17 1123.5 1449.83 1123.5 1409.5 1150.5" stroke="#333333" stroke-width="2.86476" stroke-linecap="round" stroke-linejoin="round" stroke-miterlimit="10" fill="none" fill-rule="evenodd"/><path d="M1757.41 1456.5C1770.82 1476.33 1770.82 1476.33 1770.82 1476.33 1772.5 1487.15 1638.38 1582.7 1611.56 1584.5 1601.5 1562.87 1601.5 1562.87 1601.5 1562.87 1656.82 1528.61 1727.24 1481.74 1757.41 1456.5Z" stroke="#333333" stroke-width="2.86476" stroke-linecap="round" stroke-linejoin="round" stroke-miterlimit="10" fill="none" fill-rule="evenodd"/><path d="M1609.27 1578.77C1610.95 1584.12 1610.95 1584.12 1610.95 1584.12 1637.84 1582.33 1772.33 1487.88 1770.65 1477.19 1768.97 1473.63 1768.97 1473.63 1768.97 1473.63 1784.09 1466.5 1792.5 1470.06 1790.82 1473.63 1784.09 1495.01 1663.06 1580.55 1610.95 1600.15 1597.5 1605.5 1597.5 1593.03 1609.27 1578.77Z" stroke="#333333" stroke-width="2.86476" stroke-linecap="round" stroke-linejoin="round" stroke-miterlimit="10" fill="none" fill-rule="evenodd"/><path d="M1387.5 1514.5C1382.45 1498.21 1367.32 1476.5 1350.5 1476.5" stroke="#333333" stroke-width="2.86476" stroke-linecap="round" stroke-linejoin="round" stroke-miterlimit="10" fill="none" fill-rule="evenodd"/><path d="M1507.1 1021.5C1505.42 1021.5 1505.42 1021.5 1505.42 1021.5 1313.9 1129.09 1313.9 1129.09 1313.9 1129.09 1313.9 1130.88 1313.9 1130.88 1313.9 1130.88 1330.7 1164.95 1330.7 1164.95 1330.7 1164.95 1330.7 1164.95 1312.22 1188.27 1278.62 1202.61 1243.34 1218.75 1095.5 1304.82 1162.7 1482.35 1234.94 1668.84 1463.42 1520 1463.42 1520 1641.5 1810.5 1641.5 1810.5 1641.5 1810.5" stroke="#333333" stroke-width="2.86476" stroke-linecap="round" stroke-linejoin="round" stroke-miterlimit="10" fill="none" fill-rule="evenodd"/><path d="M1389.18 1555.5C1387.5 1553.71 1387.5 1553.71 1387.5 1553.71 1387.5 1553.71 1394.23 1512.53 1412.74 1501.79 1794.63 1256.5 1794.63 1256.5 1794.63 1256.5 1813.14 1285.15 1813.14 1285.15 1813.14 1285.15 1813.14 1285.15 1816.5 1290.52 1814.82 1294.1 1814.82 1297.68 1811.45 1301.26 1811.45 1301.26 1463.21 1519.69 1463.21 1519.69 1463.21 1519.69 1463.21 1519.69 1431.24 1539.39 1389.18 1555.5Z" stroke="#333333" stroke-width="2.86476" stroke-linecap="round" stroke-linejoin="round" stroke-miterlimit="10" fill="none" fill-rule="evenodd"/><path d="M1609.26 1615.71C1602.5 1601.39 1602.5 1601.39 1602.5 1601.39 1648.12 1590.65 1784.98 1495.77 1791.74 1472.5 1798.5 1485.03 1798.5 1485.03 1798.5 1485.03 1798.5 1485.03 1798.5 1492.19 1798.5 1493.98 1779.91 1522.62 1670.09 1599.6 1617.71 1617.5 1616.02 1617.5 1609.26 1615.71 1609.26 1615.71Z" stroke="#333333" stroke-width="2.86476" stroke-linecap="round" stroke-linejoin="round" stroke-miterlimit="10" fill="none" fill-rule="evenodd"/><path d="M1488.5 1558.89C1743.61 1394.5 1743.61 1394.5 1743.61 1394.5 1743.61 1394.5 1750.32 1396.29 1752 1398.07 1758.72 1407.01 1773.82 1428.45 1773.82 1440.96 1775.5 1455.25 1555.63 1591.06 1520.39 1612.5L1488.5 1558.89Z" stroke="#333333" stroke-width="2.86476" stroke-linecap="round" stroke-linejoin="round" stroke-miterlimit="10" fill="none" fill-rule="evenodd"/><path d="M1098.9 2044.39C1098.9 2044.39 1295.64 2046.18 1288.91 1938.58 1283.87 1874.03 1278.82 1796.92 1275.46 1748.5 1278.82 1750.29 1282.19 1752.09 1287.23 1753.88 1332.63 1771.81 1367.95 1787.95 1394.85 1802.3 1398.21 1804.09 1398.21 1804.09 1398.21 1804.09 1398.21 1804.09 1408.3 1945.76 1409.98 1981.62 1411.67 2004.93 1445.3 2030.04 1504.15 2044.39 1536.1 2053.35 1795.05 2083.84 1795.05 2083.84 1795.05 2083.84 1838.77 2125.08 1845.5 2173.5 1053.5 2173.5 1053.5 2173.5 1053.5 2173.5L1098.9 2044.39Z" stroke="#333333" stroke-width="2.86476" stroke-linecap="round" stroke-linejoin="round" stroke-miterlimit="10" fill="none" fill-rule="evenodd"/><path d="M1782.82 2078.9C1779.46 2044.7 1739.14 2003.3 1739.14 2003.3 1739.14 2003.3 1688.74 1997.9 1665.22 1996.1 1609.78 1990.7 1529.14 1983.5 1463.62 1978.1 1440.1 1978.1 1419.94 1965.5 1406.5 1929.5 1406.5 1929.5 1406.5 1931.3 1406.5 1931.3 1408.18 1952.9 1409.86 1972.7 1409.86 1981.7 1411.54 2005.1 1445.14 2030.3 1503.94 2044.7 1530.82 2051.9 1735.78 2077.1 1784.5 2082.5 1784.5 2080.7 1784.5 2080.7 1782.82 2078.9Z" stroke="#333333" stroke-width="2.86476" stroke-linecap="round" stroke-linejoin="round" stroke-miterlimit="10" fill="none" fill-rule="evenodd"/><path d="M1219 1033.4C1222.47 1029.8 1225.93 1028 1229.4 1028 1231.13 1033.4 1227.67 1040.6 1224.2 1046 1229.4 1044.2 1236.33 1037 1245 1037 1245 1047.8 1234.6 1058.6 1225.93 1064" stroke="#88A9CD" stroke-width="5.72917" stroke-miterlimit="8" fill="none" fill-rule="evenodd"/><path d="M1732.89 1863.12C1727.72 1870.41 1726 1879.53 1732.89 1885 1748.39 1885 1736.33 1861.29 1744.94 1857.65 1753.56 1854 1757 1868.59 1757 1874.06" stroke="#B0BFC2" stroke-width="5.72917" stroke-miterlimit="8" fill="none" fill-rule="evenodd"/><path d="M1352 1478.25C1353.67 1476.38 1358.67 1467 1363.67 1468.88 1367 1470.75 1362 1480.12 1360.33 1482" stroke="#FDDBBB" stroke-width="5.72917" stroke-miterlimit="8" fill="none" fill-rule="evenodd"/><path d="M1382 1507C1385.43 1503.4 1388.86 1499.8 1394 1498" stroke="#FDDBBB" stroke-width="5.72917" stroke-miterlimit="8" fill="none" fill-rule="evenodd"/></g></svg>