<svg width="1417" height="948" xmlns="http://www.w3.org/2000/svg" xmlns:xlink="http://www.w3.org/1999/xlink" xml:space="preserve" overflow="hidden"><g transform="translate(-2254 -795)"><path d="M3666 870.475C3637.36 877.634 3637.36 877.634 3637.36 877.634 3611.58 886.225 3578.64 911.997 3534.24 911.997 3508.46 911.997 3464.07 900.543 3406.78 884.793 3335.17 866.18 3240.65 820.363 3138.96 806.045 2988.59 786 2849.67 800.318 2755.15 870.475 2742.26 877.634 2697.86 910.565 2683.54 916.293 2680.67 914.861 2642.01 883.362 2624.82 873.339 2577.56 843.272 2507.38 813.204 2427.18 838.976 2281.1 884.793 2241 1020.81 2261.05 1075.22 2273.94 1115.31 2324.07 1129.63 2362.73 1135.36 2362.73 1135.36 2362.73 1135.36 2362.73 1135.36 2378.49 1135.36 2394.24 1148.24 2401.4 1171.15 2401.4 1171.15 2401.4 1171.15 2401.4 1171.15 2414.29 1234.15 2394.24 1351.55 2422.88 1446.05 2471.58 1606.41 2581.85 1741 2659.19 1739.57 2749.42 1736.7 2812.43 1570.62 2826.75 1411.69 2835.35 1337.24 2826.75 1288.56 2819.59 1257.06 2811 1206.94 2800.97 1156.83 2829.62 1159.7 2894.07 1161.13 3045.87 1228.42 3207.71 1198.35 3348.06 1169.72 3509.89 1085.24 3528.51 1080.95 3550 1076.65 3570.05 1083.81 3588.66 1090.97 3600.12 1093.83 3653.11 1103.86 3666 1103.86" fill="#DEA5A9" fill-rule="evenodd"/><path d="M3666.5 901.305C3633.56 909.899 3597.76 942.843 3534.76 942.843 3474.61 942.843 3288.46 858.335 3102.3 833.985 2946.21 812.5 2824.49 854.038 2737.14 919.926 2718.53 932.817 2688.46 965.761 2682.73 968.626 2672.7 971.49 2664.11 931.385 2619.72 899.873 2552.42 859.767 2486.55 846.876 2424.97 874.091 2300.39 927.088 2287.5 1033.08 2290.36 1053.13 2297.52 1087.51 2349.08 1104.7 2434.99 1109 2445.02 1109 2450.75 1107.56 2459.34 1106.13 2470.79 1104.7 2466.5 1119.02 2452.18 1124.75 2440.72 1130.48 2434.99 1160.56 2437.86 1186.34 2439.29 1199.23 2440.72 1299.5 2455.04 1368.25 2470.79 1448.46 2499.43 1500.02 2509.46 1521.51 2526.64 1563.05 2603.97 1664.74 2632.61 1674.77 2649.79 1680.5 2665.54 1680.5 2678.43 1673.34 2725.69 1648.99 2785.83 1508.62 2797.29 1398.33 2801.58 1362.52 2798.72 1283.74 2797.29 1219.29 2800.15 1197.8 2803.01 1176.32 2807.31 1154.83 2808.74 1151.97 2813.04 1143.37 2814.47 1141.94 2831.65 1126.18 2866.02 1136.21 2900.39 1143.37 2950.51 1153.4 3075.09 1184.91 3186.79 1173.45 3278.43 1163.42 3488.93 1050.27 3536.19 1047.4 3583.44 1044.54 3636.43 1078.92 3666.5 1078.92" stroke="#F5E7E6" stroke-width="8.59393" stroke-linecap="round" stroke-linejoin="round" stroke-miterlimit="10" fill="#E66A4A" fill-rule="evenodd"/><path d="M3666.5 901.305C3633.56 909.899 3597.76 942.843 3534.76 942.843 3474.61 942.843 3288.46 858.335 3102.3 833.985 2946.21 812.5 2824.49 854.038 2737.14 919.926 2718.53 932.817 2688.46 965.761 2682.73 968.626 2672.7 971.49 2664.11 931.385 2619.72 899.873 2552.42 859.767 2486.55 846.876 2424.97 874.091 2300.39 927.088 2287.5 1033.08 2290.36 1053.13 2297.52 1087.51 2349.08 1104.7 2434.99 1109 2445.02 1109 2450.75 1107.56 2459.34 1106.13 2470.79 1104.7 2466.5 1119.02 2452.18 1124.75 2440.72 1130.48 2434.99 1160.56 2437.86 1186.34 2439.29 1199.23 2440.72 1299.5 2455.04 1368.25 2470.79 1448.46 2499.43 1500.02 2509.46 1521.51 2526.64 1563.05 2603.97 1664.74 2632.61 1674.77 2649.79 1680.5 2665.54 1680.5 2678.43 1673.34 2725.69 1648.99 2785.83 1508.62 2797.29 1398.33 2801.58 1362.52 2798.72 1283.74 2797.29 1219.29 2800.15 1197.8 2803.01 1176.32 2807.31 1154.83 2808.74 1151.97 2813.04 1143.37 2814.47 1141.94 2831.65 1126.18 2866.02 1136.21 2900.39 1143.37 2950.51 1153.4 3075.09 1184.91 3186.79 1173.45 3278.43 1163.42 3488.93 1050.27 3536.19 1047.4 3583.44 1044.54 3636.43 1078.92 3666.5 1078.92" stroke="#F5E7E6" stroke-width="8.59393" stroke-linecap="round" stroke-linejoin="round" stroke-miterlimit="10" fill="none" fill-rule="evenodd"/><path d="M2505.71 1400.58C2474.11 1305.96 2454 1209.9 2454 1197 2456.87 1260.08 2472.67 1393.41 2492.79 1443.59 2517.21 1503.8 2576.1 1640 2635 1640 2603.4 1640 2545.94 1521.01 2505.71 1400.58Z" fill="#F4B499" fill-rule="evenodd"/><path d="M2527.16 1478.72C2493.05 1443.08 2487.37 1381.77 2476 1339 2493.05 1381.77 2508.68 1440.23 2530 1483" fill="#FFFFFF" fill-rule="evenodd"/><path d="M2534 1496C2531.2 1504.53 2527 1520.16 2536.8 1523 2541 1515.89 2539.6 1507.37 2535.4 1500.26" fill="#FFFFFF" fill-rule="evenodd"/><path d="M2837 1047C2807.77 1074.22 2801.92 1097.14 2799 1196" stroke="#F5E7E6" stroke-width="14.3231" stroke-linecap="round" stroke-miterlimit="8" fill="none" fill-rule="evenodd"/><path d="M2466 1110.94C2523.27 1099.44 2557.64 1098 2592 1121" stroke="#F5E7E6" stroke-width="14.3231" stroke-linecap="round" stroke-miterlimit="8" fill="none" fill-rule="evenodd"/><path d="M2678 967C2672.28 985.467 2575 1062.18 2597.89 1119" stroke="#F5E7E6" stroke-width="14.3231" stroke-linecap="round" stroke-miterlimit="8" fill="none" fill-rule="evenodd"/><path d="M2682 971C2709.11 1006.9 2734.79 1027 2799 1004.03" stroke="#F5E7E6" stroke-width="14.3231" stroke-linecap="round" stroke-miterlimit="8" fill="none" fill-rule="evenodd"/><path d="M2781.12 1184C2784 1239.85 2784 1352.98 2778.24 1411.69 2772.48 1471.84 2730.74 1603.58 2689 1658 2719.23 1612.18 2752.33 1474.7 2756.65 1400.24 2760.97 1325.77 2781.12 1184 2781.12 1184Z" fill="#C1051A" fill-rule="evenodd"/><path d="M2480 880.183C2522.89 873 2630.12 904.603 2641.56 944.825 2653 985.048 2628.69 979.302 2612.97 1006.6 2597.24 1033.89 2580.08 1054 2580.08 1054 2577.22 1002.29 2638.7 974.992 2622.98 949.135 2607.25 924.714 2554.35 875.873 2480 880.183Z" fill="#C1051A" fill-rule="evenodd"/><path d="M2417 899C2365.48 916.221 2295.35 1020.98 2306.8 1052.56 2315.39 1074.08 2354.03 1085.56 2398.39 1087 2356.89 1082.69 2261 1016.68 2417 899Z" fill="#F4B499" fill-rule="evenodd"/><path d="M2328 1011C2320.92 1016.68 2313.83 1029.45 2312.42 1036.55 2311 1047.9 2320.92 1049.32 2326.58 1055 2319.5 1042.23 2318.08 1035.13 2320.92 1020.94" fill="#FFFFFF" fill-rule="evenodd"/><path d="M2330.8 1002C2329.4 1003.4 2328 1006.2 2328 1009 2330.8 1009 2332.2 1007.6 2335 1006.2 2333.6 1004.8 2333.6 1003.4 2332.2 1003.4" fill="#FFFFFF" fill-rule="evenodd"/><path d="M2330.4 1059C2329 1060.67 2329 1062.33 2329 1064 2331.8 1064 2333.2 1064 2336 1064 2336 1062.33 2334.6 1062.33 2334.6 1060.67" fill="#FFFFFF" fill-rule="evenodd"/><path d="M3666.5 870.975C3637.86 878.134 3637.86 878.134 3637.86 878.134 3612.08 886.725 3579.14 912.497 3534.74 912.497 3508.96 912.497 3464.57 901.043 3407.28 885.293 3335.67 866.68 3241.15 820.863 3139.46 806.545 2989.09 786.5 2850.17 800.818 2755.65 870.975 2742.76 878.134 2698.36 911.065 2684.04 916.792 2681.17 915.361 2642.5 883.861 2625.32 873.839 2578.06 843.771 2507.88 813.704 2427.68 839.476 2281.6 885.293 2241.5 1021.31 2261.55 1075.72 2274.44 1115.81 2324.57 1130.13 2363.23 1135.86 2363.23 1135.86 2363.23 1135.86 2363.23 1135.86 2378.99 1135.86 2394.74 1148.74 2401.9 1171.65 2401.9 1171.65 2401.9 1171.65 2401.9 1171.65 2414.79 1234.65 2394.74 1352.05 2423.38 1446.55 2472.08 1606.91 2582.35 1741.5 2659.69 1740.07 2749.92 1737.2 2812.93 1571.12 2827.25 1412.19 2835.85 1337.74 2827.25 1289.06 2820.09 1257.56 2811.5 1207.44 2801.47 1157.33 2830.12 1160.2 2894.57 1161.63 3046.37 1228.92 3208.21 1198.85 3348.56 1170.22 3510.39 1085.74 3529.01 1081.45 3550.49 1077.15 3570.54 1084.31 3589.16 1091.47 3600.62 1094.33 3653.61 1104.36 3666.5 1104.36" stroke="#000000" stroke-width="4.58333" stroke-linecap="round" stroke-linejoin="round" stroke-miterlimit="10" fill="none" fill-rule="evenodd"/><path d="M2692.5 1162.5C2724 1075.14 2791.3 993.5 3008.95 993.5 3226.6 993.5 3554.5 993.5 3554.5 993.5" stroke="#000000" stroke-width="11.4583" stroke-linecap="round" stroke-linejoin="round" stroke-miterlimit="10" fill="none" fill-rule="evenodd"/><path d="M3529 1027 3543.26 993.576 3529 959 3610 993.576 3529 1027Z" fill-rule="evenodd"/><path d="M2898 1001C2934.25 985.255 2953.1 936.588 2956 928" stroke="#000000" stroke-width="5.72917" stroke-linecap="round" stroke-linejoin="round" stroke-miterlimit="10" fill="none" fill-rule="evenodd"/><path d="M2967 944 2953.98 933.457 2937 936.386 2961.34 903 2967 944Z" fill-rule="evenodd"/><path d="M3053 993C3090.56 978.87 3102.11 936.478 3105 928" stroke="#000000" stroke-width="5.72917" stroke-linecap="round" stroke-linejoin="round" stroke-miterlimit="10" fill="none" fill-rule="evenodd"/><path d="M3116 944 3102.98 933.457 3086 936.386 3110.34 903 3116 944Z" fill-rule="evenodd"/><path d="M3191 993C3227.83 978.87 3239.17 936.478 3242 928" stroke="#000000" stroke-width="5.72917" stroke-linecap="round" stroke-linejoin="round" stroke-miterlimit="10" fill="none" fill-rule="evenodd"/><path d="M3254 944 3240.55 933.457 3223 936.386 3248.15 903 3254 944Z" fill-rule="evenodd"/><path d="M2898 1001C2934.25 1016.75 2953.1 1065.41 2956 1074" stroke="#000000" stroke-width="5.72917" stroke-linecap="round" stroke-linejoin="round" stroke-miterlimit="10" fill="none" fill-rule="evenodd"/><path d="M2937 1064.86 2953.98 1067.71 2967 1058 2961.34 1098 2937 1064.86Z" fill-rule="evenodd"/><path d="M3053 993C3090.56 1008.78 3102.11 1051.83 3105 1059" stroke="#000000" stroke-width="5.72917" stroke-linecap="round" stroke-linejoin="round" stroke-miterlimit="10" fill="none" fill-rule="evenodd"/><path d="M3086 1052.43 3102.98 1055.29 3116 1045 3110.34 1085 3086 1052.43Z" fill-rule="evenodd"/><path d="M3191 993C3227.83 1008.78 3239.17 1051.83 3242 1059" stroke="#000000" stroke-width="5.72917" stroke-linecap="round" stroke-linejoin="round" stroke-miterlimit="10" fill="none" fill-rule="evenodd"/><path d="M3223 1052.43 3240.55 1055.29 3254 1045 3248.15 1085 3223 1052.43Z" fill-rule="evenodd"/><path d="M2676.5 912.5C2679.41 913.833 2685.23 916.5 2692.5 912.5" stroke="#000000" stroke-width="4.58333" stroke-linecap="round" stroke-linejoin="round" stroke-miterlimit="10" fill="none" fill-rule="evenodd"/></g></svg>